<?xml version="1.0" encoding="utf-8"?>
<!-- Generator: Adobe Illustrator 19.0.0, SVG Export Plug-In . SVG Version: 6.00 Build 0)  -->
<svg version="1.1" id="Ñëîé_1" xmlns="http://www.w3.org/2000/svg" xmlns:xlink="http://www.w3.org/1999/xlink" x="0px" y="0px"
	 viewBox="0 0 600 450" style="enable-background:new 0 0 600 450;" xml:space="preserve">
<style type="text/css">
	.st0{fill:url(#SVGID_1_);}
	.st1{fill:#FFFFFF;}
	.st2{fill:url(#SVGID_2_);}
	.st3{fill:url(#SVGID_3_);}
	.st4{fill:url(#SVGID_4_);}
	.st5{opacity:0.8;fill:#0C0F38;}
	.st6{opacity:0.8;fill:#D4088C;}
	.st7{fill:#6EE8FC;}
	.st8{fill:#D4088C;}
	.st9{fill:#6EE1F8;}
	.st10{fill:url(#SVGID_5_);}
	.st11{fill:#3A9BD5;}
	.st12{fill:url(#SVGID_6_);}
	.st13{fill:url(#SVGID_7_);}
	.st14{fill:url(#SVGID_8_);}
	.st15{fill:url(#SVGID_9_);}
	.st16{fill:url(#SVGID_10_);}
	.st17{opacity:0.11;}
	.st18{clip-path:url(#SVGID_12_);}
	.st19{fill:url(#SVGID_13_);}
	.st20{fill:url(#SVGID_14_);}
	.st21{fill:url(#SVGID_15_);}
	.st22{fill:url(#SVGID_16_);}
	.st23{fill:url(#SVGID_17_);}
	.st24{fill:url(#SVGID_18_);}
	.st25{opacity:0.5;}
</style>
<radialGradient id="SVGID_1_" cx="214.0476" cy="1725.9846" r="376.2386" gradientTransform="matrix(1.1472 0 0 1.1144 52.1502 -1699.1658)" gradientUnits="userSpaceOnUse">
	<stop  offset="0" style="stop-color:#22215B"/>
	<stop  offset="0.3261" style="stop-color:#1E1E55"/>
	<stop  offset="0.7509" style="stop-color:#141645"/>
	<stop  offset="1" style="stop-color:#0C0F38"/>
</radialGradient>
<rect x="0" class="st0" width="600" height="450"/>
<g>
	<path class="st1" d="M221.2,406v-10.4h2.3v4.2h1.6v-4.2h2.3V406h-2.3v-4.6h-1.6v4.6H221.2z"/>
	<path class="st1" d="M229,406v-10.4h2.3V406H229z"/>
	<path class="st1" d="M232.9,402.2v-1.3h3.3v1.3H232.9z"/>
	<path class="st1" d="M238.8,406v-8.7h-1.6v-1.7h5.5v1.7h-1.6v8.7H238.8z"/>
	<path class="st1" d="M243.6,406v-10.4h4.7v1.6h-2.4v2.6h1.8v1.6h-1.8v3.1h2.4v1.6H243.6z"/>
	<path class="st1" d="M252.3,406.2c-0.6,0-1.1-0.1-1.5-0.2c-0.4-0.2-0.7-0.4-1-0.7c-0.2-0.3-0.4-0.7-0.5-1.1
		c-0.1-0.4-0.2-0.9-0.2-1.4V399c0-0.6,0.1-1.1,0.2-1.5c0.1-0.4,0.3-0.8,0.5-1.1c0.2-0.3,0.6-0.5,1-0.7c0.4-0.2,0.9-0.2,1.5-0.2
		c0.6,0,1,0.1,1.4,0.2c0.4,0.1,0.7,0.4,0.9,0.6c0.2,0.3,0.4,0.6,0.5,0.9c0.1,0.4,0.1,0.8,0.1,1.2v0.9H253v-1c0-0.2,0-0.3,0-0.4
		c0-0.1,0-0.2,0-0.3c0-0.1-0.1-0.2-0.1-0.3c0-0.1-0.1-0.1-0.2-0.2c-0.1-0.1-0.2-0.1-0.4-0.1c-0.1,0-0.3,0-0.4,0.1
		c-0.1,0.1-0.2,0.1-0.2,0.2c-0.1,0.1-0.1,0.2-0.1,0.3c0,0.1,0,0.2-0.1,0.3c0,0.1,0,0.2,0,0.4v4.9c0,0.4,0.1,0.7,0.2,1
		c0.1,0.2,0.3,0.3,0.6,0.3c0.1,0,0.3,0,0.4-0.1c0.1-0.1,0.2-0.1,0.2-0.2c0-0.1,0.1-0.2,0.1-0.3c0-0.1,0-0.2,0-0.3c0-0.1,0-0.2,0-0.4
		v-1.1h2.2v0.9c0,0.4,0,0.7-0.1,1c-0.1,0.3-0.2,0.6-0.3,0.9c-0.1,0.3-0.3,0.5-0.5,0.7c-0.2,0.2-0.5,0.3-0.9,0.4
		C253.1,406.1,252.7,406.2,252.3,406.2z"/>
	<path class="st1" d="M256.6,406v-10.4h2.3v4.2h1.6v-4.2h2.3V406h-2.3v-4.6h-1.6v4.6H256.6z"/>
</g>
<g>
	<path class="st1" d="M221.2,393.1v-10.7h2.7c0.7,0,1.3,0.1,1.8,0.2c0.5,0.1,0.8,0.3,1.1,0.6c0.3,0.3,0.5,0.6,0.6,1
		c0.1,0.4,0.2,0.9,0.2,1.6v3.9c0,0.6-0.1,1.2-0.2,1.6c-0.1,0.4-0.3,0.8-0.6,1.1c-0.3,0.3-0.6,0.5-1.1,0.6c-0.5,0.1-1,0.2-1.7,0.2
		H221.2z M223.6,391.5h0.4c0.2,0,0.3,0,0.5,0c0.1,0,0.2-0.1,0.3-0.1c0.1-0.1,0.2-0.1,0.2-0.2c0-0.1,0.1-0.2,0.1-0.3
		c0-0.1,0-0.2,0-0.4c0-0.1,0-0.3,0-0.5v-4.6c0-0.3,0-0.5,0-0.6c0-0.1-0.1-0.3-0.1-0.4c-0.1-0.1-0.2-0.2-0.3-0.3
		c-0.2,0-0.4-0.1-0.6-0.1h-0.4V391.5z"/>
	<path class="st1" d="M229,393.1v-10.7h2.4v10.7H229z"/>
	<path class="st1" d="M235.7,393.3c-0.5,0-1-0.1-1.4-0.3c-0.4-0.2-0.7-0.4-0.9-0.8c-0.2-0.3-0.4-0.7-0.5-1.2c-0.1-0.4-0.2-1-0.2-1.5
		V386c0-0.5,0-0.9,0.1-1.3c0.1-0.4,0.2-0.7,0.3-1c0.2-0.3,0.4-0.6,0.6-0.8c0.2-0.2,0.6-0.4,0.9-0.5c0.4-0.1,0.8-0.2,1.3-0.2
		c0.5,0,0.9,0,1.2,0.1c0.4,0.1,0.7,0.2,0.9,0.4c0.2,0.2,0.4,0.4,0.6,0.7c0.2,0.3,0.3,0.6,0.3,0.9c0.1,0.3,0.1,0.7,0.1,1.1v0.7h-2.3
		v-0.9c0-0.2,0-0.3,0-0.4c0-0.1,0-0.2-0.1-0.3c0-0.1-0.1-0.2-0.1-0.3c-0.1-0.1-0.1-0.1-0.2-0.2c-0.1,0-0.2-0.1-0.4-0.1
		c-0.2,0-0.3,0-0.4,0.1c-0.1,0.1-0.2,0.1-0.2,0.2c-0.1,0.1-0.1,0.2-0.1,0.3c0,0.1-0.1,0.3-0.1,0.4c0,0.1,0,0.2,0,0.4v4.9
		c0,0.4,0.1,0.8,0.2,1c0.1,0.2,0.4,0.4,0.7,0.4c0.6,0,0.9-0.5,0.9-1.4V389h-1v-1.4h3.1v5.6h-1.6l-0.1-0.9
		C237.2,392.9,236.6,393.3,235.7,393.3z"/>
	<path class="st1" d="M240.7,393.1v-10.7h2.4v10.7H240.7z"/>
	<path class="st1" d="M245.6,393.1v-9H244v-1.8h5.7v1.8H248v9H245.6z"/>
	<path class="st1" d="M250,393.1l2-10.7h2.7l2,10.7h-2.2l-0.4-2.3h-1.6l-0.4,2.3H250z M252.8,389.4h1.1l-0.6-4.2L252.8,389.4z"/>
	<path class="st1" d="M257.8,393.1v-10.7h2.4v9.1h2.5v1.6H257.8z"/>
</g>
<g>
	
		<linearGradient id="SVGID_2_" gradientUnits="userSpaceOnUse" x1="340.5188" y1="1011.3773" x2="387.5409" y2="1011.3773" gradientTransform="matrix(-0.7071 0.7071 -0.7071 -0.7071 1119.8167 734.1299)">
		<stop  offset="0" style="stop-color:#D4088C"/>
		<stop  offset="4.496314e-002" style="stop-color:#CC088C"/>
		<stop  offset="0.4621" style="stop-color:#85078A"/>
		<stop  offset="0.7624" style="stop-color:#590689"/>
		<stop  offset="0.914" style="stop-color:#480689"/>
	</linearGradient>
	<circle class="st2" cx="147.3" cy="276.4" r="23.5"/>
	
		<linearGradient id="SVGID_3_" gradientUnits="userSpaceOnUse" x1="220.7185" y1="1115.0159" x2="240.1911" y2="1115.0159" gradientTransform="matrix(-1 0 0 -1 408.1528 1225.2839)">
		<stop  offset="0" style="stop-color:#6EE8FC"/>
		<stop  offset="0.1572" style="stop-color:#6AE2FB"/>
		<stop  offset="0.3681" style="stop-color:#5ED1F7"/>
		<stop  offset="0.6094" style="stop-color:#4BB5F1"/>
		<stop  offset="0.8716" style="stop-color:#308EE8"/>
		<stop  offset="0.9624" style="stop-color:#267FE5"/>
	</linearGradient>
	<circle class="st3" cx="177.7" cy="110.3" r="9.7"/>
	
		<linearGradient id="SVGID_4_" gradientUnits="userSpaceOnUse" x1="82.7736" y1="798.7752" x2="126.551" y2="798.7752" gradientTransform="matrix(0.8955 0.445 -0.445 0.8955 720.2325 -555.8404)">
		<stop  offset="0" style="stop-color:#6EE8FC"/>
		<stop  offset="0.1572" style="stop-color:#6AE2FB"/>
		<stop  offset="0.3681" style="stop-color:#5ED1F7"/>
		<stop  offset="0.6094" style="stop-color:#4BB5F1"/>
		<stop  offset="0.8716" style="stop-color:#308EE8"/>
		<stop  offset="0.9624" style="stop-color:#267FE5"/>
	</linearGradient>
	<circle class="st4" cx="456.6" cy="205.1" r="17.5"/>
	<path class="st5" d="M461.1,276c-7,1.4-14.7-0.8-17-4.9c-2.4-4.1,1.4-8.5,8.5-9.8c7-1.4,14.7,0.8,17,4.9
		C471.9,270.2,468.1,274.6,461.1,276z"/>
	<path class="st5" d="M153.5,355.2c-9.8,1.9-20.4-1.1-23.7-6.8c-3.3-5.7,2-11.8,11.8-13.7c9.8-1.9,20.4,1.1,23.7,6.8
		C168.6,347.2,163.3,353.3,153.5,355.2z"/>
	<path class="st5" d="M179.8,149.6c-3.5,0.7-7.3-0.4-8.5-2.4c-1.2-2,0.7-4.2,4.2-4.9c3.5-0.7,7.3,0.4,8.5,2.4
		C185.2,146.7,183.4,148.9,179.8,149.6z"/>
	<g>
		<circle class="st6" cx="242" cy="69.8" r="2.5"/>
		<circle class="st6" cx="198.3" cy="323.4" r="3"/>
		<circle class="st7" cx="179.2" cy="310.1" r="1.5"/>
		<circle class="st7" cx="441.8" cy="253" r="1.6"/>
		<g>
			<circle class="st7" cx="145.3" cy="145.1" r="2.3"/>
			<circle class="st7" cx="313.5" cy="63" r="2.3"/>
			<circle class="st7" cx="155.5" cy="140.1" r="1.2"/>
		</g>
		<circle class="st8" cx="369.8" cy="71" r="1.5"/>
	</g>
	<g>
		<g>
			<polygon class="st9" points="155,218.9 154.5,216.9 158.7,215.7 157.5,211.4 159.5,210.9 161.2,217.1 			"/>
		</g>
		<g>
			<polygon class="st9" points="151.2,225.6 150.7,223.6 155,222.4 153.8,218.2 155.7,217.6 157.4,223.8 			"/>
		</g>
		<g>
			<polygon class="st9" points="155.2,223.4 153.5,217.2 159.7,215.5 160.2,217.4 156,218.6 157.2,222.9 			"/>
		</g>
	</g>
	<path class="st9" d="M302.9,75.8c-2.6,0-4.8-2.1-4.8-4.8s2.1-4.8,4.8-4.8s4.8,2.1,4.8,4.8S305.5,75.8,302.9,75.8z M302.9,68.3
		c-1.5,0-2.8,1.2-2.8,2.8c0,1.5,1.2,2.8,2.8,2.8c1.5,0,2.8-1.2,2.8-2.8C305.7,69.5,304.4,68.3,302.9,68.3z"/>
	<path class="st9" d="M407.3,313.9l-5.4-5.4l5.4-5.4l5.4,5.4L407.3,313.9z M404.8,308.5l2.6,2.6l2.6-2.6l-2.6-2.6L404.8,308.5z"/>
	<g>
		
			<rect x="418.3" y="119.4" transform="matrix(0.7072 0.707 -0.707 0.7072 208.7974 -263.3883)" class="st8" width="8.2" height="2"/>
		
			<rect x="421.4" y="116.3" transform="matrix(0.7071 0.7071 -0.7071 0.7071 208.828 -263.4053)" class="st8" width="2" height="8.2"/>
	</g>
</g>
<g>
	<path class="st1" d="M276.6,388v-5.5h1v4.8h1.3v0.7H276.6z"/>
	<path class="st1" d="M280.6,388.1c-0.4,0-0.7-0.1-1-0.4c-0.2-0.2-0.3-0.6-0.3-1v-1.3c0-0.4,0.1-0.8,0.3-1c0.2-0.2,0.5-0.4,1-0.4
		c0.4,0,0.7,0.1,1,0.4c0.2,0.2,0.3,0.6,0.3,1v1.3c0,0.4-0.1,0.8-0.3,1C281.4,388,281.1,388.1,280.6,388.1z M280.6,387.4
		c0.1,0,0.1,0,0.2,0c0,0,0.1-0.1,0.1-0.2c0-0.1,0-0.1,0-0.2c0-0.1,0-0.2,0-0.3v-1.4c0-0.1,0-0.2,0-0.2c0-0.1,0-0.1,0-0.2
		c0-0.1,0-0.1-0.1-0.2c0,0-0.1-0.1-0.1-0.1c0,0-0.1,0-0.2,0c-0.1,0-0.1,0-0.2,0.1c0,0-0.1,0.1-0.1,0.2c0,0.1,0,0.1,0,0.2
		c0,0.1,0,0.2,0,0.3v1.4c0,0.1,0,0.2,0,0.2c0,0.1,0,0.1,0,0.2c0,0.1,0,0.1,0.1,0.2c0,0,0.1,0.1,0.1,0.1
		C280.5,387.4,280.6,387.4,280.6,387.4z"/>
	<path class="st1" d="M282.6,388v-4h0.9v0.6c0.1-0.2,0.3-0.4,0.4-0.5c0.1-0.1,0.3-0.2,0.4-0.2c0,0,0.1,0,0.1,0v0.9
		c-0.1,0-0.2-0.1-0.3-0.1c-0.1,0-0.3,0-0.4,0.1c-0.1,0.1-0.2,0.2-0.3,0.3v2.7H282.6z"/>
	<path class="st1" d="M286.1,388.1c-0.5,0-0.8-0.1-1-0.4c-0.2-0.2-0.3-0.6-0.3-1.1v-1.1c0-0.5,0.1-0.9,0.3-1.1
		c0.2-0.3,0.5-0.4,1-0.4c0.2,0,0.4,0,0.6,0.1c0.2,0.1,0.3,0.2,0.4,0.3c0.1,0.1,0.2,0.3,0.2,0.5c0,0.2,0.1,0.4,0.1,0.7v0.5h-1.6v0.6
		c0,0.1,0,0.1,0,0.2c0,0,0,0.1,0,0.2c0,0.1,0,0.1,0,0.2c0,0,0,0.1,0.1,0.1c0,0,0.1,0.1,0.1,0.1c0,0,0.1,0,0.1,0c0.1,0,0.2,0,0.3-0.1
		c0-0.1,0.1-0.2,0.1-0.4v-0.2h0.9v0.2c0,0.4-0.1,0.7-0.3,0.9C286.8,388,286.5,388.1,286.1,388.1z M285.8,385.6h0.7v-0.4
		c0-0.2,0-0.3-0.1-0.4c0-0.1-0.1-0.1-0.3-0.1c-0.1,0-0.2,0-0.3,0.1c0,0.1-0.1,0.3-0.1,0.5V385.6z"/>
	<path class="st1" d="M288,388v-4h0.9v0.3c0.3-0.3,0.6-0.4,0.9-0.4c0.3,0,0.5,0.2,0.7,0.5c0.3-0.3,0.6-0.5,1-0.5
		c0.2,0,0.4,0.1,0.5,0.2c0.1,0.2,0.2,0.4,0.2,0.7v3.1h-0.9v-3c0-0.1,0-0.2-0.1-0.3c0-0.1-0.1-0.1-0.2-0.1c-0.2,0-0.3,0.1-0.5,0.2
		c0,0,0,0,0,0c0,0,0,0,0,0v3.1h-0.9v-3c0-0.1,0-0.2-0.1-0.3c0-0.1-0.1-0.1-0.2-0.1c-0.2,0-0.3,0.1-0.5,0.2v3.2H288z"/>
	<path class="st1" d="M294.6,383.4v-0.8h0.9v0.8H294.6z M294.6,388v-4h0.9v4H294.6z"/>
	<path class="st1" d="M296.3,389.3v-5.3h0.9v0.3c0.2-0.2,0.5-0.4,0.8-0.4c0.1,0,0.3,0,0.4,0.1c0.1,0.1,0.2,0.1,0.3,0.2
		c0.1,0.1,0.1,0.2,0.2,0.3c0,0.1,0.1,0.2,0.1,0.4c0,0.1,0,0.2,0,0.3v1.3c0,0.2,0,0.4,0,0.6c0,0.2-0.1,0.3-0.2,0.5
		c-0.1,0.1-0.2,0.2-0.3,0.3c-0.1,0.1-0.3,0.1-0.4,0.1c-0.2,0-0.5-0.1-0.7-0.4v1.6H296.3z M297.6,387.4c0.1,0,0.1,0,0.2-0.1
		c0,0,0.1-0.1,0.1-0.2c0-0.1,0-0.2,0-0.2c0-0.1,0-0.2,0-0.3v-1.4c0-0.1,0-0.2,0-0.2c0-0.1,0-0.1-0.1-0.2c0-0.1-0.1-0.1-0.1-0.2
		c0,0-0.1,0-0.2,0c-0.1,0-0.3,0.1-0.4,0.2v2.5C297.3,387.4,297.5,387.4,297.6,387.4z"/>
	<path class="st1" d="M300.6,388.1c-0.3,0-0.6-0.1-0.8-0.3c-0.2-0.2-0.4-0.4-0.4-0.8l0.7-0.3c0,0.2,0.1,0.4,0.2,0.5
		c0.1,0.1,0.2,0.2,0.3,0.2c0.1,0,0.2,0,0.2-0.1c0.1-0.1,0.1-0.2,0.1-0.2c0-0.1-0.1-0.3-0.4-0.5l-0.5-0.5c-0.4-0.3-0.6-0.7-0.6-1
		c0-0.3,0.1-0.6,0.3-0.8c0.2-0.2,0.5-0.3,0.8-0.3c0.3,0,0.6,0.1,0.8,0.3c0.2,0.2,0.3,0.4,0.4,0.8l-0.6,0.3c-0.1-0.4-0.2-0.6-0.5-0.6
		c-0.1,0-0.2,0-0.2,0.1c-0.1,0.1-0.1,0.1-0.1,0.2c0,0.1,0.1,0.3,0.3,0.5l0.5,0.5c0.1,0.1,0.2,0.2,0.2,0.2c0.1,0.1,0.1,0.1,0.2,0.2
		c0.1,0.1,0.1,0.2,0.1,0.3c0,0.1,0,0.2,0,0.3c0,0.3-0.1,0.6-0.3,0.8C301.2,388,300.9,388.1,300.6,388.1z"/>
	<path class="st1" d="M302.9,388.1c-0.2,0-0.4-0.1-0.5-0.2c-0.1-0.2-0.2-0.4-0.2-0.6v-3.2h0.9v3c0,0.1,0,0.2,0.1,0.3
		c0,0.1,0.1,0.1,0.2,0.1c0.1,0,0.2-0.1,0.4-0.2v-3.2h0.9v4h-0.9v-0.4C303.5,387.9,303.2,388.1,302.9,388.1z"/>
	<path class="st1" d="M305.5,388v-4h0.9v0.3c0.3-0.3,0.6-0.4,0.9-0.4c0.3,0,0.5,0.2,0.7,0.5c0.3-0.3,0.6-0.5,1-0.5
		c0.2,0,0.4,0.1,0.5,0.2c0.1,0.2,0.2,0.4,0.2,0.7v3.1h-0.9v-3c0-0.1,0-0.2-0.1-0.3c0-0.1-0.1-0.1-0.2-0.1c-0.2,0-0.3,0.1-0.5,0.2
		c0,0,0,0,0,0c0,0,0,0,0,0v3.1h-0.9v-3c0-0.1,0-0.2-0.1-0.3c0-0.1-0.1-0.1-0.2-0.1c-0.2,0-0.3,0.1-0.5,0.2v3.2H305.5z"/>
	<path class="st1" d="M313,388.1c-0.3,0-0.6-0.1-0.7-0.3c-0.2-0.2-0.2-0.6-0.2-1.1v-1.2c0-0.2,0-0.4,0-0.6c0-0.2,0.1-0.3,0.2-0.5
		c0.1-0.1,0.2-0.3,0.3-0.3c0.1-0.1,0.3-0.1,0.5-0.1c0.3,0,0.5,0.1,0.7,0.3v-1.8h0.9v5.5h-0.9v-0.3C313.4,388,313.2,388.1,313,388.1z
		 M313.3,387.4c0.1,0,0.2,0,0.4-0.1v-2.5c-0.1-0.1-0.2-0.1-0.4-0.1c-0.1,0-0.2,0.1-0.3,0.2c-0.1,0.1-0.1,0.3-0.1,0.4v1.5
		c0,0.1,0,0.3,0,0.4c0,0.1,0.1,0.2,0.1,0.2C313.1,387.4,313.2,387.4,313.3,387.4z"/>
	<path class="st1" d="M316.5,388.1c-0.4,0-0.7-0.1-1-0.4c-0.2-0.2-0.3-0.6-0.3-1v-1.3c0-0.4,0.1-0.8,0.3-1c0.2-0.2,0.5-0.4,1-0.4
		c0.4,0,0.7,0.1,1,0.4c0.2,0.2,0.3,0.6,0.3,1v1.3c0,0.4-0.1,0.8-0.3,1C317.2,388,316.9,388.1,316.5,388.1z M316.5,387.4
		c0.1,0,0.1,0,0.2,0c0,0,0.1-0.1,0.1-0.2c0-0.1,0-0.1,0-0.2c0-0.1,0-0.2,0-0.3v-1.4c0-0.1,0-0.2,0-0.2c0-0.1,0-0.1,0-0.2
		c0-0.1,0-0.1-0.1-0.2c0,0-0.1-0.1-0.1-0.1c0,0-0.1,0-0.2,0c-0.1,0-0.1,0-0.2,0.1c0,0-0.1,0.1-0.1,0.2c0,0.1,0,0.1,0,0.2
		c0,0.1,0,0.2,0,0.3v1.4c0,0.1,0,0.2,0,0.2c0,0.1,0,0.1,0,0.2c0,0.1,0,0.1,0.1,0.2c0,0,0.1,0.1,0.1,0.1
		C316.4,387.4,316.4,387.4,316.5,387.4z"/>
	<path class="st1" d="M318.5,388v-5.5h0.9v5.5H318.5z"/>
	<path class="st1" d="M321.3,388.1c-0.4,0-0.7-0.1-1-0.4c-0.2-0.2-0.3-0.6-0.3-1v-1.3c0-0.4,0.1-0.8,0.3-1c0.2-0.2,0.5-0.4,1-0.4
		c0.4,0,0.7,0.1,1,0.4c0.2,0.2,0.3,0.6,0.3,1v1.3c0,0.4-0.1,0.8-0.3,1C322.1,388,321.8,388.1,321.3,388.1z M321.3,387.4
		c0.1,0,0.1,0,0.2,0c0,0,0.1-0.1,0.1-0.2c0-0.1,0-0.1,0-0.2c0-0.1,0-0.2,0-0.3v-1.4c0-0.1,0-0.2,0-0.2c0-0.1,0-0.1,0-0.2
		c0-0.1,0-0.1-0.1-0.2c0,0-0.1-0.1-0.1-0.1c0,0-0.1,0-0.2,0c-0.1,0-0.1,0-0.2,0.1c0,0-0.1,0.1-0.1,0.2c0,0.1,0,0.1,0,0.2
		c0,0.1,0,0.2,0,0.3v1.4c0,0.1,0,0.2,0,0.2c0,0.1,0,0.1,0,0.2c0,0.1,0,0.1,0.1,0.2c0,0,0.1,0.1,0.1,0.1
		C321.2,387.4,321.3,387.4,321.3,387.4z"/>
	<path class="st1" d="M323.3,388v-4h0.9v0.6c0.1-0.2,0.3-0.4,0.4-0.5c0.1-0.1,0.3-0.2,0.4-0.2c0,0,0.1,0,0.1,0v0.9
		c-0.1,0-0.2-0.1-0.3-0.1c-0.1,0-0.3,0-0.4,0.1c-0.1,0.1-0.2,0.2-0.3,0.3v2.7H323.3z"/>
	<path class="st1" d="M328.3,388.1c-0.3,0-0.6-0.1-0.8-0.3c-0.2-0.2-0.4-0.4-0.4-0.8l0.7-0.3c0,0.2,0.1,0.4,0.2,0.5
		c0.1,0.1,0.2,0.2,0.3,0.2c0.1,0,0.2,0,0.2-0.1c0.1-0.1,0.1-0.2,0.1-0.2c0-0.1-0.1-0.3-0.4-0.5l-0.5-0.5c-0.4-0.3-0.6-0.7-0.6-1
		c0-0.3,0.1-0.6,0.3-0.8c0.2-0.2,0.5-0.3,0.8-0.3c0.3,0,0.6,0.1,0.8,0.3c0.2,0.2,0.3,0.4,0.4,0.8l-0.6,0.3c-0.1-0.4-0.2-0.6-0.5-0.6
		c-0.1,0-0.2,0-0.2,0.1c-0.1,0.1-0.1,0.1-0.1,0.2c0,0.1,0.1,0.3,0.3,0.5l0.5,0.5c0.1,0.1,0.2,0.2,0.2,0.2c0.1,0.1,0.1,0.1,0.2,0.2
		c0.1,0.1,0.1,0.2,0.1,0.3c0,0.1,0,0.2,0,0.3c0,0.3-0.1,0.6-0.3,0.8C329,388,328.7,388.1,328.3,388.1z"/>
	<path class="st1" d="M330,383.4v-0.8h0.9v0.8H330z M330,388v-4h0.9v4H330z"/>
	<path class="st1" d="M332.8,388.1c-0.2,0-0.3,0-0.5-0.1c-0.1-0.1-0.2-0.1-0.3-0.2c-0.1-0.1-0.1-0.2-0.1-0.4c0-0.1,0-0.3,0-0.5v-2.2
		h-0.4v-0.6h0.4v-1.2h0.9v1.2h0.6v0.6h-0.6v2.3c0,0.1,0,0.2,0.1,0.3c0.1,0.1,0.1,0.1,0.3,0.1c0.1,0,0.2,0,0.3,0v0.7
		C333.2,388.1,333,388.1,332.8,388.1z"/>
	<path class="st1" d="M336.4,388.1c-0.3,0-0.5-0.1-0.6-0.3c-0.2-0.2-0.2-0.4-0.2-0.7c0-0.2,0-0.4,0.1-0.6c0.1-0.2,0.2-0.3,0.4-0.4
		c0.2-0.1,0.3-0.2,0.4-0.3c0.1-0.1,0.3-0.1,0.5-0.2c0.1,0,0.1,0,0.2-0.1v-0.3c0-0.2,0-0.3-0.1-0.4c0-0.1-0.1-0.1-0.3-0.1
		c-0.2,0-0.3,0.1-0.3,0.4l0,0.2l-0.9,0c0,0,0,0,0-0.1c0,0,0-0.1,0-0.1c0-0.4,0.2-0.7,0.4-0.9c0.2-0.2,0.5-0.3,0.9-0.3
		c0.4,0,0.7,0.1,0.9,0.3c0.2,0.2,0.3,0.5,0.3,0.9v1.8c0,0.3,0,0.6,0.1,1h-0.8c-0.1-0.3-0.1-0.5-0.1-0.6c-0.1,0.2-0.1,0.3-0.3,0.5
		C336.8,388,336.6,388.1,336.4,388.1z M336.8,387.4c0.1,0,0.1,0,0.2-0.1c0.1-0.1,0.1-0.1,0.2-0.2V386c-0.5,0.3-0.7,0.5-0.7,0.9
		c0,0.1,0,0.3,0.1,0.3C336.6,387.3,336.7,387.4,336.8,387.4z"/>
	<path class="st1" d="M338.8,388v-4h0.9v0.3c0.3-0.3,0.6-0.4,0.9-0.4c0.3,0,0.5,0.2,0.7,0.5c0.3-0.3,0.6-0.5,1-0.5
		c0.2,0,0.4,0.1,0.5,0.2c0.1,0.2,0.2,0.4,0.2,0.7v3.1h-0.9v-3c0-0.1,0-0.2-0.1-0.3c0-0.1-0.1-0.1-0.2-0.1c-0.2,0-0.3,0.1-0.5,0.2
		c0,0,0,0,0,0c0,0,0,0,0,0v3.1h-0.9v-3c0-0.1,0-0.2-0.1-0.3c0-0.1-0.1-0.1-0.2-0.1c-0.2,0-0.3,0.1-0.5,0.2v3.2H338.8z"/>
	<path class="st1" d="M344.9,388.1c-0.5,0-0.8-0.1-1-0.4c-0.2-0.2-0.3-0.6-0.3-1.1v-1.1c0-0.5,0.1-0.9,0.3-1.1
		c0.2-0.3,0.5-0.4,1-0.4c0.2,0,0.4,0,0.6,0.1c0.2,0.1,0.3,0.2,0.4,0.3c0.1,0.1,0.2,0.3,0.2,0.5c0,0.2,0.1,0.4,0.1,0.7v0.5h-1.6v0.6
		c0,0.1,0,0.1,0,0.2c0,0,0,0.1,0,0.2c0,0.1,0,0.1,0,0.2c0,0,0,0.1,0.1,0.1c0,0,0.1,0.1,0.1,0.1c0,0,0.1,0,0.1,0c0.1,0,0.2,0,0.3-0.1
		c0-0.1,0.1-0.2,0.1-0.4v-0.2h0.9v0.2c0,0.4-0.1,0.7-0.3,0.9C345.6,388,345.3,388.1,344.9,388.1z M344.5,385.6h0.7v-0.4
		c0-0.2,0-0.3-0.1-0.4c-0.1-0.1-0.1-0.1-0.3-0.1c-0.1,0-0.2,0-0.3,0.1c0,0.1-0.1,0.3-0.1,0.5V385.6z"/>
	<path class="st1" d="M347.8,388.1c-0.2,0-0.3,0-0.5-0.1c-0.1-0.1-0.2-0.1-0.3-0.2c-0.1-0.1-0.1-0.2-0.1-0.4c0-0.1,0-0.3,0-0.5v-2.2
		h-0.4v-0.6h0.4v-1.2h0.9v1.2h0.6v0.6h-0.6v2.3c0,0.1,0,0.2,0.1,0.3c0.1,0.1,0.1,0.1,0.3,0.1c0.1,0,0.2,0,0.3,0v0.7
		C348.2,388.1,348,388.1,347.8,388.1z"/>
	<path class="st1" d="M349.1,389l-0.1-0.4c0.1,0,0.2-0.1,0.3-0.2c0.1-0.1,0.1-0.2,0.1-0.4h-0.5v-0.9h0.9v0.8
		C349.9,388.5,349.6,388.9,349.1,389z"/>
	<path class="st1" d="M353.3,388.1c-0.4,0-0.8-0.1-1-0.4c-0.2-0.3-0.3-0.6-0.3-1.1v-1.1c0-0.5,0.1-0.8,0.3-1.1
		c0.2-0.3,0.5-0.4,1-0.4c0.4,0,0.7,0.1,0.9,0.3c0.2,0.2,0.3,0.5,0.3,0.9v0.3h-0.9v-0.3c0-0.2,0-0.3-0.1-0.4c0-0.1-0.1-0.1-0.2-0.1
		c-0.1,0-0.2,0-0.3,0.1c0,0.1-0.1,0.3-0.1,0.5v1.4c0,0.3,0,0.4,0.1,0.5c0,0.1,0.1,0.1,0.3,0.1c0.1,0,0.2,0,0.3-0.1
		c0-0.1,0.1-0.2,0.1-0.4v-0.4h0.9v0.4c0,0.4-0.1,0.7-0.3,0.9C354,388,353.7,388.1,353.3,388.1z"/>
	<path class="st1" d="M356.3,388.1c-0.4,0-0.7-0.1-1-0.4c-0.2-0.2-0.3-0.6-0.3-1v-1.3c0-0.4,0.1-0.8,0.3-1c0.2-0.2,0.5-0.4,1-0.4
		c0.4,0,0.7,0.1,1,0.4c0.2,0.2,0.3,0.6,0.3,1v1.3c0,0.4-0.1,0.8-0.3,1C357.1,388,356.8,388.1,356.3,388.1z M356.3,387.4
		c0.1,0,0.1,0,0.2,0c0,0,0.1-0.1,0.1-0.2c0-0.1,0-0.1,0-0.2c0-0.1,0-0.2,0-0.3v-1.4c0-0.1,0-0.2,0-0.2c0-0.1,0-0.1,0-0.2
		c0-0.1,0-0.1-0.1-0.2c0,0-0.1-0.1-0.1-0.1c0,0-0.1,0-0.2,0c-0.1,0-0.1,0-0.2,0.1c0,0-0.1,0.1-0.1,0.2c0,0.1,0,0.1,0,0.2
		c0,0.1,0,0.2,0,0.3v1.4c0,0.1,0,0.2,0,0.2c0,0.1,0,0.1,0,0.2c0,0.1,0,0.1,0.1,0.2c0,0,0.1,0.1,0.1,0.1
		C356.2,387.4,356.3,387.4,356.3,387.4z"/>
	<path class="st1" d="M358.2,388v-4h0.9v0.4c0.3-0.3,0.6-0.4,1-0.4c0.2,0,0.4,0.1,0.5,0.2c0.1,0.2,0.2,0.4,0.2,0.6v3.2h-0.9v-3
		c0-0.1,0-0.2-0.1-0.3c0-0.1-0.1-0.1-0.2-0.1c-0.1,0-0.3,0.1-0.4,0.2v3.1H358.2z"/>
	<path class="st1" d="M362.5,388.1c-0.3,0-0.6-0.1-0.8-0.3c-0.2-0.2-0.4-0.4-0.4-0.8l0.7-0.3c0,0.2,0.1,0.4,0.2,0.5
		c0.1,0.1,0.2,0.2,0.3,0.2c0.1,0,0.2,0,0.2-0.1c0.1-0.1,0.1-0.2,0.1-0.2c0-0.1-0.1-0.3-0.4-0.5l-0.5-0.5c-0.4-0.3-0.6-0.7-0.6-1
		c0-0.3,0.1-0.6,0.3-0.8c0.2-0.2,0.5-0.3,0.8-0.3c0.3,0,0.6,0.1,0.8,0.3c0.2,0.2,0.3,0.4,0.4,0.8l-0.6,0.3c-0.1-0.4-0.2-0.6-0.5-0.6
		c-0.1,0-0.2,0-0.2,0.1c-0.1,0.1-0.1,0.1-0.1,0.2c0,0.1,0.1,0.3,0.3,0.5l0.5,0.5c0.1,0.1,0.2,0.2,0.2,0.2c0.1,0.1,0.1,0.1,0.2,0.2
		c0.1,0.1,0.1,0.2,0.1,0.3c0,0.1,0,0.2,0,0.3c0,0.3-0.1,0.6-0.3,0.8C363.1,388,362.9,388.1,362.5,388.1z"/>
	<path class="st1" d="M365.4,388.1c-0.5,0-0.8-0.1-1-0.4c-0.2-0.2-0.3-0.6-0.3-1.1v-1.1c0-0.5,0.1-0.9,0.3-1.1
		c0.2-0.3,0.5-0.4,1-0.4c0.2,0,0.4,0,0.6,0.1c0.2,0.1,0.3,0.2,0.4,0.3c0.1,0.1,0.2,0.3,0.2,0.5c0,0.2,0.1,0.4,0.1,0.7v0.5h-1.6v0.6
		c0,0.1,0,0.1,0,0.2c0,0,0,0.1,0,0.2c0,0.1,0,0.1,0,0.2c0,0,0,0.1,0.1,0.1c0,0,0.1,0.1,0.1,0.1c0,0,0.1,0,0.1,0c0.1,0,0.2,0,0.3-0.1
		c0-0.1,0.1-0.2,0.1-0.4v-0.2h0.9v0.2c0,0.4-0.1,0.7-0.3,0.9C366.1,388,365.8,388.1,365.4,388.1z M365.1,385.6h0.7v-0.4
		c0-0.2,0-0.3-0.1-0.4c-0.1-0.1-0.1-0.1-0.3-0.1c-0.1,0-0.2,0-0.3,0.1c0,0.1-0.1,0.3-0.1,0.5V385.6z"/>
	<path class="st1" d="M368.5,388.1c-0.4,0-0.8-0.1-1-0.4c-0.2-0.3-0.3-0.6-0.3-1.1v-1.1c0-0.5,0.1-0.8,0.3-1.1
		c0.2-0.3,0.5-0.4,1-0.4c0.4,0,0.7,0.1,0.9,0.3c0.2,0.2,0.3,0.5,0.3,0.9v0.3h-0.9v-0.3c0-0.2,0-0.3-0.1-0.4c0-0.1-0.1-0.1-0.2-0.1
		c-0.1,0-0.2,0-0.3,0.1c0,0.1-0.1,0.3-0.1,0.5v1.4c0,0.3,0,0.4,0.1,0.5c0,0.1,0.1,0.1,0.3,0.1c0.1,0,0.2,0,0.3-0.1
		c0-0.1,0.1-0.2,0.1-0.4v-0.4h0.9v0.4c0,0.4-0.1,0.7-0.3,0.9C369.2,388,368.9,388.1,368.5,388.1z"/>
	<path class="st1" d="M371.4,388.1c-0.2,0-0.3,0-0.5-0.1c-0.1-0.1-0.2-0.1-0.3-0.2c-0.1-0.1-0.1-0.2-0.1-0.4c0-0.1,0-0.3,0-0.5v-2.2
		H370v-0.6h0.4v-1.2h0.9v1.2h0.6v0.6h-0.6v2.3c0,0.1,0,0.2,0.1,0.3c0.1,0.1,0.1,0.1,0.3,0.1c0.1,0,0.2,0,0.3,0v0.7
		C371.8,388.1,371.5,388.1,371.4,388.1z"/>
	<path class="st1" d="M373.8,388.1c-0.5,0-0.8-0.1-1-0.4c-0.2-0.2-0.3-0.6-0.3-1.1v-1.1c0-0.5,0.1-0.9,0.3-1.1
		c0.2-0.3,0.5-0.4,1-0.4c0.2,0,0.4,0,0.6,0.1c0.2,0.1,0.3,0.2,0.4,0.3c0.1,0.1,0.2,0.3,0.2,0.5c0,0.2,0.1,0.4,0.1,0.7v0.5h-1.6v0.6
		c0,0.1,0,0.1,0,0.2c0,0,0,0.1,0,0.2c0,0.1,0,0.1,0,0.2c0,0,0,0.1,0.1,0.1c0,0,0.1,0.1,0.1,0.1c0,0,0.1,0,0.1,0c0.1,0,0.2,0,0.3-0.1
		c0-0.1,0.1-0.2,0.1-0.4v-0.2h0.9v0.2c0,0.4-0.1,0.7-0.3,0.9C374.5,388,374.2,388.1,373.8,388.1z M373.4,385.6h0.7v-0.4
		c0-0.2,0-0.3-0.1-0.4c-0.1-0.1-0.1-0.1-0.3-0.1c-0.1,0-0.2,0-0.3,0.1c0,0.1-0.1,0.3-0.1,0.5V385.6z"/>
	<path class="st1" d="M376.7,388.1c-0.2,0-0.3,0-0.5-0.1c-0.1-0.1-0.2-0.1-0.3-0.2c-0.1-0.1-0.1-0.2-0.1-0.4c0-0.1,0-0.3,0-0.5v-2.2
		h-0.4v-0.6h0.4v-1.2h0.9v1.2h0.6v0.6h-0.6v2.3c0,0.1,0,0.2,0.1,0.3c0.1,0.1,0.1,0.1,0.3,0.1c0.1,0,0.2,0,0.3,0v0.7
		C377.1,388.1,376.9,388.1,376.7,388.1z"/>
	<path class="st1" d="M378.5,388.1c-0.2,0-0.4-0.1-0.5-0.2c-0.1-0.2-0.2-0.4-0.2-0.6v-3.2h0.9v3c0,0.1,0,0.2,0.1,0.3
		c0,0.1,0.1,0.1,0.2,0.1c0.1,0,0.2-0.1,0.4-0.2v-3.2h0.9v4h-0.9v-0.4C379.1,387.9,378.8,388.1,378.5,388.1z"/>
	<path class="st1" d="M381.1,388v-4h0.9v0.6c0.1-0.2,0.3-0.4,0.4-0.5c0.1-0.1,0.3-0.2,0.4-0.2c0,0,0.1,0,0.1,0v0.9
		c-0.1,0-0.2-0.1-0.3-0.1c-0.1,0-0.3,0-0.4,0.1c-0.1,0.1-0.2,0.2-0.3,0.3v2.7H381.1z"/>
	<path class="st1" d="M277.3,397c-0.3,0-0.5-0.1-0.6-0.3c-0.2-0.2-0.2-0.4-0.2-0.7c0-0.2,0-0.4,0.1-0.6c0.1-0.2,0.2-0.3,0.4-0.4
		c0.2-0.1,0.3-0.2,0.4-0.3c0.1-0.1,0.3-0.1,0.5-0.2c0.1,0,0.1,0,0.2-0.1v-0.3c0-0.2,0-0.3-0.1-0.4c0-0.1-0.1-0.1-0.3-0.1
		c-0.2,0-0.3,0.1-0.3,0.4l0,0.2l-0.9,0c0,0,0,0,0-0.1c0,0,0-0.1,0-0.1c0-0.4,0.2-0.7,0.4-0.9c0.2-0.2,0.5-0.3,0.9-0.3
		c0.4,0,0.7,0.1,0.9,0.3c0.2,0.2,0.3,0.5,0.3,0.9v1.8c0,0.3,0,0.6,0.1,1h-0.8c-0.1-0.3-0.1-0.5-0.1-0.6c-0.1,0.2-0.1,0.3-0.3,0.5
		C277.7,397,277.5,397,277.3,397z M277.7,396.3c0.1,0,0.1,0,0.2-0.1c0.1-0.1,0.1-0.1,0.2-0.2V395c-0.5,0.3-0.7,0.5-0.7,0.9
		c0,0.1,0,0.3,0.1,0.3C277.5,396.3,277.6,396.3,277.7,396.3z"/>
	<path class="st1" d="M280.6,397c-0.3,0-0.6-0.1-0.7-0.3c-0.2-0.2-0.2-0.6-0.2-1.1v-1.2c0-0.2,0-0.4,0-0.6c0-0.2,0.1-0.3,0.2-0.5
		c0.1-0.1,0.2-0.3,0.3-0.3c0.1-0.1,0.3-0.1,0.5-0.1c0.2,0,0.5,0.1,0.7,0.3v-1.8h0.9v5.5h-0.9v-0.3C281,396.9,280.8,397,280.6,397z
		 M280.9,396.4c0.1,0,0.2,0,0.4-0.1v-2.5c-0.1-0.1-0.2-0.1-0.4-0.1c-0.1,0-0.2,0.1-0.3,0.2c-0.1,0.1-0.1,0.3-0.1,0.4v1.5
		c0,0.1,0,0.3,0,0.4c0,0.1,0.1,0.2,0.1,0.2C280.7,396.3,280.8,396.4,280.9,396.4z"/>
	<path class="st1" d="M282.9,392.4v-0.8h0.9v0.8H282.9z M282.9,397v-4h0.9v4H282.9z"/>
	<path class="st1" d="M284.6,398.3V393h0.9v0.3c0.2-0.2,0.5-0.4,0.8-0.4c0.1,0,0.3,0,0.4,0.1c0.1,0.1,0.2,0.1,0.3,0.2
		c0.1,0.1,0.1,0.2,0.2,0.3c0,0.1,0.1,0.2,0.1,0.4c0,0.1,0,0.2,0,0.3v1.3c0,0.2,0,0.4,0,0.6c0,0.2-0.1,0.3-0.2,0.5
		c-0.1,0.1-0.2,0.2-0.3,0.3c-0.1,0.1-0.3,0.1-0.4,0.1c-0.2,0-0.5-0.1-0.7-0.4v1.6H284.6z M286,396.4c0.1,0,0.1,0,0.2-0.1
		c0,0,0.1-0.1,0.1-0.2c0-0.1,0-0.2,0-0.2c0-0.1,0-0.2,0-0.3v-1.4c0-0.1,0-0.2,0-0.2c0-0.1,0-0.1-0.1-0.2c0-0.1-0.1-0.1-0.1-0.2
		c0,0-0.1,0-0.2,0c-0.1,0-0.3,0.1-0.4,0.2v2.5C285.7,396.3,285.8,396.4,286,396.4z"/>
	<path class="st1" d="M287.9,392.4v-0.8h0.9v0.8H287.9z M287.9,397v-4h0.9v4H287.9z"/>
	<path class="st1" d="M290.6,397c-0.3,0-0.6-0.1-0.8-0.3c-0.2-0.2-0.4-0.4-0.4-0.8l0.7-0.3c0,0.2,0.1,0.4,0.2,0.5
		c0.1,0.1,0.2,0.2,0.3,0.2c0.1,0,0.2,0,0.2-0.1c0.1-0.1,0.1-0.2,0.1-0.2c0-0.1-0.1-0.3-0.4-0.5L290,395c-0.4-0.3-0.6-0.7-0.6-1
		c0-0.3,0.1-0.6,0.3-0.8c0.2-0.2,0.5-0.3,0.8-0.3c0.3,0,0.6,0.1,0.8,0.3c0.2,0.2,0.3,0.4,0.4,0.8l-0.6,0.3c-0.1-0.4-0.2-0.6-0.5-0.6
		c-0.1,0-0.2,0-0.2,0.1c-0.1,0.1-0.1,0.1-0.1,0.2c0,0.1,0.1,0.3,0.3,0.5l0.5,0.5c0.1,0.1,0.2,0.2,0.2,0.2c0.1,0.1,0.1,0.1,0.2,0.2
		c0.1,0.1,0.1,0.2,0.1,0.3c0,0.1,0,0.2,0,0.3c0,0.3-0.1,0.6-0.3,0.8C291.2,396.9,290.9,397,290.6,397z"/>
	<path class="st1" d="M293.5,397c-0.4,0-0.8-0.1-1-0.4c-0.2-0.3-0.3-0.6-0.3-1.1v-1.1c0-0.5,0.1-0.8,0.3-1.1c0.2-0.3,0.5-0.4,1-0.4
		c0.4,0,0.7,0.1,0.9,0.3c0.2,0.2,0.3,0.5,0.3,0.9v0.3h-0.9v-0.3c0-0.2,0-0.3-0.1-0.4c0-0.1-0.1-0.1-0.2-0.1c-0.1,0-0.2,0-0.3,0.1
		c0,0.1-0.1,0.3-0.1,0.5v1.4c0,0.3,0,0.4,0.1,0.5c0.1,0.1,0.1,0.1,0.3,0.1c0.1,0,0.2,0,0.3-0.1c0-0.1,0.1-0.2,0.1-0.4v-0.4h0.9v0.4
		c0,0.4-0.1,0.7-0.3,0.9C294.2,396.9,293.9,397,293.5,397z"/>
	<path class="st1" d="M295.3,392.4v-0.8h0.9v0.8H295.3z M295.3,397v-4h0.9v4H295.3z"/>
	<path class="st1" d="M297,397v-4h0.9v0.4c0.3-0.3,0.6-0.4,1-0.4c0.2,0,0.4,0.1,0.5,0.2c0.1,0.2,0.2,0.4,0.2,0.6v3.2h-0.9v-3
		c0-0.1,0-0.2-0.1-0.3c0-0.1-0.1-0.1-0.2-0.1c-0.1,0-0.3,0.1-0.4,0.2v3.1H297z"/>
	<path class="st1" d="M301.6,398.2c-0.1,0-0.2,0-0.3,0c-0.1,0-0.2,0-0.3,0c-0.1,0-0.2,0-0.3,0c-0.1,0-0.2,0-0.3-0.1
		c-0.1,0-0.2-0.1-0.2-0.1c-0.1,0-0.1-0.1-0.1-0.2c0-0.1-0.1-0.1-0.1-0.2c0-0.3,0.2-0.6,0.6-0.8c-0.3-0.1-0.4-0.2-0.4-0.4
		c0-0.1,0-0.3,0.1-0.4c0.1-0.1,0.2-0.2,0.4-0.4c-0.1-0.1-0.3-0.3-0.3-0.4c-0.1-0.2-0.1-0.4-0.1-0.7c0-0.5,0.1-0.8,0.3-1.1
		c0.2-0.2,0.5-0.4,0.9-0.4c0.4,0,0.7,0.1,0.8,0.4c0-0.1,0.1-0.1,0.2-0.2c0.1-0.1,0.2-0.2,0.3-0.2l0.1-0.1l0.2,0.5
		c-0.1,0-0.2,0.1-0.4,0.1c-0.2,0.1-0.3,0.1-0.3,0.1c0,0.1,0.1,0.2,0.1,0.3c0,0.1,0,0.3,0,0.4c0,0.9-0.4,1.4-1.2,1.4
		c-0.1,0-0.2,0-0.3,0c-0.1,0-0.2,0-0.2,0c-0.1,0.1-0.1,0.2-0.1,0.3c0,0.1,0.1,0.1,0.3,0.2c0,0,0.1,0,0.4,0c0.2,0,0.3,0,0.4,0
		c0.3,0,0.6,0.1,0.7,0.3c0.2,0.2,0.2,0.4,0.2,0.7c0,0.3-0.1,0.6-0.3,0.8C302.4,398.1,302.1,398.2,301.6,398.2z M301.6,397.5
		c0.2,0,0.3,0,0.4-0.1c0.1,0,0.1-0.1,0.1-0.2c0-0.1,0-0.2-0.1-0.3c-0.1-0.1-0.2-0.1-0.4-0.1l-0.6-0.1c-0.1,0.2-0.2,0.3-0.2,0.4
		c0,0.1,0,0.1,0.1,0.2c0,0,0.1,0.1,0.2,0.1C301.3,397.5,301.4,397.5,301.6,397.5z M301.4,395.1c0.2,0,0.3-0.1,0.3-0.2
		c0-0.1,0.1-0.3,0.1-0.6c0-0.3,0-0.5-0.1-0.6c0-0.1-0.1-0.2-0.3-0.2c-0.2,0-0.3,0.1-0.3,0.2c0,0.1-0.1,0.3-0.1,0.6
		c0,0.1,0,0.2,0,0.3c0,0.1,0,0.1,0,0.2s0,0.1,0.1,0.2c0,0,0.1,0.1,0.1,0.1C301.3,395.1,301.4,395.1,301.4,395.1z"/>
	<path class="st1" d="M306.3,397c-0.5,0-0.8-0.1-1-0.4c-0.2-0.2-0.3-0.6-0.3-1.1v-1.1c0-0.5,0.1-0.9,0.3-1.1c0.2-0.3,0.5-0.4,1-0.4
		c0.2,0,0.4,0,0.6,0.1c0.2,0.1,0.3,0.2,0.4,0.3c0.1,0.1,0.2,0.3,0.2,0.5c0,0.2,0.1,0.4,0.1,0.7v0.5H306v0.6c0,0.1,0,0.1,0,0.2
		c0,0,0,0.1,0,0.2c0,0.1,0,0.1,0,0.2c0,0,0,0.1,0.1,0.1c0,0,0.1,0.1,0.1,0.1c0,0,0.1,0,0.1,0c0.1,0,0.2,0,0.3-0.1
		c0-0.1,0.1-0.2,0.1-0.4v-0.2h0.9v0.2c0,0.4-0.1,0.7-0.3,0.9S306.7,397,306.3,397z M306,394.6h0.7v-0.4c0-0.2,0-0.3-0.1-0.4
		c0-0.1-0.1-0.1-0.3-0.1c-0.1,0-0.2,0-0.3,0.1c0,0.1-0.1,0.3-0.1,0.5V394.6z"/>
	<path class="st1" d="M308.2,397v-5.5h0.9v5.5H308.2z"/>
	<path class="st1" d="M309.9,392.4v-0.8h0.9v0.8H309.9z M309.9,397v-4h0.9v4H309.9z"/>
	<path class="st1" d="M312.7,397c-0.2,0-0.3,0-0.5-0.1c-0.1-0.1-0.2-0.1-0.3-0.2c-0.1-0.1-0.1-0.2-0.1-0.4c0-0.1,0-0.3,0-0.5v-2.2
		h-0.4V393h0.4v-1.2h0.9v1.2h0.6v0.6h-0.6v2.3c0,0.1,0,0.2,0.1,0.3c0.1,0.1,0.1,0.1,0.3,0.1c0.1,0,0.2,0,0.3,0v0.7
		C313.1,397,312.9,397,312.7,397z"/>
	<path class="st1" d="M313.9,397.9l-0.1-0.4c0.1,0,0.2-0.1,0.3-0.2c0.1-0.1,0.1-0.2,0.1-0.4h-0.5v-0.9h0.9v0.8
		C314.7,397.5,314.4,397.8,313.9,397.9z"/>
	<path class="st1" d="M318,397c-0.3,0-0.6-0.1-0.8-0.3c-0.2-0.2-0.4-0.4-0.4-0.8l0.7-0.3c0,0.2,0.1,0.4,0.2,0.5
		c0.1,0.1,0.2,0.2,0.3,0.2c0.1,0,0.2,0,0.2-0.1c0.1-0.1,0.1-0.2,0.1-0.2c0-0.1-0.1-0.3-0.4-0.5l-0.5-0.5c-0.4-0.3-0.6-0.7-0.6-1
		c0-0.3,0.1-0.6,0.3-0.8c0.2-0.2,0.5-0.3,0.8-0.3c0.3,0,0.6,0.1,0.8,0.3c0.2,0.2,0.3,0.4,0.4,0.8l-0.6,0.3c-0.1-0.4-0.2-0.6-0.5-0.6
		c-0.1,0-0.2,0-0.2,0.1c-0.1,0.1-0.1,0.1-0.1,0.2c0,0.1,0.1,0.3,0.3,0.5l0.5,0.5c0.1,0.1,0.2,0.2,0.2,0.2c0.1,0.1,0.1,0.1,0.2,0.2
		c0.1,0.1,0.1,0.2,0.1,0.3c0,0.1,0,0.2,0,0.3c0,0.3-0.1,0.6-0.3,0.8C318.6,396.9,318.4,397,318,397z"/>
	<path class="st1" d="M320.9,397c-0.5,0-0.8-0.1-1-0.4c-0.2-0.2-0.3-0.6-0.3-1.1v-1.1c0-0.5,0.1-0.9,0.3-1.1c0.2-0.3,0.5-0.4,1-0.4
		c0.2,0,0.4,0,0.6,0.1c0.2,0.1,0.3,0.2,0.4,0.3c0.1,0.1,0.2,0.3,0.2,0.5c0,0.2,0.1,0.4,0.1,0.7v0.5h-1.6v0.6c0,0.1,0,0.1,0,0.2
		c0,0,0,0.1,0,0.2c0,0.1,0,0.1,0,0.2c0,0,0,0.1,0.1,0.1c0,0,0.1,0.1,0.1,0.1c0,0,0.1,0,0.1,0c0.1,0,0.2,0,0.3-0.1
		c0-0.1,0.1-0.2,0.1-0.4v-0.2h0.9v0.2c0,0.4-0.1,0.7-0.3,0.9C321.6,396.9,321.3,397,320.9,397z M320.6,394.6h0.7v-0.4
		c0-0.2,0-0.3-0.1-0.4c-0.1-0.1-0.1-0.1-0.3-0.1c-0.1,0-0.2,0-0.3,0.1c0,0.1-0.1,0.3-0.1,0.5V394.6z"/>
	<path class="st1" d="M323.7,397c-0.3,0-0.6-0.1-0.7-0.3c-0.2-0.2-0.2-0.6-0.2-1.1v-1.2c0-0.2,0-0.4,0-0.6c0-0.2,0.1-0.3,0.2-0.5
		c0.1-0.1,0.2-0.3,0.3-0.3c0.1-0.1,0.3-0.1,0.5-0.1c0.3,0,0.5,0.1,0.7,0.3v-1.8h0.9v5.5h-0.9v-0.3C324.1,396.9,323.9,397,323.7,397z
		 M324,396.4c0.1,0,0.2,0,0.4-0.1v-2.5c-0.1-0.1-0.2-0.1-0.4-0.1c-0.1,0-0.2,0.1-0.3,0.2c-0.1,0.1-0.1,0.3-0.1,0.4v1.5
		c0,0.1,0,0.3,0,0.4c0,0.1,0.1,0.2,0.1,0.2C323.8,396.3,323.9,396.4,324,396.4z"/>
	<path class="st1" d="M328.6,397c-0.3,0-0.6-0.1-0.7-0.3c-0.2-0.2-0.2-0.6-0.2-1.1v-1.2c0-0.2,0-0.4,0-0.6c0-0.2,0.1-0.3,0.2-0.5
		c0.1-0.1,0.2-0.3,0.3-0.3c0.1-0.1,0.3-0.1,0.5-0.1c0.3,0,0.5,0.1,0.7,0.3v-1.8h0.9v5.5h-0.9v-0.3C329.1,396.9,328.8,397,328.6,397z
		 M328.9,396.4c0.1,0,0.2,0,0.4-0.1v-2.5c-0.1-0.1-0.2-0.1-0.4-0.1c-0.1,0-0.2,0.1-0.3,0.2c-0.1,0.1-0.1,0.3-0.1,0.4v1.5
		c0,0.1,0,0.3,0,0.4c0,0.1,0.1,0.2,0.1,0.2C328.7,396.3,328.8,396.4,328.9,396.4z"/>
	<path class="st1" d="M332.1,397c-0.4,0-0.7-0.1-1-0.4c-0.2-0.2-0.3-0.6-0.3-1v-1.3c0-0.4,0.1-0.8,0.3-1c0.2-0.2,0.5-0.4,1-0.4
		c0.4,0,0.7,0.1,1,0.4c0.2,0.2,0.3,0.6,0.3,1v1.3c0,0.4-0.1,0.8-0.3,1C332.9,396.9,332.5,397,332.1,397z M332.1,396.4
		c0.1,0,0.1,0,0.2,0c0,0,0.1-0.1,0.1-0.2c0-0.1,0-0.1,0-0.2c0-0.1,0-0.2,0-0.3v-1.4c0-0.1,0-0.2,0-0.2c0-0.1,0-0.1,0-0.2
		c0-0.1,0-0.1-0.1-0.2c0,0-0.1-0.1-0.1-0.1c0,0-0.1,0-0.2,0c-0.1,0-0.1,0-0.2,0.1c0,0-0.1,0.1-0.1,0.2c0,0.1,0,0.1,0,0.2
		c0,0.1,0,0.2,0,0.3v1.4c0,0.1,0,0.2,0,0.2c0,0.1,0,0.1,0,0.2c0,0.1,0,0.1,0.1,0.2c0,0,0.1,0.1,0.1,0.1
		C332,396.4,332,396.4,332.1,396.4z"/>
	<path class="st1" d="M336.9,397c-0.5,0-0.8-0.1-1-0.4c-0.2-0.2-0.3-0.6-0.3-1.1v-1.1c0-0.5,0.1-0.9,0.3-1.1c0.2-0.3,0.5-0.4,1-0.4
		c0.2,0,0.4,0,0.6,0.1c0.2,0.1,0.3,0.2,0.4,0.3c0.1,0.1,0.2,0.3,0.2,0.5c0,0.2,0.1,0.4,0.1,0.7v0.5h-1.6v0.6c0,0.1,0,0.1,0,0.2
		c0,0,0,0.1,0,0.2c0,0.1,0,0.1,0,0.2c0,0,0,0.1,0.1,0.1c0,0,0.1,0.1,0.1,0.1c0,0,0.1,0,0.1,0c0.1,0,0.2,0,0.3-0.1
		c0-0.1,0.1-0.2,0.1-0.4v-0.2h0.9v0.2c0,0.4-0.1,0.7-0.3,0.9C337.6,396.9,337.3,397,336.9,397z M336.6,394.6h0.7v-0.4
		c0-0.2,0-0.3-0.1-0.4c-0.1-0.1-0.1-0.1-0.3-0.1c-0.1,0-0.2,0-0.3,0.1c0,0.1-0.1,0.3-0.1,0.5V394.6z"/>
	<path class="st1" d="M338.8,392.4v-0.8h0.9v0.8H338.8z M338.8,397v-4h0.9v4H338.8z"/>
	<path class="st1" d="M341.1,397c-0.2,0-0.4-0.1-0.5-0.2c-0.1-0.2-0.2-0.4-0.2-0.6V393h0.9v3c0,0.1,0,0.2,0.1,0.3
		c0,0.1,0.1,0.1,0.2,0.1c0.1,0,0.2-0.1,0.4-0.2V393h0.9v4H342v-0.4C341.7,396.9,341.4,397,341.1,397z"/>
	<path class="st1" d="M344.7,397c-0.3,0-0.6-0.1-0.8-0.3c-0.2-0.2-0.4-0.4-0.4-0.8l0.7-0.3c0,0.2,0.1,0.4,0.2,0.5
		c0.1,0.1,0.2,0.2,0.3,0.2c0.1,0,0.2,0,0.2-0.1c0.1-0.1,0.1-0.2,0.1-0.2c0-0.1-0.1-0.3-0.4-0.5l-0.5-0.5c-0.4-0.3-0.6-0.7-0.6-1
		c0-0.3,0.1-0.6,0.3-0.8c0.2-0.2,0.5-0.3,0.8-0.3c0.3,0,0.6,0.1,0.8,0.3c0.2,0.2,0.3,0.4,0.4,0.8l-0.6,0.3c-0.1-0.4-0.2-0.6-0.5-0.6
		c-0.1,0-0.2,0-0.2,0.1c-0.1,0.1-0.1,0.1-0.1,0.2c0,0.1,0.1,0.3,0.3,0.5l0.5,0.5c0.1,0.1,0.2,0.2,0.2,0.2c0.1,0.1,0.1,0.1,0.2,0.2
		c0.1,0.1,0.1,0.2,0.1,0.3c0,0.1,0,0.2,0,0.3c0,0.3-0.1,0.6-0.3,0.8C345.4,396.9,345.1,397,344.7,397z"/>
	<path class="st1" d="M346.4,397v-4h0.9v0.3c0.3-0.3,0.6-0.4,0.9-0.4c0.3,0,0.5,0.2,0.7,0.5c0.3-0.3,0.6-0.5,1-0.5
		c0.2,0,0.4,0.1,0.5,0.2c0.1,0.2,0.2,0.4,0.2,0.7v3.1h-0.9v-3c0-0.1,0-0.2-0.1-0.3c0-0.1-0.1-0.1-0.2-0.1c-0.2,0-0.3,0.1-0.5,0.2
		c0,0,0,0,0,0c0,0,0,0,0,0v3.1h-0.9v-3c0-0.1,0-0.2-0.1-0.3c0-0.1-0.1-0.1-0.2-0.1c-0.2,0-0.3,0.1-0.5,0.2v3.2H346.4z"/>
	<path class="st1" d="M352.5,397c-0.4,0-0.7-0.1-1-0.4c-0.2-0.2-0.3-0.6-0.3-1v-1.3c0-0.4,0.1-0.8,0.3-1c0.2-0.2,0.5-0.4,1-0.4
		c0.4,0,0.7,0.1,1,0.4c0.2,0.2,0.3,0.6,0.3,1v1.3c0,0.4-0.1,0.8-0.3,1C353.3,396.9,352.9,397,352.5,397z M352.5,396.4
		c0.1,0,0.1,0,0.2,0c0,0,0.1-0.1,0.1-0.2c0-0.1,0-0.1,0-0.2c0-0.1,0-0.2,0-0.3v-1.4c0-0.1,0-0.2,0-0.2c0-0.1,0-0.1,0-0.2
		c0-0.1,0-0.1-0.1-0.2c0,0-0.1-0.1-0.1-0.1c0,0-0.1,0-0.2,0c-0.1,0-0.1,0-0.2,0.1c0,0-0.1,0.1-0.1,0.2c0,0.1,0,0.1,0,0.2
		c0,0.1,0,0.2,0,0.3v1.4c0,0.1,0,0.2,0,0.2c0,0.1,0,0.1,0,0.2c0,0.1,0,0.1,0.1,0.2c0,0,0.1,0.1,0.1,0.1
		C352.4,396.4,352.5,396.4,352.5,396.4z"/>
	<path class="st1" d="M355.3,397c-0.3,0-0.6-0.1-0.7-0.3c-0.2-0.2-0.2-0.6-0.2-1.1v-1.2c0-0.2,0-0.4,0-0.6c0-0.2,0.1-0.3,0.2-0.5
		c0.1-0.1,0.2-0.3,0.3-0.3c0.1-0.1,0.3-0.1,0.5-0.1c0.3,0,0.5,0.1,0.7,0.3v-1.8h0.9v5.5H356v-0.3C355.8,396.9,355.6,397,355.3,397z
		 M355.7,396.4c0.1,0,0.2,0,0.4-0.1v-2.5c-0.1-0.1-0.2-0.1-0.4-0.1c-0.1,0-0.2,0.1-0.3,0.2c-0.1,0.1-0.1,0.3-0.1,0.4v1.5
		c0,0.1,0,0.3,0,0.4c0,0.1,0.1,0.2,0.1,0.2C355.5,396.3,355.6,396.4,355.7,396.4z"/>
	<path class="st1" d="M277.7,406c-0.2,0-0.3,0-0.5-0.1c-0.1-0.1-0.2-0.1-0.3-0.2c-0.1-0.1-0.1-0.2-0.1-0.4c0-0.1,0-0.3,0-0.5v-2.2
		h-0.4V402h0.4v-1.2h0.9v1.2h0.6v0.6h-0.6v2.3c0,0.1,0,0.2,0.1,0.3c0.1,0.1,0.1,0.1,0.3,0.1c0.1,0,0.2,0,0.3,0v0.7
		C278,406,277.8,406,277.7,406z"/>
	<path class="st1" d="M280,406c-0.5,0-0.8-0.1-1-0.4c-0.2-0.2-0.3-0.6-0.3-1.1v-1.1c0-0.5,0.1-0.9,0.3-1.1c0.2-0.3,0.5-0.4,1-0.4
		c0.2,0,0.4,0,0.6,0.1c0.2,0.1,0.3,0.2,0.4,0.3c0.1,0.1,0.2,0.3,0.2,0.5c0,0.2,0.1,0.4,0.1,0.7v0.5h-1.6v0.6c0,0.1,0,0.1,0,0.2
		c0,0,0,0.1,0,0.2c0,0.1,0,0.1,0,0.2c0,0,0,0.1,0.1,0.1c0,0,0.1,0.1,0.1,0.1c0,0,0.1,0,0.1,0c0.1,0,0.2,0,0.3-0.1
		c0-0.1,0.1-0.2,0.1-0.4v-0.2h0.9v0.2c0,0.4-0.1,0.7-0.3,0.9C280.7,405.9,280.4,406,280,406z M279.7,403.5h0.7v-0.4
		c0-0.2,0-0.3-0.1-0.4c0-0.1-0.1-0.1-0.3-0.1c-0.1,0-0.2,0-0.3,0.1c0,0.1-0.1,0.3-0.1,0.5V403.5z"/>
	<path class="st1" d="M281.9,405.9v-4h0.9v0.3c0.3-0.3,0.6-0.4,0.9-0.4c0.3,0,0.5,0.2,0.7,0.5c0.3-0.3,0.6-0.5,1-0.5
		c0.2,0,0.4,0.1,0.5,0.2c0.1,0.2,0.2,0.4,0.2,0.7v3.1h-0.9v-3c0-0.1,0-0.2-0.1-0.3c0-0.1-0.1-0.1-0.2-0.1c-0.2,0-0.3,0.1-0.5,0.2
		c0,0,0,0,0,0c0,0,0,0,0,0v3.1h-0.9v-3c0-0.1,0-0.2-0.1-0.3c0-0.1-0.1-0.1-0.2-0.1c-0.2,0-0.3,0.1-0.5,0.2v3.2H281.9z"/>
	<path class="st1" d="M286.8,407.2V402h0.9v0.3c0.2-0.2,0.5-0.4,0.8-0.4c0.1,0,0.3,0,0.4,0.1c0.1,0.1,0.2,0.1,0.3,0.2
		c0.1,0.1,0.1,0.2,0.2,0.3c0,0.1,0.1,0.2,0.1,0.4c0,0.1,0,0.2,0,0.3v1.3c0,0.2,0,0.4,0,0.6c0,0.2-0.1,0.3-0.2,0.5
		c-0.1,0.1-0.2,0.2-0.3,0.3c-0.1,0.1-0.3,0.1-0.4,0.1c-0.2,0-0.5-0.1-0.7-0.4v1.6H286.8z M288.2,405.3c0.1,0,0.1,0,0.2-0.1
		c0,0,0.1-0.1,0.1-0.2c0-0.1,0-0.2,0-0.2c0-0.1,0-0.2,0-0.3v-1.4c0-0.1,0-0.2,0-0.2c0-0.1,0-0.1-0.1-0.2c0-0.1-0.1-0.1-0.1-0.2
		c0,0-0.1,0-0.2,0c-0.1,0-0.3,0.1-0.4,0.2v2.5C287.9,405.3,288,405.3,288.2,405.3z"/>
	<path class="st1" d="M291.3,406c-0.4,0-0.7-0.1-1-0.4c-0.2-0.2-0.3-0.6-0.3-1v-1.3c0-0.4,0.1-0.8,0.3-1c0.2-0.2,0.5-0.4,1-0.4
		c0.4,0,0.7,0.1,1,0.4c0.2,0.2,0.3,0.6,0.3,1v1.3c0,0.4-0.1,0.8-0.3,1C292,405.9,291.7,406,291.3,406z M291.3,405.3
		c0.1,0,0.1,0,0.2,0c0,0,0.1-0.1,0.1-0.2c0-0.1,0-0.1,0-0.2c0-0.1,0-0.2,0-0.3v-1.4c0-0.1,0-0.2,0-0.2c0-0.1,0-0.1,0-0.2
		c0-0.1,0-0.1-0.1-0.2c0,0-0.1-0.1-0.1-0.1c0,0-0.1,0-0.2,0c-0.1,0-0.1,0-0.2,0.1c0,0-0.1,0.1-0.1,0.2c0,0.1,0,0.1,0,0.2
		c0,0.1,0,0.2,0,0.3v1.4c0,0.1,0,0.2,0,0.2c0,0.1,0,0.1,0,0.2c0,0.1,0,0.1,0.1,0.2c0,0,0.1,0.1,0.1,0.1
		C291.2,405.3,291.2,405.3,291.3,405.3z"/>
	<path class="st1" d="M293.2,405.9v-4h0.9v0.6c0.1-0.2,0.3-0.4,0.4-0.5c0.1-0.1,0.3-0.2,0.4-0.2c0,0,0.1,0,0.1,0v0.9
		c-0.1,0-0.2-0.1-0.3-0.1c-0.1,0-0.3,0-0.4,0.1c-0.1,0.1-0.2,0.2-0.3,0.3v2.7H293.2z"/>
	<path class="st1" d="M297.3,401.3v-0.8h0.9v0.8H297.3z M297.3,405.9v-4h0.9v4H297.3z"/>
	<path class="st1" d="M298.9,405.9v-4h0.9v0.4c0.3-0.3,0.6-0.4,1-0.4c0.2,0,0.4,0.1,0.5,0.2c0.1,0.2,0.2,0.4,0.2,0.6v3.2h-0.9v-3
		c0-0.1,0-0.2-0.1-0.3c0-0.1-0.1-0.1-0.2-0.1c-0.1,0-0.3,0.1-0.4,0.2v3.1H298.9z"/>
	<path class="st1" d="M303.4,406c-0.4,0-0.8-0.1-1-0.4c-0.2-0.3-0.3-0.6-0.3-1.1v-1.1c0-0.5,0.1-0.8,0.3-1.1c0.2-0.3,0.5-0.4,1-0.4
		c0.4,0,0.7,0.1,0.9,0.3c0.2,0.2,0.3,0.5,0.3,0.9v0.3h-0.9v-0.3c0-0.2,0-0.3-0.1-0.4c0-0.1-0.1-0.1-0.2-0.1c-0.1,0-0.2,0-0.3,0.1
		c0,0.1-0.1,0.3-0.1,0.5v1.4c0,0.3,0,0.4,0.1,0.5c0,0.1,0.1,0.1,0.3,0.1c0.1,0,0.2,0,0.3-0.1c0-0.1,0.1-0.2,0.1-0.4v-0.4h0.9v0.4
		c0,0.4-0.1,0.7-0.3,0.9C304.1,405.9,303.8,406,303.4,406z"/>
	<path class="st1" d="M305.2,401.3v-0.8h0.9v0.8H305.2z M305.2,405.9v-4h0.9v4H305.2z"/>
	<path class="st1" d="M307.8,406c-0.3,0-0.6-0.1-0.7-0.3c-0.2-0.2-0.2-0.6-0.2-1.1v-1.2c0-0.2,0-0.4,0-0.6c0-0.2,0.1-0.3,0.2-0.5
		c0.1-0.1,0.2-0.3,0.3-0.3c0.1-0.1,0.3-0.1,0.5-0.1c0.3,0,0.5,0.1,0.7,0.3v-1.8h0.9v5.5h-0.9v-0.3C308.3,405.9,308,406,307.8,406z
		 M308.1,405.3c0.1,0,0.2,0,0.4-0.1v-2.5c-0.1-0.1-0.2-0.1-0.4-0.1c-0.1,0-0.2,0.1-0.3,0.2c-0.1,0.1-0.1,0.3-0.1,0.4v1.5
		c0,0.1,0,0.3,0,0.4c0,0.1,0.1,0.2,0.1,0.2C307.9,405.3,308,405.3,308.1,405.3z"/>
	<path class="st1" d="M310.2,401.3v-0.8h0.9v0.8H310.2z M310.2,405.9v-4h0.9v4H310.2z"/>
	<path class="st1" d="M312.7,406c-0.3,0-0.6-0.1-0.7-0.3c-0.2-0.2-0.2-0.6-0.2-1.1v-1.2c0-0.2,0-0.4,0-0.6c0-0.2,0.1-0.3,0.2-0.5
		c0.1-0.1,0.2-0.3,0.3-0.3c0.1-0.1,0.3-0.1,0.5-0.1c0.2,0,0.5,0.1,0.7,0.3v-1.8h0.9v5.5h-0.9v-0.3C313.2,405.9,313,406,312.7,406z
		 M313.1,405.3c0.1,0,0.2,0,0.4-0.1v-2.5c-0.1-0.1-0.2-0.1-0.4-0.1c-0.1,0-0.2,0.1-0.3,0.2c-0.1,0.1-0.1,0.3-0.1,0.4v1.5
		c0,0.1,0,0.3,0,0.4c0,0.1,0.1,0.2,0.1,0.2C312.9,405.3,313,405.3,313.1,405.3z"/>
	<path class="st1" d="M315.7,406c-0.2,0-0.4-0.1-0.5-0.2c-0.1-0.2-0.2-0.4-0.2-0.6V402h0.9v3c0,0.1,0,0.2,0.1,0.3
		c0,0.1,0.1,0.1,0.2,0.1c0.1,0,0.2-0.1,0.4-0.2V402h0.9v4h-0.9v-0.4C316.3,405.8,316,406,315.7,406z"/>
	<path class="st1" d="M318.3,405.9v-4h0.9v0.4c0.3-0.3,0.6-0.4,1-0.4c0.2,0,0.4,0.1,0.5,0.2c0.1,0.2,0.2,0.4,0.2,0.6v3.2h-0.9v-3
		c0-0.1,0-0.2-0.1-0.3c0-0.1-0.1-0.1-0.2-0.1c-0.1,0-0.3,0.1-0.4,0.2v3.1H318.3z"/>
	<path class="st1" d="M322.7,406c-0.2,0-0.3,0-0.5-0.1c-0.1-0.1-0.2-0.1-0.3-0.2c-0.1-0.1-0.1-0.2-0.1-0.4c0-0.1,0-0.3,0-0.5v-2.2
		h-0.4V402h0.4v-1.2h0.9v1.2h0.6v0.6h-0.6v2.3c0,0.1,0,0.2,0.1,0.3c0.1,0.1,0.1,0.1,0.3,0.1c0.1,0,0.2,0,0.3,0v0.7
		C323,406,322.8,406,322.7,406z"/>
	<path class="st1" d="M323.8,405.9V405h0.9v0.9H323.8z"/>
</g>
<circle class="st8" cx="125.9" cy="186.7" r="1.5"/>
<g>
	<path class="st5" d="M191.2,265.7l117.4,67.8c1.3,0.7,3.2,0.8,4.3,0.2l70-40.4c1.1-0.6,1-1.8-0.3-2.5L265.3,223
		c-1.3-0.7-3.2-0.8-4.3-0.2l-70,40.4C189.8,263.9,189.9,265,191.2,265.7z"/>
	<g>
		<g>
			<g>
				<g>
					<g>
						
							<linearGradient id="SVGID_5_" gradientUnits="userSpaceOnUse" x1="-5203.3965" y1="189.3575" x2="-5066.418" y2="189.3575" gradientTransform="matrix(-1 0 0 1 -4801.3818 0)">
							<stop  offset="0" style="stop-color:#7BDAFF"/>
							<stop  offset="1" style="stop-color:#59BDEF"/>
						</linearGradient>
						<path class="st10" d="M265.1,197.9l14.8-88l-1.2-0.5l1.8-1l0,0c0.3-0.2,0.8-0.2,1.4,0.1l118.6,68.5c1,0.6,1.7,2,1.5,3
							l-15,88.7c-0.1,0.5-0.3,0.8-0.6,0.9l0,0l-1.8,1l-0.3-1.6l0.1,0l-117.9-68C265.6,200.3,264.9,198.9,265.1,197.9z"/>
						<path class="st11" d="M399.8,179.3l1.9-0.9c0.2,0.5,0.3,1,0.3,1.5l-15,88.7c-0.1,0.5-0.3,0.8-0.6,0.9l0,0l-1.8,1l-0.3-1.6
							l0.1,0l-6-3.4L399.8,179.3z"/>
						
							<linearGradient id="SVGID_6_" gradientUnits="userSpaceOnUse" x1="-5201.5361" y1="189.9553" x2="-5064.5576" y2="189.9553" gradientTransform="matrix(-1 0 0 1 -4801.3818 0)">
							<stop  offset="0" style="stop-color:#2573BA"/>
							<stop  offset="1" style="stop-color:#0063AD"/>
						</linearGradient>
						<path class="st12" d="M264.7,202l118.6,68.5c0.9,0.5,1.7,0.2,1.9-0.7l15-88.7c0.2-1-0.6-2.4-1.5-3L280,109.5
							c-0.9-0.5-1.7-0.2-1.9,0.7l-15,88.7C263,200,263.8,201.4,264.7,202z"/>
						
							<linearGradient id="SVGID_7_" gradientUnits="userSpaceOnUse" x1="-5201.5361" y1="189.9553" x2="-5064.5576" y2="189.9553" gradientTransform="matrix(-1 0 0 1 -4801.3818 0)">
							<stop  offset="0" style="stop-color:#2C75E4"/>
							<stop  offset="4.482364e-002" style="stop-color:#3461D5"/>
							<stop  offset="0.1323" style="stop-color:#4140BB"/>
							<stop  offset="0.2225" style="stop-color:#4B27A7"/>
							<stop  offset="0.3154" style="stop-color:#521499"/>
							<stop  offset="0.4127" style="stop-color:#570A91"/>
							<stop  offset="0.5215" style="stop-color:#58068E"/>
							<stop  offset="0.6592" style="stop-color:#5B078F"/>
							<stop  offset="0.7607" style="stop-color:#640A92"/>
							<stop  offset="0.8506" style="stop-color:#740F98"/>
							<stop  offset="0.9332" style="stop-color:#8B17A0"/>
							<stop  offset="1" style="stop-color:#A31FA9"/>
						</linearGradient>
						<path class="st13" d="M264.7,202l118.6,68.5c0.9,0.5,1.7,0.2,1.9-0.7l15-88.7c0.2-1-0.6-2.4-1.5-3L280,109.5
							c-0.9-0.5-1.7-0.2-1.9,0.7l-15,88.7C263,200,263.8,201.4,264.7,202z"/>
						
							<linearGradient id="SVGID_8_" gradientUnits="userSpaceOnUse" x1="-5198.7222" y1="189.972" x2="-5067.5054" y2="189.972" gradientTransform="matrix(-1 0 0 1 -4801.3818 0)">
							<stop  offset="0" style="stop-color:#7BDAFF"/>
							<stop  offset="1" style="stop-color:#59BDEF"/>
						</linearGradient>
						<polygon class="st14" points="280.2,114.4 397.3,182 383.2,265.6 266.1,198 						"/>
					</g>
					<g>
						
							<linearGradient id="SVGID_9_" gradientUnits="userSpaceOnUse" x1="-5185.0444" y1="263.975" x2="-4991.5859" y2="263.975" gradientTransform="matrix(-1 0 0 1 -4801.3818 0)">
							<stop  offset="0" style="stop-color:#2C75E4"/>
							<stop  offset="4.482364e-002" style="stop-color:#3461D5"/>
							<stop  offset="0.1323" style="stop-color:#4140BB"/>
							<stop  offset="0.2225" style="stop-color:#4B27A7"/>
							<stop  offset="0.3154" style="stop-color:#521499"/>
							<stop  offset="0.4127" style="stop-color:#570A91"/>
							<stop  offset="0.5215" style="stop-color:#58068E"/>
							<stop  offset="0.6592" style="stop-color:#5B078F"/>
							<stop  offset="0.7607" style="stop-color:#640A92"/>
							<stop  offset="0.8506" style="stop-color:#740F98"/>
							<stop  offset="0.9332" style="stop-color:#8B17A0"/>
							<stop  offset="1" style="stop-color:#A31FA9"/>
						</linearGradient>
						<path class="st15" d="M190.2,244l6.5,3.4l64.9-37.5c1.1-0.6,3-0.5,4.2,0.2l111.9,64.6c1.1-0.6,6-2.9,6-2.9l-2.4,6.2
							c0,0,0,0,0,0c-0.1,0.3-0.3,0.5-0.7,0.7l-68.3,39.5c-1.1,0.6-3,0.5-4.2-0.2l-114.5-66.1c-0.5-0.3-0.8-0.7-1-1l0,0L190.2,244z"
							/>
						
							<radialGradient id="SVGID_10_" cx="-5190.9712" cy="273.191" r="205.3948" gradientTransform="matrix(-1 0 0 1 -4801.3818 0)" gradientUnits="userSpaceOnUse">
							<stop  offset="0" style="stop-color:#2979E4"/>
							<stop  offset="0.2449" style="stop-color:#4958CD"/>
							<stop  offset="0.5716" style="stop-color:#6E33B2"/>
							<stop  offset="0.8349" style="stop-color:#851BA1"/>
							<stop  offset="1" style="stop-color:#8D139B"/>
						</radialGradient>
						<path class="st16" d="M191.2,245l117.4,67.8c1.3,0.7,3.2,0.8,4.3,0.2l70-40.4c1.1-0.6,1-1.8-0.3-2.5l-117.4-67.8
							c-1.3-0.7-3.2-0.8-4.3-0.2l-70,40.4C189.8,243.2,189.9,244.3,191.2,245z"/>
						<path class="st7" d="M191.2,243.9l117.4,67.8c1.3,0.7,3.2,0.8,4.3,0.2l70-40.4c0.3-0.2,0.5-0.3,0.6-0.5
							c0.3,0.6,0.2,1.2-0.6,1.7l-70,40.4c-1.1,0.6-3.1,0.6-4.3-0.2L191.2,245c-1-0.6-1.3-1.4-0.9-2
							C190.5,243.3,190.8,243.6,191.2,243.9z"/>
					</g>
				</g>
				<g class="st17">
					<defs>
						<polygon id="SVGID_11_" class="st17" points="281.6,115.2 397.3,182 383.2,265.6 267.5,198.8 						"/>
					</defs>
					<clipPath id="SVGID_12_">
						<use xlink:href="#SVGID_11_"  style="overflow:visible;"/>
					</clipPath>
					<g class="st18">
						
							<linearGradient id="SVGID_13_" gradientUnits="userSpaceOnUse" x1="-5208.7134" y1="216.1095" x2="-4993.2261" y2="216.1095" gradientTransform="matrix(-1 0 0 1 -4801.3818 0)">
							<stop  offset="0" style="stop-color:#C0BFF6"/>
							<stop  offset="0.2938" style="stop-color:#C5C4F7"/>
							<stop  offset="0.6399" style="stop-color:#D3D2F9"/>
							<stop  offset="1" style="stop-color:#E9E9FD"/>
						</linearGradient>
						<path class="st19" d="M265.4,202.2l130.7,75.4c1.4,0.8,3.6,0.9,4.8,0.2l78-45c1.2-0.7,1.1-2-0.3-2.8l-130.7-75.4
							c-1.4-0.8-3.6-0.9-4.8-0.2l-78,45C263.9,200.1,264,201.4,265.4,202.2z"/>
						<g>
							<g>
								<radialGradient id="SVGID_14_" cx="339.4817" cy="228.6797" r="40.1474" gradientUnits="userSpaceOnUse">
									<stop  offset="0" style="stop-color:#22215B"/>
									<stop  offset="0.3261" style="stop-color:#1E1E55"/>
									<stop  offset="0.7509" style="stop-color:#141645"/>
									<stop  offset="1" style="stop-color:#0C0F38"/>
								</radialGradient>
								<polygon class="st20" points="294.1,200.3 388.7,254.9 384.9,257.1 290.3,202.5 								"/>
								<radialGradient id="SVGID_15_" cx="347.1066" cy="221.5732" r="38.2352" gradientUnits="userSpaceOnUse">
									<stop  offset="0" style="stop-color:#22215B"/>
									<stop  offset="0.3261" style="stop-color:#1E1E55"/>
									<stop  offset="0.7509" style="stop-color:#141645"/>
									<stop  offset="1" style="stop-color:#0C0F38"/>
								</radialGradient>
								<polygon class="st21" points="304,194.5 393.9,246.4 390.2,248.6 300.3,196.7 								"/>
								<g>
									<polygon class="st9" points="400.6,250.3 409,255.2 405.3,257.3 396.9,252.5 									"/>
								</g>
								<g>
									<polygon class="st9" points="393.2,257.5 399.1,260.9 395.3,263.1 389.5,259.7 									"/>
								</g>
								<radialGradient id="SVGID_16_" cx="360.9071" cy="222.3297" r="44.4042" gradientUnits="userSpaceOnUse">
									<stop  offset="0" style="stop-color:#22215B"/>
									<stop  offset="0.3261" style="stop-color:#1E1E55"/>
									<stop  offset="0.7509" style="stop-color:#141645"/>
									<stop  offset="1" style="stop-color:#0C0F38"/>
								</radialGradient>
								<polygon class="st22" points="310.3,190.9 415.3,251.6 411.5,253.7 306.5,193.1 								"/>
								<radialGradient id="SVGID_17_" cx="367.1522" cy="218.7241" r="44.4042" gradientUnits="userSpaceOnUse">
									<stop  offset="0" style="stop-color:#22215B"/>
									<stop  offset="0.3261" style="stop-color:#1E1E55"/>
									<stop  offset="0.7509" style="stop-color:#141645"/>
									<stop  offset="1" style="stop-color:#0C0F38"/>
								</radialGradient>
								<polygon class="st23" points="316.5,187.3 421.5,248 417.8,250.1 312.8,189.5 								"/>
								<radialGradient id="SVGID_18_" cx="373.3973" cy="215.1185" r="44.4042" gradientUnits="userSpaceOnUse">
									<stop  offset="0" style="stop-color:#22215B"/>
									<stop  offset="0.3261" style="stop-color:#1E1E55"/>
									<stop  offset="0.7509" style="stop-color:#141645"/>
									<stop  offset="1" style="stop-color:#0C0F38"/>
								</radialGradient>
								<polygon class="st24" points="322.8,183.7 427.8,244.4 424,246.5 319,185.9 								"/>
							</g>
						</g>
					</g>
				</g>
			</g>
		</g>
		<g>
			<g>
				<polygon class="st9" points="262.4,217.5 347.2,266.4 350.9,264.3 266.2,215.3 				"/>
			</g>
			<g>
				<polygon class="st9" points="253.2,222.9 332.7,268.7 336.4,266.6 257,220.7 				"/>
			</g>
			<g>
				<polygon class="st9" points="247.2,226.3 340.7,280.3 344.5,278.2 251,224.2 				"/>
			</g>
			<g>
				<polygon class="st9" points="241.2,229.8 334.7,283.8 338.5,281.6 244.9,227.6 				"/>
			</g>
			<g>
				<polygon class="st9" points="235.2,233.3 328.7,287.3 332.5,285.1 238.9,231.1 				"/>
			</g>
			<g>
				<polygon class="st9" points="352.3,269.4 356,271.6 359.8,269.4 356,267.2 				"/>
			</g>
			<g>
				<polygon class="st9" points="339,272.4 346.8,276.9 350.6,274.7 342.8,270.2 				"/>
			</g>
		</g>
	</g>
	<g class="st25">
		<polygon class="st1" points="289.9,139.3 297.6,143.8 297.9,142.5 290.1,138 		"/>
		<polygon class="st1" points="298.9,144.5 303.1,147 303.3,145.6 299.1,143.2 		"/>
		<polygon class="st1" points="309.7,150.8 312.7,152.5 312.9,151.2 309.9,149.4 		"/>
		<polygon class="st1" points="307.4,149.5 308.5,150.1 308.7,148.7 307.7,148.1 		"/>
		<polygon class="st1" points="304.4,147.7 306.3,148.8 306.5,147.4 304.6,146.4 		"/>
		<polygon class="st1" points="296,149.6 299.1,151.4 299.3,150 296.3,148.3 		"/>
		<polygon class="st1" points="288.9,145.5 294.8,148.9 295.1,147.6 289.1,144.1 		"/>
		<g>
			<polygon class="st1" points="297.4,167.3 303.4,170.7 303.6,169.4 297.7,165.9 			"/>
			<polygon class="st1" points="294.4,165.5 296.3,166.6 296.5,165.2 294.6,164.2 			"/>
		</g>
		<polygon class="st1" points="298.4,161.1 304.4,164.6 304.6,163.2 298.7,159.8 		"/>
		<polygon class="st1" points="295.4,159.3 297.3,160.4 297.5,159.1 295.6,158 		"/>
		<polygon class="st1" points="293,193.8 281.8,187.3 281.5,188.7 292.8,195.2 		"/>
		<polygon class="st1" points="297,196.1 294.2,194.5 294,195.8 296.8,197.5 		"/>
		<polygon class="st1" points="316.8,197.4 305.5,190.9 305.3,192.2 316.6,198.8 		"/>
		<polygon class="st1" points="320.8,199.7 318,198.1 317.8,199.4 320.5,201.1 		"/>
		<polygon class="st1" points="285.3,186 282.3,184.2 282.1,185.6 285.1,187.3 		"/>
		<polygon class="st1" points="303.9,190 300.9,188.2 300.6,189.6 303.7,191.3 		"/>
		<polygon class="st1" points="292.5,190.1 286.5,186.7 286.3,188 292.3,191.5 		"/>
		<polygon class="st1" points="295.6,191.9 293.7,190.8 293.5,192.2 295.3,193.3 		"/>
		<polygon class="st1" points="302.8,196.1 296.8,192.6 296.6,194 302.6,197.4 		"/>
		<polygon class="st1" points="305.9,197.9 304,196.8 303.7,198.1 305.6,199.2 		"/>
		<polygon class="st1" points="303.4,193.1 300.3,191.3 300.1,192.6 303.2,194.4 		"/>
		<polygon class="st1" points="310.5,197.2 304.6,193.7 304.3,195.1 310.3,198.5 		"/>
		<polygon class="st1" points="313.6,199 311.7,197.9 311.5,199.2 313.4,200.3 		"/>
		<polygon class="st1" points="289,184.8 282.8,181.2 282.6,182.5 288.8,186.1 		"/>
		<polygon class="st1" points="294.7,188.1 290.2,185.5 290,186.8 294.5,189.4 		"/>
		<polygon class="st1" points="299,190.5 295.9,188.8 295.7,190.1 298.8,191.9 		"/>
		<polygon class="st1" points="328.6,204.2 322.3,200.6 322.1,201.9 328.4,205.6 		"/>
		<polygon class="st1" points="334.3,207.5 329.8,204.9 329.5,206.2 334.1,208.8 		"/>
		<polygon class="st1" points="338.5,209.9 335.5,208.2 335.2,209.5 338.3,211.3 		"/>
		<polygon class="st1" points="326.1,163.6 332.4,167.2 332.6,165.9 326.4,162.3 		"/>
		<polygon class="st1" points="320.4,160.3 325,163 325.2,161.6 320.7,159 		"/>
		<polygon class="st1" points="316.2,157.9 319.3,159.7 319.5,158.3 316.4,156.6 		"/>
		<polygon class="st1" points="324.1,159.1 330.3,162.7 330.5,161.3 324.3,157.7 		"/>
		<polygon class="st1" points="318.4,155.8 322.9,158.4 323.1,157 318.6,154.4 		"/>
		<polygon class="st1" points="314.1,153.3 317.2,155.1 317.4,153.7 314.4,152 		"/>
		<polygon class="st1" points="298.8,164.7 301,166 301.2,164.6 299.1,163.4 		"/>
		<polygon class="st1" points="294.9,162.4 297.7,164.1 297.9,162.7 295.1,161.1 		"/>
		<polygon class="st1" points="289.6,181.7 283.4,178.1 283.1,179.5 289.4,183.1 		"/>
		<polygon class="st1" points="295.3,185 290.8,182.4 290.6,183.8 295.1,186.4 		"/>
		<polygon class="st1" points="299.5,187.5 296.5,185.7 296.3,187 299.3,188.8 		"/>
		<polygon class="st1" points="286,176.3 283.9,175 283.6,176.4 285.8,177.6 		"/>
		<polygon class="st1" points="290,178.6 287.2,176.9 286.9,178.3 289.7,179.9 		"/>
		<polygon class="st1" points="295.6,181.8 291.1,179.2 290.9,180.6 295.4,183.2 		"/>
		<polygon class="st1" points="301.7,156.3 303.8,157.5 304.1,156.1 301.9,154.9 		"/>
		<polygon class="st1" points="297.7,154 300.5,155.6 300.8,154.2 298,152.6 		"/>
		<polygon class="st1" points="292.1,150.7 296.6,153.3 296.8,151.9 292.3,149.4 		"/>
		<polygon class="st1" points="304.9,161.3 309.4,163.8 309.6,162.5 305.2,159.9 		"/>
		<polygon class="st1" points="297.6,157.3 303.6,160.7 303.9,159.4 297.8,155.9 		"/>
		<polygon class="st1" points="294.5,155.5 296.4,156.6 296.6,155.2 294.7,154.1 		"/>
		<polygon class="st1" points="291.6,153.8 293.4,154.9 293.7,153.5 291.8,152.4 		"/>
		<g>
			<polygon class="st1" points="292,171.1 297.9,174.6 298.2,173.2 292.2,169.8 			"/>
			<polygon class="st1" points="288.9,169.3 290.8,170.4 291,169.1 289.1,168 			"/>
			<polygon class="st1" points="292.4,174.7 294.5,175.9 294.7,174.6 292.6,173.4 			"/>
			<polygon class="st1" points="299.8,172.3 301.9,173.5 302.2,172.1 300,170.9 			"/>
			<polygon class="st1" points="302.8,174 307.9,176.9 308.1,175.6 303.1,172.7 			"/>
			<polygon class="st1" points="308.8,177.4 311.8,179.2 312,177.8 309,176.1 			"/>
			<polygon class="st1" points="288.4,172.4 291.2,174 291.4,172.7 288.6,171.1 			"/>
			<g>
				<polygon class="st1" points="288.1,175.6 290.3,176.8 290.5,175.5 288.4,174.2 				"/>
				<polygon class="st1" points="284.2,173.3 287,174.9 287.2,173.6 284.4,172 				"/>
			</g>
			<polygon class="st1" points="296.8,170.5 298.7,171.6 298.9,170.3 297,169.2 			"/>
			<polygon class="st1" points="293.8,168.8 295.7,169.9 295.9,168.5 294,167.5 			"/>
		</g>
		<polygon class="st1" points="308.4,153.4 314.8,157.1 315,155.7 308.6,152 		"/>
		<polygon class="st1" points="301.1,149.2 307.2,152.7 307.4,151.3 301.3,147.8 		"/>
		<polygon class="st1" points="298,147.4 299.9,148.5 300.2,147.2 298.3,146.1 		"/>
		<polygon class="st1" points="295.1,145.7 297,146.8 297.2,145.4 295.3,144.4 		"/>
		<polygon class="st1" points="293.5,144.8 289.4,142.4 289.6,141.1 293.7,143.4 		"/>
	</g>
</g>
</svg>
