<?xml version="1.0" encoding="utf-8"?>
<!-- Generator: Adobe Illustrator 19.0.0, SVG Export Plug-In . SVG Version: 6.00 Build 0)  -->
<svg version="1.1" id="OBJECTS" xmlns="http://www.w3.org/2000/svg" xmlns:xlink="http://www.w3.org/1999/xlink" x="0px" y="0px"
	 viewBox="-584 291 750 500" style="enable-background:new -584 291 750 500;" xml:space="preserve">
<style type="text/css">
	.st0{fill:#0A031F;}
	.st1{fill:url(#SVGID_1_);}
</style>
<g>
	<path class="st0" d="M-289,721.8c-3.5-41,6.5-82.5,23.7-119.6c13.7-29.6,32.4-59.1,31-92c-2-43.2-37.4-75.4-55.4-114.2
		c-15-32.4-17.2-70.8-7-105.1h-324.7c-5.6,0-10.2,4.6-10.2,10.2v479.7c0,5.6,4.6,10.2,10.2,10.2h353.5
		C-279.8,770.3-286.9,746-289,721.8z"/>
	
		<linearGradient id="SVGID_1_" gradientUnits="userSpaceOnUse" x1="98.0183" y1="385.2559" x2="195.3243" y2="287.95" gradientTransform="matrix(1 0 0 1 0 4)">
		<stop  offset="0" style="stop-color:#FFFFFF"/>
		<stop  offset="0" style="stop-color:#15063F"/>
		<stop  offset="1" style="stop-color:#000000"/>
	</linearGradient>
	<path class="st1" d="M62.8,348.5c21.7,34.4,56.1,57.8,91.3,76.1c15.2,7.9,30.8,15.1,46.2,22.5v-146c0-5.6-4.6-10.2-10.2-10.2h-154
		C44.3,310.6,51.6,330.6,62.8,348.5z"/>
</g>
</svg>
