<?xml version="1.0" encoding="utf-8"?>
<!-- Generator: Adobe Illustrator 19.0.0, SVG Export Plug-In . SVG Version: 6.00 Build 0)  -->
<svg version="1.1" xmlns="http://www.w3.org/2000/svg" xmlns:xlink="http://www.w3.org/1999/xlink" x="0px" y="0px"
	 viewBox="0 0 750 500" style="enable-background:new 0 0 750 500;" xml:space="preserve">
<style type="text/css">
	.st0{display:none;}
	.st1{display:inline;fill:url(#SVGID_1_);}
	.st2{display:inline;}
	.st3{opacity:0.32;fill:#EEE8C1;}
	.st4{display:inline;opacity:0.9;fill:url(#SVGID_2_);}
	.st5{display:inline;opacity:0.47;fill:url(#SVGID_3_);}
</style>
<g id="BACKGROUND" class="st0">
	<linearGradient id="SVGID_1_" gradientUnits="userSpaceOnUse" x1="375" y1="212.5925" x2="375" y2="-27.4">
		<stop  offset="0" style="stop-color:#C3CFBB"/>
		<stop  offset="0.1754" style="stop-color:#BFC6BF"/>
		<stop  offset="0.4616" style="stop-color:#B4AECB"/>
		<stop  offset="0.8207" style="stop-color:#A286DD"/>
		<stop  offset="1" style="stop-color:#9870E8"/>
	</linearGradient>
	<rect class="st1" width="750" height="500"/>
</g>
<g id="OBJECTS" class="st0">
	<g class="st2">
		<g>
			<path class="st3" d="M-22,79c0,0,44.6-4,62.1-3c17.4,1,36.9,7,58.4,9s66.7,2.5,70.8,9s10.7,11,26.7,13s15,10.3,31.5,14.9
				s45,10.6,45,10.6s-34,2-54,0s-24-3.5-40-1.5s-21-6.5-36-6s-15,3.3-26.5,8.4s-8.5,12.6-37,6.6s-33.5-1.5-54.5,0s-37,2-39.5,0
				S-22,79-22,79z"/>
			<path class="st3" d="M295,137.5c0,0,15,3.9,39.5,4.7c24.5,0.8,50.5-1.8,70.5,0c20,1.8,46-3.7,63.5-4.7s43.5-1,46.5,0
				s21-0.8,21-0.8s-16.5-5.3-32.5-5.8s-29,0.5-39-3.5s-24.2-0.5-29.8,0c-5.7,0.5-22.2,6-38.7,4s-37-1.5-37-1.5L295,137.5z"/>
			<path class="st3" d="M547,119c0,0,17.5-8.2,41.5-7.1s36,6.2,47.5-0.1c11.5-6.3,16-8.3,30-9.3s17,4.5,32.5,5s51.5-3,51.5-3V155
				c0,0-23-5-39.5-6s-21.5-1.5-36-8s-12.5-3.5-34-6s-14,1.4-35-6.3C584.5,121,556,115.5,547,119z"/>
			<path class="st3" d="M607.5,62.5c0,0,26.5-7.5,35.5-12s16,0,26.5,2.5s19.5,5.6,30.5,2.5c11-3,19.5,1,26.5,2.5s29.5,1,29.5,1v13
				c0,0-43-2-54-3.5S690,73,672.5,67s-15-10.4-31-6.7C625.5,64,607.5,62.5,607.5,62.5z"/>
		</g>
	</g>
</g>
<g id="Layer_5">
	<path class="st3" d="M619.9-10.3c0,0-30.7,18.7-44.7,21.3s-8,3.3-20,4.7c-12,1.3-12.7-2.7-26.7,0c-14,2.7-24,2-27.3,8.7
		c-3.3,6.7,21.3,2.7,20,8.7c-1.3,6-19.3,4-24.7,7.3c-5.3,3.3,18.7,3.3-17.3,7.3s-28.7-8-51.3,6.7c-22.7,14.7-22,12-44.7,15.3
		c-22.7,3.3-42,4.7-28.7,13.3c13.3,8.7,71.3,7.3,75.3,12s-33.3,6.7-58,6c-24.7-0.7-39.3-8.4-70,0.1c-30.7,8.5-33.3,14.5-64,14.5
		c-30.7,0-38-1.3-90,4c-52,5.3-46.3-0.7-80.7,0c-34.3,0.7-38.5-0.7-38.5-0.7V-7L619.9-10.3z"/>
	<path class="st3" d="M-562.4-10.3c0,0,30.7,18.7,44.7,21.3c14,2.7,8,3.3,20,4.7c12,1.3,12.7-2.7,26.7,0c14,2.7,24,2,27.3,8.7
		c3.3,6.7-21.3,2.7-20,8.7c1.3,6,19.3,4,24.7,7.3c5.3,3.3-18.7,3.3,17.3,7.3s28.7-8,51.3,6.7c22.7,14.7,22,12,44.7,15.3
		c22.7,3.3,42,4.7,28.7,13.3c-13.3,8.7-71.3,7.3-75.3,12s33.3,6.7,58,6c24.7-0.7,39.3-8.4,70,0.1c30.7,8.5,33.3,14.5,64,14.5
		c30.7,0,38-1.3,90,4c52,5.3,46.3-0.7,80.7,0c34.3,0.7,38.5-0.7,38.5-0.7V-7L-562.4-10.3z"/>
</g>
<g id="Layer_4" class="st0">
	<radialGradient id="SVGID_2_" cx="696" cy="337.7718" r="320.7532" gradientUnits="userSpaceOnUse">
		<stop  offset="4.949920e-002" style="stop-color:#AEEEBF"/>
		<stop  offset="1" style="stop-color:#AEEEBF;stop-opacity:0"/>
	</radialGradient>
	<circle class="st4" cx="696" cy="337.8" r="320.8"/>
	<radialGradient id="SVGID_3_" cx="18" cy="0" r="533.293" gradientUnits="userSpaceOnUse">
		<stop  offset="4.949920e-002" style="stop-color:#AEEEBF"/>
		<stop  offset="1" style="stop-color:#AEEEBF;stop-opacity:0"/>
	</radialGradient>
	<circle class="st5" cx="18" cy="0" r="533.3"/>
</g>
<g id="DESIGNED_BY_FREEPIK" class="st0">
</g>
</svg>
