<?xml version="1.0" encoding="utf-8"?>
<!-- Generator: Adobe Illustrator 19.0.0, SVG Export Plug-In . SVG Version: 6.00 Build 0)  -->
<svg version="1.1" id="Layer_1" xmlns="http://www.w3.org/2000/svg" xmlns:xlink="http://www.w3.org/1999/xlink" x="0px" y="0px"
	 viewBox="-584 291 750 500" style="enable-background:new -584 291 750 500;" xml:space="preserve">
<style type="text/css">
	.st0{display:none;}
	.st1{display:inline;fill:url(#SVGID_1_);}
	.st2{display:inline;}
	.st3{opacity:0.32;fill:#EEE8C1;enable-background:new    ;}
	.st4{display:inline;opacity:0.32;}
	.st5{fill:#EEE8C1;}
	.st6{display:inline;opacity:0.9;fill:url(#SVGID_2_);enable-background:new    ;}
	.st7{display:inline;opacity:0.47;fill:url(#SVGID_3_);enable-background:new    ;}
	.st8{fill:#F9FBFC;}
</style>
<g id="BACKGROUND" class="st0">
	
		<linearGradient id="SVGID_1_" gradientUnits="userSpaceOnUse" x1="-209" y1="580.4075" x2="-209" y2="820.4" gradientTransform="matrix(1 0 0 -1 0 1084)">
		<stop  offset="0" style="stop-color:#C3CFBB"/>
		<stop  offset="0.1754" style="stop-color:#BFC6BF"/>
		<stop  offset="0.4616" style="stop-color:#B4AECB"/>
		<stop  offset="0.8207" style="stop-color:#A286DD"/>
		<stop  offset="1" style="stop-color:#9870E8"/>
	</linearGradient>
	<rect x="-584" y="291" class="st1" width="750" height="500"/>
</g>
<g id="OBJECTS" class="st0">
	<g class="st2">
		<g>
			<path class="st3" d="M-37,410c0,0,17.5-8.2,41.5-7.1s36,6.2,47.5-0.1c11.5-6.3,16-8.3,30-9.3s17,4.5,32.5,5s51.5-3,51.5-3V446
				c0,0-23-5-39.5-6s-21.5-1.5-36-8s-12.5-3.5-34-6s-14,1.4-35-6.3C0.5,412-28,406.5-37,410z"/>
			<path class="st3" d="M23.5,353.5c0,0,26.5-7.5,35.5-12s16,0,26.5,2.5s19.5,5.6,30.5,2.5c11-3,19.5,1,26.5,2.5s29.5,1,29.5,1v13
				c0,0-43-2-54-3.5s-12,4.5-29.5-1.5s-15-10.4-31-6.7C41.5,355,23.5,353.5,23.5,353.5z"/>
		</g>
	</g>
</g>
<g id="Layer_6">
	<path class="st3" d="M-577.1,428.5c0,0,15,3.9,39.5,4.7c24.5,0.8,50.5-1.8,70.5,0c20,1.8,46-3.7,63.5-4.7s43.5-1,46.5,0
		s21-0.8,21-0.8s-16.5-5.3-32.5-5.8s-29,0.5-39-3.5s-24.2-0.5-29.8,0c-5.7,0.5-22.2,6-38.7,4s-37-1.5-37-1.5L-577.1,428.5z"/>
</g>
<g id="Layer_5" class="st0">
	<g class="st4">
		<path class="st5" d="M-231.9,370c0,0,44.6-4,62.1-3c17.4,1,36.9,7,58.4,9s66.7,2.5,70.8,9c4.2,6.5,10.7,11,26.7,13
			s15,10.3,31.5,14.9s45,10.6,45,10.6s-34,2-54,0s-24-3.5-40-1.5s-21-6.5-36-6s-15,3.3-26.5,8.4s-8.5,12.6-37,6.6s-33.5-1.5-54.5,0
			s-37,2-39.5,0S-231.9,370-231.9,370z"/>
		<path class="st5" d="M-199.8,370c0,0-44.6-4-62.1-3c-17.4,1-36.9,7-58.4,9s-66.7,2.5-70.8,9c-4.1,6.5-10.7,11-26.7,13
			s-15,10.3-31.5,14.9s-45,10.6-45,10.6s34,2,54,0s24-3.5,40-1.5s21-6.5,36-6s15,3.3,26.5,8.4s8.5,12.6,37,6.6s33.5-1.5,54.5,0
			s37,2,39.5,0S-199.8,370-199.8,370z"/>
	</g>
</g>
<g id="Layer_4" class="st0">
	
		<radialGradient id="SVGID_2_" cx="112" cy="455.2" r="320.8" gradientTransform="matrix(1 0 0 -1 0 1084)" gradientUnits="userSpaceOnUse">
		<stop  offset="4.949920e-002" style="stop-color:#AEEEBF"/>
		<stop  offset="1" style="stop-color:#AEEEBF;stop-opacity:0"/>
	</radialGradient>
	<circle class="st6" cx="112" cy="628.8" r="320.8"/>
	
		<radialGradient id="SVGID_3_" cx="-566" cy="793" r="533.3" gradientTransform="matrix(1 0 0 -1 0 1084)" gradientUnits="userSpaceOnUse">
		<stop  offset="4.949920e-002" style="stop-color:#AEEEBF"/>
		<stop  offset="1" style="stop-color:#AEEEBF;stop-opacity:0"/>
	</radialGradient>
	<circle class="st7" cx="-566" cy="291" r="533.3"/>
</g>
<g id="DESIGNED_BY_FREEPIK" class="st0">
	<g class="st2">
		<g id="XMLID_319_">
			<g id="XMLID_338_">
				<path id="XMLID_346_" class="st8" d="M-198.9,756.5c-0.4,0.4-0.8,0.9-1.1,1.5l-0.5-0.2c-0.1-0.3-0.3-0.5-0.7-0.5
					c-0.3,0-0.6,0.3-0.5,0.7c0,0.3,0.3,0.6,0.7,0.5c0.1,0,0.1,0,0.2-0.1l0.5,0.2c-0.3,0.6-0.4,1.1-0.5,1.7l0.7,0.1
					c0.2-1.3,0.8-2.5,1.8-3.5L-198.9,756.5z"/>
				<path id="XMLID_345_" class="st8" d="M-193.4,754.2c-0.2,0-0.3,0-0.5,0l-0.1-0.6c0.2-0.1,0.3-0.4,0.3-0.6c0-0.4-0.4-0.7-0.8-0.6
					c-0.4,0-0.7,0.4-0.6,0.8c0,0.3,0.2,0.5,0.4,0.6l0.1,0.6c-0.7,0.1-1.4,0.3-2.1,0.6l0.3,0.7c0.9-0.4,1.9-0.7,3-0.7
					c0.5,0,1,0.1,1.5,0.2l0.2-0.7C-192.3,754.2-192.9,754.2-193.4,754.2z"/>
				<path id="XMLID_344_" class="st8" d="M-186.8,756.7c0.3,0,0.6-0.3,0.5-0.7c0-0.3-0.3-0.6-0.7-0.5c-0.3,0-0.5,0.3-0.5,0.6
					l-0.4,0.4c-0.4-0.4-0.9-0.8-1.4-1.1l-0.4,0.6c1.1,0.7,2,1.7,2.6,2.9l0.7-0.3c-0.3-0.6-0.6-1.1-0.9-1.5L-186.8,756.7
					C-186.9,756.7-186.9,756.7-186.8,756.7z"/>
				<path id="XMLID_343_" class="st8" d="M-194,764.4c-0.4,0-0.8,0-1.2,0c-0.9,0-1.7-0.1-2.5-0.2c-0.4-0.1-0.8-0.2-1.3-0.3
					c1,1.9,3.1,3.1,5.4,3.1c2.9,0,5.3-1.9,5.9-4.5c-0.7,0.4-1.5,0.8-2.5,1.1C-191.2,764-192.5,764.3-194,764.4z"/>
				<path id="XMLID_339_" class="st8" d="M-193.4,755.7c-3.4,0-6.1,2.7-6.1,5.9c0,0.4,0,0.8,0.1,1.3c0.7,0.5,2.7,0.9,5.3,0.7
					c2.9-0.2,5.3-1,6.7-2.2c0-0.2,0-0.4,0-0.6C-187.8,757.9-190.3,755.7-193.4,755.7z M-195.6,762.2c-1,0-1.8-0.8-1.8-1.8
					s0.8-1.8,1.8-1.8s1.8,0.8,1.8,1.8C-193.7,761.4-194.5,762.2-195.6,762.2z M-190.8,761.3c-0.8,0-1.4-0.6-1.4-1.4
					c0-0.8,0.6-1.4,1.4-1.4s1.4,0.6,1.4,1.4C-189.4,760.7-190.1,761.3-190.8,761.3z"/>
			</g>
			<path id="XMLID_336_" class="st8" d="M-177.4,757.5c-0.3-0.1-0.8-0.3-1.4-0.2c-0.6,0.1-0.8,0.3-0.8,1v0.9h2.2v1.7h-2.2v5.5h-1.9
				v-5.5h-1.3v-1.7h1.3v-0.9c0-1.7,0.9-2.8,2.6-2.8c0.6,0,1.2,0.1,1.6,0.3L-177.4,757.5z"/>
			<path id="XMLID_334_" class="st8" d="M-172.7,760.9c-0.2,0-0.4,0-0.5,0c-0.9,0-1.5,0.5-1.5,1.6v3.9h-1.9v-7.2h1.9v0.8
				c0.5-0.7,1.1-1,2-1c0.4,0,0.8,0.1,1.1,0.3L-172.7,760.9z"/>
			<path id="XMLID_331_" class="st8" d="M-165,762.8c0,0.2,0,0.5,0,0.7h-5.1c0.2,1,0.9,1.5,1.8,1.5c0.6,0,1.3-0.3,1.8-0.7l1.1,1.2
				c-0.8,0.7-1.9,1.1-3.1,1.1c-2.2,0-3.7-1.5-3.7-3.8c0-2.3,1.5-3.8,3.6-3.8C-166.5,759-165,760.5-165,762.8z M-170.1,762.1h3.2
				c-0.2-0.9-0.7-1.4-1.6-1.4S-170,761.2-170.1,762.1z"/>
			<path id="XMLID_328_" class="st8" d="M-157.4,762.8c0,0.2,0,0.5,0,0.7h-5.1c0.2,1,0.9,1.5,1.8,1.5c0.6,0,1.3-0.3,1.8-0.7l1.1,1.2
				c-0.8,0.7-1.9,1.1-3.1,1.1c-2.2,0-3.7-1.5-3.7-3.8c0-2.3,1.5-3.8,3.6-3.8C-158.8,759-157.4,760.5-157.4,762.8z M-162.5,762.1h3.2
				c-0.2-0.9-0.7-1.4-1.6-1.4S-162.3,761.2-162.5,762.1z"/>
			<path id="XMLID_325_" class="st8" d="M-149,762.8c0,2.2-1.5,3.8-3.5,3.8c-1,0-1.6-0.4-2.1-0.9v3.7h-1.9v-10.1h1.9v0.8
				c0.5-0.6,1.2-1,2.1-1C-150.5,759-149,760.6-149,762.8z M-154.7,762.8c0,1.1,0.7,2,1.8,2c1.1,0,1.9-0.9,1.9-2s-0.7-2-1.9-2
				C-154,760.8-154.7,761.6-154.7,762.8z"/>
			<path id="XMLID_322_" class="st8" d="M-145.9,756.8c0,0.7-0.5,1.2-1.2,1.2s-1.2-0.5-1.2-1.2s0.5-1.2,1.2-1.2
				C-146.5,755.6-145.9,756.1-145.9,756.8z M-146.2,766.4h-1.9v-7.2h1.9V766.4z"/>
			<path id="XMLID_320_" class="st8" d="M-143,761.7l2.7-2.6h2.4l-3.5,3.4l3.5,3.8h-2.4l-2.7-2.9v2.9h-1.9v-10.7h1.9V761.7z"/>
		</g>
		<g>
			<path class="st8" d="M-274.6,766.3v-1.1c-0.5,0.7-1.4,1.2-2.4,1.2c-1.8,0-3.1-1.4-3.1-3.7c0-2.3,1.3-3.7,3.1-3.7
				c1,0,1.8,0.5,2.4,1.2v-3.8h1.1v9.8h-1.1V766.3z M-274.6,764.4v-3.2c-0.4-0.6-1.2-1.1-2.1-1.1c-1.4,0-2.3,1.2-2.3,2.7
				c0,1.6,0.8,2.7,2.3,2.7C-275.8,765.5-275,765-274.6,764.4z"/>
			<path class="st8" d="M-272.1,762.7c0-2.1,1.5-3.7,3.5-3.7c2.1,0,3.4,1.7,3.4,3.8v0.3h-5.7c0.1,1.3,1,2.4,2.5,2.4
				c0.8,0,1.6-0.3,2.2-0.9l0.5,0.7c-0.7,0.7-1.7,1.1-2.8,1.1C-270.6,766.5-272.1,765-272.1,762.7z M-268.6,759.9
				c-1.5,0-2.3,1.3-2.3,2.4h4.6C-266.3,761.3-267,759.9-268.6,759.9z"/>
			<path class="st8" d="M-264.4,765.4l0.6-0.8c0.5,0.5,1.4,1,2.3,1c1.1,0,1.7-0.5,1.7-1.2c0-1.7-4.4-0.7-4.4-3.3c0-1.1,1-2,2.6-2
				c1.2,0,2.1,0.5,2.6,1l-0.5,0.8c-0.4-0.5-1.2-0.9-2.1-0.9c-1,0-1.6,0.5-1.6,1.1c0,1.6,4.4,0.5,4.4,3.3c0,1.2-1,2.1-2.8,2.1
				C-262.7,766.5-263.7,766.1-264.4,765.4z"/>
			<path class="st8" d="M-257.5,757.5c0-0.4,0.3-0.7,0.7-0.7c0.4,0,0.7,0.3,0.7,0.7s-0.3,0.7-0.7,0.7S-257.5,757.9-257.5,757.5z
				 M-257.3,766.3v-7.1h1.1v7.1H-257.3z"/>
			<path class="st8" d="M-254.4,768.1l0.6-0.8c0.6,0.7,1.3,1,2.3,1c1.2,0,2.3-0.6,2.3-2.1v-1c-0.5,0.7-1.4,1.3-2.4,1.3
				c-1.8,0-3.1-1.4-3.1-3.7s1.3-3.7,3.1-3.7c1,0,1.8,0.5,2.4,1.2v-1.1h1.1v6.9c0,2.3-1.6,3.1-3.4,3.1
				C-252.8,769.2-253.6,768.9-254.4,768.1z M-249.3,764.3v-3.1c-0.4-0.6-1.2-1.1-2.1-1.1c-1.4,0-2.3,1.1-2.3,2.7s0.8,2.7,2.3,2.7
				C-250.5,765.4-249.7,764.9-249.3,764.3z"/>
			<path class="st8" d="M-241.6,766.3v-4.6c0-1.2-0.6-1.6-1.6-1.6c-0.9,0-1.7,0.5-2.1,1.1v5.2h-1.1v-7.1h1.1v1
				c0.5-0.6,1.5-1.2,2.5-1.2c1.5,0,2.3,0.7,2.3,2.3v5L-241.6,766.3L-241.6,766.3z"/>
			<path class="st8" d="M-239.1,762.7c0-2.1,1.5-3.7,3.5-3.7c2.1,0,3.4,1.7,3.4,3.8v0.3h-5.7c0.1,1.3,1,2.4,2.5,2.4
				c0.8,0,1.6-0.3,2.2-0.9l0.5,0.7c-0.7,0.7-1.7,1.1-2.8,1.1C-237.6,766.5-239.1,765-239.1,762.7z M-235.6,759.9
				c-1.5,0-2.3,1.3-2.3,2.4h4.6C-233.3,761.3-234,759.9-235.6,759.9z"/>
			<path class="st8" d="M-225.6,766.3v-1.1c-0.5,0.7-1.4,1.2-2.4,1.2c-1.8,0-3.1-1.4-3.1-3.7c0-2.3,1.3-3.7,3.1-3.7
				c1,0,1.8,0.5,2.4,1.2v-3.8h1.1v9.8h-1.1V766.3z M-225.6,764.4v-3.2c-0.4-0.6-1.2-1.1-2.1-1.1c-1.4,0-2.3,1.2-2.3,2.7
				c0,1.6,0.8,2.7,2.3,2.7C-226.9,765.5-226,765-225.6,764.4z"/>
			<path class="st8" d="M-219.3,766.3v-9.8h1.1v3.8c0.6-0.8,1.4-1.2,2.4-1.2c1.8,0,3.1,1.5,3.1,3.7c0,2.3-1.3,3.7-3.1,3.7
				c-1,0-1.9-0.5-2.4-1.2v1.1h-1.1V766.3z M-216.1,765.5c1.4,0,2.3-1.2,2.3-2.7c0-1.6-0.8-2.7-2.3-2.7c-0.9,0-1.7,0.5-2.1,1.1v3.2
				C-217.8,765-217,765.5-216.1,765.5z"/>
			<path class="st8" d="M-211.5,768.1c0.2,0.1,0.4,0.1,0.6,0.1c0.5,0,0.8-0.2,1.1-0.7l0.5-1.1l-3-7.1h1.2l2.4,5.8l2.3-5.8h1.2
				l-3.5,8.5c-0.4,1-1.1,1.4-2.1,1.4c-0.2,0-0.6,0-0.8-0.1L-211.5,768.1z"/>
		</g>
	</g>
</g>
</svg>
