<svg width="256" height="256" xmlns="http://www.w3.org/2000/svg" version="1.1" xml:space="preserve">
 <g>
  <title>Layer 1</title>
  <g transform="translate(1.40659 1.40659) scale(2.81 2.81)" stroke=" none" stroke-width="0" stroke-dasharray=" none" stroke-linecap=" butt" stroke-linejoin=" miter" stroke-miterlimit="10" fill=" none" fill-rule=" nonzero" id="svg_1">
   <path d="m45,68c-12.682,0 -23,-10.317 -23,-23c0,-12.682 10.318,-23 23,-23c12.683,0 23,10.318 23,23c0,12.683 -10.317,23 -23,23z" stroke-linecap=" butt" stroke=" none" stroke-dasharray=" none" stroke-linejoin=" miter" stroke-miterlimit="10" fill="#ffffff" fill-rule=" nonzero" id="svg_2"/>
   <path d="m38.652,17.61c-0.292,0 -0.573,-0.127 -0.765,-0.356c-0.239,-0.284 -0.301,-0.677 -0.161,-1.021l6.348,-15.61c0.153,-0.376 0.519,-0.623 0.926,-0.623s0.773,0.247 0.926,0.623l6.349,15.61c0.14,0.344 0.077,0.737 -0.162,1.021c-0.238,0.284 -0.616,0.414 -0.978,0.333c-4.045,-0.881 -8.228,-0.881 -12.271,0c-0.07,0.016 -0.141,0.023 -0.212,0.023z" stroke-linecap=" butt" stroke=" none" stroke-dasharray=" none" stroke-linejoin=" miter" stroke-miterlimit="10" fill="#ffffff" fill-rule=" nonzero" id="svg_3"/>
   <path d="m45,90c-0.407,0 -0.773,-0.246 -0.926,-0.623l-6.348,-15.61c-0.14,-0.344 -0.078,-0.737 0.161,-1.021c0.239,-0.284 0.615,-0.412 0.978,-0.333c4.043,0.882 8.226,0.882 12.271,0c0.363,-0.08 0.74,0.05 0.978,0.333c0.239,0.283 0.302,0.677 0.162,1.021l-6.349,15.61c-0.154,0.377 -0.52,0.623 -0.927,0.623z" stroke-linecap=" butt" stroke=" none" stroke-dasharray=" none" stroke-linejoin=" miter" stroke-miterlimit="10" fill="#ffffff" fill-rule=" nonzero" id="svg_4"/>
   <path d="m16.61,52.349c-0.127,0 -0.255,-0.024 -0.377,-0.073l-15.61,-6.349c-0.376,-0.154 -0.623,-0.52 -0.623,-0.927s0.247,-0.773 0.624,-0.926l15.61,-6.348c0.343,-0.14 0.737,-0.078 1.021,0.161c0.284,0.239 0.412,0.616 0.333,0.978c-0.441,2.021 -0.665,4.086 -0.665,6.135c0,2.049 0.224,4.113 0.665,6.136c0.079,0.362 -0.049,0.739 -0.333,0.978c-0.184,0.155 -0.413,0.235 -0.645,0.235z" stroke-linecap=" butt" stroke=" none" stroke-dasharray=" none" stroke-linejoin=" miter" stroke-miterlimit="10" fill="#ffffff" fill-rule=" nonzero" id="svg_5"/>
   <path d="m73.39,52.349c-0.231,0 -0.461,-0.08 -0.644,-0.235c-0.284,-0.238 -0.412,-0.615 -0.333,-0.978c0.44,-2.022 0.664,-4.087 0.664,-6.136c0,-2.049 -0.224,-4.114 -0.664,-6.135c-0.079,-0.362 0.049,-0.739 0.333,-0.978c0.283,-0.239 0.676,-0.301 1.021,-0.161l15.61,6.348c0.377,0.153 0.623,0.519 0.623,0.926s-0.246,0.773 -0.623,0.926l-15.61,6.349c-0.122,0.049 -0.25,0.074 -0.377,0.074z" stroke-linecap=" butt" stroke=" none" stroke-dasharray=" none" stroke-linejoin=" miter" stroke-miterlimit="10" fill="#ffffff" fill-rule=" nonzero" id="svg_6"/>
   <path d="m20.437,30.415c-0.028,0 -0.057,-0.001 -0.085,-0.004c-0.37,-0.032 -0.692,-0.266 -0.836,-0.607l-6.549,-15.527c-0.158,-0.375 -0.073,-0.808 0.214,-1.096c0.288,-0.288 0.722,-0.371 1.096,-0.214l15.527,6.549c0.342,0.144 0.576,0.466 0.607,0.835c0.032,0.37 -0.144,0.727 -0.456,0.927c-1.743,1.119 -3.36,2.42 -4.809,3.868c-1.448,1.449 -2.75,3.066 -3.868,4.809c-0.185,0.288 -0.503,0.46 -0.841,0.46z" stroke-linecap=" butt" stroke=" none" stroke-dasharray=" none" stroke-linejoin=" miter" stroke-miterlimit="10" fill="#ffffff" fill-rule=" nonzero" id="svg_7"/>
   <path d="m76.112,77.112c-0.131,0 -0.263,-0.025 -0.389,-0.078l-15.526,-6.549c-0.342,-0.145 -0.576,-0.467 -0.607,-0.836c-0.032,-0.37 0.144,-0.727 0.456,-0.928c1.745,-1.121 3.363,-2.423 4.808,-3.868l0,0c1.445,-1.444 2.747,-3.063 3.868,-4.808c0.201,-0.312 0.553,-0.489 0.928,-0.456c0.369,0.031 0.691,0.266 0.836,0.607l6.549,15.526c0.157,0.375 0.073,0.809 -0.215,1.096c-0.192,0.193 -0.448,0.294 -0.708,0.294z" stroke-linecap=" butt" stroke=" none" stroke-dasharray=" none" stroke-linejoin=" miter" stroke-miterlimit="10" fill="#ffffff" fill-rule=" nonzero" id="svg_8"/>
   <path d="m69.563,30.414c-0.339,0 -0.656,-0.171 -0.842,-0.459c-1.121,-1.746 -2.423,-3.363 -3.868,-4.809l0,0c-1.447,-1.447 -3.065,-2.749 -4.808,-3.868c-0.313,-0.2 -0.488,-0.557 -0.456,-0.927c0.031,-0.37 0.266,-0.691 0.607,-0.835l15.526,-6.549c0.373,-0.158 0.808,-0.074 1.096,0.214c0.288,0.288 0.372,0.721 0.215,1.096l-6.549,15.527c-0.145,0.342 -0.467,0.576 -0.836,0.607c-0.028,0.002 -0.056,0.003 -0.085,0.003z" stroke-linecap=" butt" stroke=" none" stroke-dasharray=" none" stroke-linejoin=" miter" stroke-miterlimit="10" fill="#ffffff" fill-rule=" nonzero" id="svg_9"/>
   <path d="m13.887,77.112c-0.26,0 -0.516,-0.102 -0.707,-0.293c-0.288,-0.288 -0.373,-0.721 -0.214,-1.096l6.549,-15.526c0.144,-0.342 0.466,-0.576 0.835,-0.607c0.37,-0.043 0.727,0.144 0.927,0.456c1.119,1.742 2.421,3.36 3.868,4.808l0,0c1.446,1.446 3.063,2.747 4.809,3.868c0.312,0.201 0.488,0.558 0.456,0.928c-0.032,0.369 -0.266,0.691 -0.607,0.836l-15.527,6.549c-0.126,0.052 -0.257,0.077 -0.389,0.077z" stroke-linecap=" butt" stroke=" none" stroke-dasharray=" none" stroke-linejoin=" miter" stroke-miterlimit="10" fill="#ffffff" fill-rule=" nonzero" id="svg_10"/>
  </g>
 </g>

</svg>