<?xml version="1.0" encoding="utf-8"?>
<!-- Generator: Adobe Illustrator 19.0.0, SVG Export Plug-In . SVG Version: 6.00 Build 0)  -->
<svg version="1.1" id="Ñëîé_1" xmlns="http://www.w3.org/2000/svg" xmlns:xlink="http://www.w3.org/1999/xlink" x="0px" y="0px"
	 viewBox="0 0 600 450" style="enable-background:new 0 0 600 450;" xml:space="preserve">
<style type="text/css">
	.st0{fill:url(#SVGID_1_);}
	.st1{fill:#3A9BD5;}
	.st2{fill:url(#SVGID_2_);}
	.st3{fill:url(#SVGID_3_);}
	.st4{fill:url(#SVGID_4_);}
	.st5{fill:url(#SVGID_5_);}
	.st6{fill:url(#SVGID_6_);}
	.st7{fill:#6EE8FC;}
	.st8{opacity:0.11;}
	.st9{clip-path:url(#SVGID_8_);}
	.st10{fill:url(#SVGID_9_);}
	.st11{fill:#6EE1F8;}
	.st12{opacity:0.5;}
	.st13{fill:#FFFFFF;}
</style>
<g>
	<g>
		<g>
			<g>
				<g>
					<g>
						
							<linearGradient id="SVGID_1_" gradientUnits="userSpaceOnUse" x1="-5203.3965" y1="189.3575" x2="-5066.418" y2="189.3575" gradientTransform="matrix(-1 0 0 1 -4801.3818 0)">
							<stop  offset="0" style="stop-color:#7BDAFF"/>
							<stop  offset="1" style="stop-color:#59BDEF"/>
						</linearGradient>
						<path class="st0" d="M265.1,197.9l14.8-88l-1.2-0.5l1.8-1l0,0c0.3-0.2,0.8-0.2,1.4,0.1l118.6,68.5c1,0.6,1.7,2,1.5,3l-15,88.7
							c-0.1,0.5-0.3,0.8-0.6,0.9l0,0l-1.8,1l-0.3-1.6l0.1,0l-117.9-68C265.6,200.3,264.9,198.9,265.1,197.9z"/>
						<path class="st1" d="M399.8,179.3l1.9-0.9c0.2,0.5,0.3,1,0.3,1.5l-15,88.7c-0.1,0.5-0.3,0.8-0.6,0.9l0,0l-1.8,1l-0.3-1.6
							l0.1,0l-6-3.4L399.8,179.3z"/>
						
							<linearGradient id="SVGID_2_" gradientUnits="userSpaceOnUse" x1="-5201.5361" y1="189.9553" x2="-5064.5576" y2="189.9553" gradientTransform="matrix(-1 0 0 1 -4801.3818 0)">
							<stop  offset="0" style="stop-color:#2573BA"/>
							<stop  offset="1" style="stop-color:#0063AD"/>
						</linearGradient>
						<path class="st2" d="M264.7,202l118.6,68.5c0.9,0.5,1.7,0.2,1.9-0.7l15-88.7c0.2-1-0.6-2.4-1.5-3L280,109.5
							c-0.9-0.5-1.7-0.2-1.9,0.7l-15,88.7C263,200,263.8,201.4,264.7,202z"/>
						
							<linearGradient id="SVGID_3_" gradientUnits="userSpaceOnUse" x1="-5201.5361" y1="189.9553" x2="-5064.5576" y2="189.9553" gradientTransform="matrix(-1 0 0 1 -4801.3818 0)">
							<stop  offset="0" style="stop-color:#2C75E4"/>
							<stop  offset="4.482364e-002" style="stop-color:#3461D5"/>
							<stop  offset="0.1323" style="stop-color:#4140BB"/>
							<stop  offset="0.2225" style="stop-color:#4B27A7"/>
							<stop  offset="0.3154" style="stop-color:#521499"/>
							<stop  offset="0.4127" style="stop-color:#570A91"/>
							<stop  offset="0.5215" style="stop-color:#58068E"/>
							<stop  offset="0.6592" style="stop-color:#5B078F"/>
							<stop  offset="0.7607" style="stop-color:#640A92"/>
							<stop  offset="0.8506" style="stop-color:#740F98"/>
							<stop  offset="0.9332" style="stop-color:#8B17A0"/>
							<stop  offset="1" style="stop-color:#A31FA9"/>
						</linearGradient>
						<path class="st3" d="M264.7,202l118.6,68.5c0.9,0.5,1.7,0.2,1.9-0.7l15-88.7c0.2-1-0.6-2.4-1.5-3L280,109.5
							c-0.9-0.5-1.7-0.2-1.9,0.7l-15,88.7C263,200,263.8,201.4,264.7,202z"/>
						
							<linearGradient id="SVGID_4_" gradientUnits="userSpaceOnUse" x1="-5198.7222" y1="189.972" x2="-5067.5054" y2="189.972" gradientTransform="matrix(-1 0 0 1 -4801.3818 0)">
							<stop  offset="0" style="stop-color:#7BDAFF"/>
							<stop  offset="1" style="stop-color:#59BDEF"/>
						</linearGradient>
						<polygon class="st4" points="280.2,114.4 397.3,182 383.2,265.6 266.1,198 						"/>
					</g>
					<g>
						
							<linearGradient id="SVGID_5_" gradientUnits="userSpaceOnUse" x1="-5185.0444" y1="263.975" x2="-4991.5859" y2="263.975" gradientTransform="matrix(-1 0 0 1 -4801.3818 0)">
							<stop  offset="0" style="stop-color:#2C75E4"/>
							<stop  offset="4.482364e-002" style="stop-color:#3461D5"/>
							<stop  offset="0.1323" style="stop-color:#4140BB"/>
							<stop  offset="0.2225" style="stop-color:#4B27A7"/>
							<stop  offset="0.3154" style="stop-color:#521499"/>
							<stop  offset="0.4127" style="stop-color:#570A91"/>
							<stop  offset="0.5215" style="stop-color:#58068E"/>
							<stop  offset="0.6592" style="stop-color:#5B078F"/>
							<stop  offset="0.7607" style="stop-color:#640A92"/>
							<stop  offset="0.8506" style="stop-color:#740F98"/>
							<stop  offset="0.9332" style="stop-color:#8B17A0"/>
							<stop  offset="1" style="stop-color:#A31FA9"/>
						</linearGradient>
						<path class="st5" d="M190.2,244l6.5,3.4l64.9-37.5c1.1-0.6,3-0.5,4.2,0.2l111.9,64.6c1.1-0.6,6-2.9,6-2.9l-2.4,6.2
							c0,0,0,0,0,0c-0.1,0.3-0.3,0.5-0.7,0.7l-68.3,39.5c-1.1,0.6-3,0.5-4.2-0.2l-114.5-66.1c-0.5-0.3-0.8-0.7-1-1l0,0L190.2,244z"
							/>
						
							<radialGradient id="SVGID_6_" cx="-5190.9712" cy="273.191" r="205.3948" gradientTransform="matrix(-1 0 0 1 -4801.3818 0)" gradientUnits="userSpaceOnUse">
							<stop  offset="0" style="stop-color:#2979E4"/>
							<stop  offset="0.2449" style="stop-color:#4958CD"/>
							<stop  offset="0.5716" style="stop-color:#6E33B2"/>
							<stop  offset="0.8349" style="stop-color:#851BA1"/>
							<stop  offset="1" style="stop-color:#8D139B"/>
						</radialGradient>
						<path class="st6" d="M191.2,245l117.4,67.8c1.3,0.7,3.2,0.8,4.3,0.2l70-40.4c1.1-0.6,1-1.8-0.3-2.5l-117.4-67.8
							c-1.3-0.7-3.2-0.8-4.3-0.2l-70,40.4C189.8,243.2,189.9,244.3,191.2,245z"/>
						<path class="st7" d="M191.2,243.9l117.4,67.8c1.3,0.7,3.2,0.8,4.3,0.2l70-40.4c0.3-0.2,0.5-0.3,0.6-0.5
							c0.3,0.6,0.2,1.2-0.6,1.7l-70,40.4c-1.1,0.6-3.1,0.6-4.3-0.2L191.2,245c-1-0.6-1.3-1.4-0.9-2
							C190.5,243.3,190.8,243.6,191.2,243.9z"/>
					</g>
				</g>
				<g class="st8">
					<defs>
						<polygon id="SVGID_7_" class="st8" points="281.6,115.2 397.3,182 383.2,265.6 267.5,198.8 						"/>
					</defs>
					<clipPath id="SVGID_8_">
						<use xlink:href="#SVGID_7_"  style="overflow:visible;"/>
					</clipPath>
					<g class="st9">
						
							<linearGradient id="SVGID_9_" gradientUnits="userSpaceOnUse" x1="-5208.7134" y1="216.1095" x2="-4993.2261" y2="216.1095" gradientTransform="matrix(-1 0 0 1 -4801.3818 0)">
							<stop  offset="0" style="stop-color:#C0BFF6"/>
							<stop  offset="0.2938" style="stop-color:#C5C4F7"/>
							<stop  offset="0.6399" style="stop-color:#D3D2F9"/>
							<stop  offset="1" style="stop-color:#E9E9FD"/>
						</linearGradient>
						<path class="st10" d="M265.4,202.2l130.7,75.4c1.4,0.8,3.6,0.9,4.8,0.2l78-45c1.2-0.7,1.1-2-0.3-2.8l-130.7-75.4
							c-1.4-0.8-3.6-0.9-4.8-0.2l-78,45C263.9,200.1,264,201.4,265.4,202.2z"/>
						<g>
							<g>
								<g>
									<polygon class="st11" points="400.6,250.3 409,255.2 405.3,257.3 396.9,252.5 									"/>
								</g>
								<g>
									<polygon class="st11" points="393.2,257.5 399.1,260.9 395.3,263.1 389.5,259.7 									"/>
								</g>
							</g>
						</g>
					</g>
				</g>
			</g>
		</g>
		<g>
			<g>
				<polygon class="st11" points="262.4,217.5 347.2,266.4 350.9,264.3 266.2,215.3 				"/>
			</g>
			<g>
				<polygon class="st11" points="253.2,222.9 332.7,268.7 336.4,266.6 257,220.7 				"/>
			</g>
			<g>
				<polygon class="st11" points="247.2,226.3 340.7,280.3 344.5,278.2 251,224.2 				"/>
			</g>
			<g>
				<polygon class="st11" points="241.2,229.8 334.7,283.8 338.5,281.6 244.9,227.6 				"/>
			</g>
			<g>
				<polygon class="st11" points="235.2,233.3 328.7,287.3 332.5,285.1 238.9,231.1 				"/>
			</g>
			<g>
				<polygon class="st11" points="352.3,269.4 356,271.6 359.8,269.4 356,267.2 				"/>
			</g>
			<g>
				<polygon class="st11" points="339,272.4 346.8,276.9 350.6,274.7 342.8,270.2 				"/>
			</g>
		</g>
	</g>
	<g class="st12">
		<polygon class="st13" points="289.9,139.3 297.6,143.8 297.9,142.5 290.1,138 		"/>
		<polygon class="st13" points="298.9,144.5 303.1,147 303.3,145.6 299.1,143.2 		"/>
		<polygon class="st13" points="309.7,150.8 312.7,152.5 312.9,151.2 309.9,149.4 		"/>
		<polygon class="st13" points="307.4,149.5 308.5,150.1 308.7,148.7 307.7,148.1 		"/>
		<polygon class="st13" points="304.4,147.7 306.3,148.8 306.5,147.4 304.6,146.4 		"/>
		<polygon class="st13" points="296,149.6 299.1,151.4 299.3,150 296.3,148.3 		"/>
		<polygon class="st13" points="288.9,145.5 294.8,148.9 295.1,147.6 289.1,144.1 		"/>
		<g>
			<polygon class="st13" points="297.4,167.3 303.4,170.7 303.6,169.4 297.7,165.9 			"/>
			<polygon class="st13" points="294.4,165.5 296.3,166.6 296.5,165.2 294.6,164.2 			"/>
		</g>
		<polygon class="st13" points="298.4,161.1 304.4,164.6 304.6,163.2 298.7,159.8 		"/>
		<polygon class="st13" points="295.4,159.3 297.3,160.4 297.5,159.1 295.6,158 		"/>
		<polygon class="st13" points="293,193.8 281.8,187.3 281.5,188.7 292.8,195.2 		"/>
		<polygon class="st13" points="297,196.1 294.2,194.5 294,195.8 296.8,197.5 		"/>
		<polygon class="st13" points="316.8,197.4 305.5,190.9 305.3,192.2 316.6,198.8 		"/>
		<polygon class="st13" points="320.8,199.7 318,198.1 317.8,199.4 320.5,201.1 		"/>
		<polygon class="st13" points="285.3,186 282.3,184.2 282.1,185.6 285.1,187.3 		"/>
		<polygon class="st13" points="303.9,190 300.9,188.2 300.6,189.6 303.7,191.3 		"/>
		<polygon class="st13" points="292.5,190.1 286.5,186.7 286.3,188 292.3,191.5 		"/>
		<polygon class="st13" points="295.6,191.9 293.7,190.8 293.5,192.2 295.3,193.3 		"/>
		<polygon class="st13" points="302.8,196.1 296.8,192.6 296.6,194 302.6,197.4 		"/>
		<polygon class="st13" points="305.9,197.9 304,196.8 303.7,198.1 305.6,199.2 		"/>
		<polygon class="st13" points="303.4,193.1 300.3,191.3 300.1,192.6 303.2,194.4 		"/>
		<polygon class="st13" points="310.5,197.2 304.6,193.7 304.3,195.1 310.3,198.5 		"/>
		<polygon class="st13" points="313.6,199 311.7,197.9 311.5,199.2 313.4,200.3 		"/>
		<polygon class="st13" points="289,184.8 282.8,181.2 282.6,182.5 288.8,186.1 		"/>
		<polygon class="st13" points="294.7,188.1 290.2,185.5 290,186.8 294.5,189.4 		"/>
		<polygon class="st13" points="299,190.5 295.9,188.8 295.7,190.1 298.8,191.9 		"/>
		<polygon class="st13" points="328.6,204.2 322.3,200.6 322.1,201.9 328.4,205.6 		"/>
		<polygon class="st13" points="334.3,207.5 329.8,204.9 329.5,206.2 334.1,208.8 		"/>
		<polygon class="st13" points="338.5,209.9 335.5,208.2 335.2,209.5 338.3,211.3 		"/>
		<polygon class="st13" points="326.1,163.6 332.4,167.2 332.6,165.9 326.4,162.3 		"/>
		<polygon class="st13" points="320.4,160.3 325,163 325.2,161.6 320.7,159 		"/>
		<polygon class="st13" points="316.2,157.9 319.3,159.7 319.5,158.3 316.4,156.6 		"/>
		<polygon class="st13" points="324.1,159.1 330.3,162.7 330.5,161.3 324.3,157.7 		"/>
		<polygon class="st13" points="318.4,155.8 322.9,158.4 323.1,157 318.6,154.4 		"/>
		<polygon class="st13" points="314.1,153.3 317.2,155.1 317.4,153.7 314.4,152 		"/>
		<polygon class="st13" points="298.8,164.7 301,166 301.2,164.6 299.1,163.4 		"/>
		<polygon class="st13" points="294.9,162.4 297.7,164.1 297.9,162.7 295.1,161.1 		"/>
		<polygon class="st13" points="289.6,181.7 283.4,178.1 283.1,179.5 289.4,183.1 		"/>
		<polygon class="st13" points="295.3,185 290.8,182.4 290.6,183.8 295.1,186.4 		"/>
		<polygon class="st13" points="299.5,187.5 296.5,185.7 296.3,187 299.3,188.8 		"/>
		<polygon class="st13" points="286,176.3 283.9,175 283.6,176.4 285.8,177.6 		"/>
		<polygon class="st13" points="290,178.6 287.2,176.9 286.9,178.3 289.7,179.9 		"/>
		<polygon class="st13" points="295.6,181.8 291.1,179.2 290.9,180.6 295.4,183.2 		"/>
		<polygon class="st13" points="301.7,156.3 303.8,157.5 304.1,156.1 301.9,154.9 		"/>
		<polygon class="st13" points="297.7,154 300.5,155.6 300.8,154.2 298,152.6 		"/>
		<polygon class="st13" points="292.1,150.7 296.6,153.3 296.8,151.9 292.3,149.4 		"/>
		<polygon class="st13" points="304.9,161.3 309.4,163.8 309.6,162.5 305.2,159.9 		"/>
		<polygon class="st13" points="297.6,157.3 303.6,160.7 303.9,159.4 297.8,155.9 		"/>
		<polygon class="st13" points="294.5,155.5 296.4,156.6 296.6,155.2 294.7,154.1 		"/>
		<polygon class="st13" points="291.6,153.8 293.4,154.9 293.7,153.5 291.8,152.4 		"/>
		<g>
			<polygon class="st13" points="292,171.1 297.9,174.6 298.2,173.2 292.2,169.8 			"/>
			<polygon class="st13" points="288.9,169.3 290.8,170.4 291,169.1 289.1,168 			"/>
			<polygon class="st13" points="292.4,174.7 294.5,175.9 294.7,174.6 292.6,173.4 			"/>
			<polygon class="st13" points="299.8,172.3 301.9,173.5 302.2,172.1 300,170.9 			"/>
			<polygon class="st13" points="302.8,174 307.9,176.9 308.1,175.6 303.1,172.7 			"/>
			<polygon class="st13" points="308.8,177.4 311.8,179.2 312,177.8 309,176.1 			"/>
			<polygon class="st13" points="288.4,172.4 291.2,174 291.4,172.7 288.6,171.1 			"/>
			<g>
				<polygon class="st13" points="288.1,175.6 290.3,176.8 290.5,175.5 288.4,174.2 				"/>
				<polygon class="st13" points="284.2,173.3 287,174.9 287.2,173.6 284.4,172 				"/>
			</g>
			<polygon class="st13" points="296.8,170.5 298.7,171.6 298.9,170.3 297,169.2 			"/>
			<polygon class="st13" points="293.8,168.8 295.7,169.9 295.9,168.5 294,167.5 			"/>
		</g>
		<polygon class="st13" points="308.4,153.4 314.8,157.1 315,155.7 308.6,152 		"/>
		<polygon class="st13" points="301.1,149.2 307.2,152.7 307.4,151.3 301.3,147.8 		"/>
		<polygon class="st13" points="298,147.4 299.9,148.5 300.2,147.2 298.3,146.1 		"/>
		<polygon class="st13" points="295.1,145.7 297,146.8 297.2,145.4 295.3,144.4 		"/>
		<polygon class="st13" points="293.5,144.8 289.4,142.4 289.6,141.1 293.7,143.4 		"/>
	</g>
</g>
</svg>
