<?xml version="1.0" encoding="utf-8"?>
<!-- Generator: Adobe Illustrator 19.0.0, SVG Export Plug-In . SVG Version: 6.00 Build 0)  -->
<svg version="1.1" id="Layer_1" xmlns="http://www.w3.org/2000/svg" xmlns:xlink="http://www.w3.org/1999/xlink" x="0px" y="0px"
	 viewBox="-584 291 750 500" style="enable-background:new -584 291 750 500;" xml:space="preserve">
<style type="text/css">
	.st0{display:none;}
	.st1{display:inline;fill:url(#SVGID_1_);}
	.st2{fill:#0A031F;}
	.st3{display:inline;fill:url(#SVGID_2_);}
	.st4{display:inline;fill:url(#SVGID_3_);}
	.st5{display:inline;}
	.st6{opacity:0.1;fill:#FFFFFF;enable-background:new    ;}
	.st7{clip-path:url(#SVGID_5_);}
	.st8{opacity:0.32;fill:#EEE8C1;enable-background:new    ;}
	.st9{clip-path:url(#SVGID_7_);}
	.st10{fill:#53307D;}
	.st11{display:inline;fill:url(#SVGID_8_);}
	.st12{fill:url(#SVGID_9_);}
	.st13{opacity:0.15;fill:#272763;enable-background:new    ;}
	.st14{fill:url(#SVGID_10_);}
	.st15{opacity:0.33;fill:#272763;enable-background:new    ;}
	.st16{opacity:0.32;fill:#FFFFFF;enable-background:new    ;}
	.st17{fill:url(#SVGID_11_);}
	.st18{display:inline;opacity:0.9;fill:url(#SVGID_12_);enable-background:new    ;}
	.st19{display:inline;opacity:0.47;fill:url(#SVGID_13_);enable-background:new    ;}
</style>
<g id="BACKGROUND" class="st0">
	
		<linearGradient id="SVGID_1_" gradientUnits="userSpaceOnUse" x1="-793" y1="790.5925" x2="-793" y2="550.6" gradientTransform="matrix(1 0 0 1 0 4)">
		<stop  offset="0" style="stop-color:#C3CFBB"/>
		<stop  offset="0.1754" style="stop-color:#BFC6BF"/>
		<stop  offset="0.4616" style="stop-color:#B4AECB"/>
		<stop  offset="0.8207" style="stop-color:#A286DD"/>
		<stop  offset="1" style="stop-color:#9870E8"/>
	</linearGradient>
	<rect x="-1168" y="582" class="st1" width="750" height="500"/>
</g>
<g id="Layer_4">
	<g>
		<path class="st2" d="M-246.9,746.1c0,0-7.4-21-11.9-27.3s-13.5-11.4-13.5-11.4s-11.7,1.3-15.3,0c-3.7-1.3-3.7-9.4-6-10.8
			c-2.3-1.5-4.3-17.5-9.7-18.5c-0.7,5.3,4.3,12.1-2,15.7c-6.3,3.6-9.3,8-9.3,10.8s-3,7.5-3,7.5s-1.6-4.6-5-5.6s-4.9,0.8-4.9,0.8
			l-1-2.9c0,0-4.7,2.3-6.5,0.2s-3.4-3.8-3.4-3.8s-3.7,2.7-4.9,0.1c-1.1-2.6-1.9-8.3-3.4-9.2c-1.5-1,0-13.5,0-13.5s-4,7.2-4.4,12.1
			c-0.3,4.9-2.8,7.1-4.9,10.7c-2.1,3.6-0.8,7.1-2.3,11.2c-1.5,4.1-5.3,6.1-6,3.1c-0.6-2.9,1.1-4.9-2.6-4.2c-3.7,0.6-6,1.9-6,1.9
			s1.5-3.3-1.6-5.7s-2.6,1.5-5.3-2.9c-2.8-4.4-7.4,0.6-10.2-2.2c-2.8-2.8-4.2-7.6-4.2-7.6s0-5.1-1.1-7.7c-1.1-2.6-4.2-1.9-4.2-1.9
			s-0.3-5.5-3.6-9.4c-3.2-3.9-1.8-5.7-2.8-7.9c-1-2.3-3.7-3.9-4.2-2.6c-0.5,1.3-0.6,7.4-3.6,10.5c-2.9,3.1-5.7-2.4-8.1,1.6
			s-4.5,6.8-4.5,6.8s-6.5-2.6-7.6-4.4c-1.1-1.8-1-4.4-2.4-5.2c-1.5-0.8-2.4-13.9-4.2-14.6c-1.8-0.6,0,4.1-1,5.2s-7.8-0.7-7.6,6.6
			c0.2,7.3-4.5-4-4.5-4l-2.8-6c0,0-1.9-14.2-3.2-12.1s-1.8,10.8-1.8,10.8s-3.4,1.9-4,6.6c-0.6,4.7-1.1,8.1-1.6,8.7
			c-0.5,0.6-2.4-3.1-3.6-3.6c-1.1-0.5-1.5-19.9-2.4-19.9c-1,0-2.9,6-2.9,7.3s-0.5,8.6-2.6,8.7c-2.1,0.1-4.5-0.6-5.7,0.5
			s-4-12.5-6.1-8.7c-2.1,3.7-2.6,5.3-2.6,5.3l-3.2-5.3c0,0-2.1-19.7-4.4-18.6c-2.3,1.1-1.9,7.6-1.9,8.3c0,0.6,1.1,2.6-1.3,5.5
			c-2.4,2.9-2.9,6.1-3.1,7.3c-0.2,1.1-1.8,3.4-1.8,3.4l-3.7-8.3c0,0-2.8-11.7-3.1-12.3s-2.6-0.5-1.9,5.5c0.6,6,0.2,8.7-1.3,9.7
			s-6.6-4.9-6.6-4.9l-3.4-6.1c0,0-2.4,0.2-2.1,6c0.3,5.8-0.8,9.2-1.1,10.2s-4.5-12-4.5-12.5s-4-5.7-4.4-6.5
			c-0.3-0.8,2.4-16.2-0.8-14.2c-3.2,1.9-3.2,8.4-2.9,9.9s1.5,9.5-1.1,10.8s-3.9,4-4,5.3s-3.2-8.6-3.2-8.6s-5.2,0-6.5-2.3
			s-2.9-9.7-2.9-9.7s-1.1-8.1-2.8-3.6s0.2,8.3-1.1,10.4c-1.3,2.1-4.5,1.9-4.5,1.9l-4-5.5l-9.5-9.7v114.8H-246.9z"/>
		<path class="st2" d="M182.7,675.4c0,0-12.8-8-14-12.3s0.8-8.3,0-12.8s-0.4-10.5-0.4-10.5l-2.6-13c0,0-0.3,4.5-2.3,9.8
			s-4.3,11.3-3.3,14.5s-1.3,8-1.3,8s1,10-1.3,8s-3.8-7.3-3.8-7.3s1.8,7.8-1.5,6s-5-7-5-7s-2.8,5-4,4s-6,0-7.5-3.3s-4-12.3-7-14.8
			s-4-9-5.8-9s-2.3,11-3.5,13.3s-3,7.8-3,7.8s-2-6.8-3.3-10.5s-2-5.3-3-9.8s-2.8-6.5-2.8-6.5s-1.5,4-1.8,7s0,11.5,0,11.5l-0.1,5.5
			c0,0-7.9-6-8.1-12.5s-3-7.5-3-7.5s-2.8-4-4.3-5.8s-0.8-16.3-2.3-18.3s-3.5-11.5-3.5-11.5s-2,10.5-2.5,16.5s-2,14-2,14l-3.8,12.8
			l-4,4.3c0,0-0.3-3.3-2.3-12.3s-2.2-11.6-2.2-12.3s-2.3-20-4-22.8c0,0-0.8,1-2,4.3s-3.3,7.8-3.3,9s-1.3,10.3-1.3,10.3l-2,8
			c0,0-3-4.5-3.5-8s-2.3-10-2.5-10.8s-2-22.3-2-22.3s-5.3,8.8-6.8,18.8s-2,6.3-2.8,13.8S35.9,640,35.9,640s-4-10.5-4.8-11.8
			s0-13.3,0-13.3s0.8-16.5-0.3-18.8c-1.2-2.3-2.2,4-2.2,4s-0.8,10.5-4.5,15.3s-3,14.3-3,14.3l-2.7,10.5v6.5c0,0-1.5-11-3.5-15.5
			s-2-15.8-2-15.8s-2.3,2.5-2.8,7s0,12,0,12s-4,5.8-4,7.8c0,0-0.8-9-2-9.9s-1,3.6-2.3,3.6s-6-14.5-6-14.5l-1.3-5c0,0,0.5,0.5,0,7.3
			s0,12.8,0,12.8l-4-2.8c0,0-0.8-10.8-2-11.5s-1.3,6.8-1.8,8s-3.5,2.3-3.8,10.5s-1.8,12-1.8,12s-4.5-4-5.3,2.5s-7,3.5-7,3.5
			s-2.8,6.3-5,3.8s-7.5,5.8-9.3,2.8s0.5-5.5,0-9.5s-1.5-6.3-2-9s0-12.5,0-12.5s-3.5-1.8-3.5,4s0.3,9.8-2,14.3s-3.8,7.5-3.8,7.5
			s-0.3-4.3,0-9s1.3-10.3-0.1-10.3c-1.4,0-1.4,1-2.1,5.8s-3.8,14.3-3.8,14.3s-1-4.8-1.5-9s0-6.8,0-6.8s-3.8,0.3-3.8,3.3
			s-2.3,11.3-2.3,11.3l-1.5,5.5c0,0-3-5.5-2.3-9.3s-0.1-14.3-0.1-14.3s-3.1,2-3.1,6s0.8,8.5,0,10s-3,3.8-3,5.3s0,5.5,0,5.5
			s-7.8,3.8-7.8,4.5s-1.8,4.8-1.8,4.8s-6.8-0.8-8-3.5s-4.8-11.8-4.8-11.8s-0.3,2.8-1.3,5.5s-0.5,5.5-1.8,9.8s-2,5-3,3.8
			s-4-4.3-3-8.5s-0.3-1.8-1.3-8.8s-0.4-12.1-0.4-12.1s-3.3,3.8-4.3,10s2.3,8,0,11.8s-4.3,5.6-4.3,7.8s-1,5-1.5,3.7s-1-7.8-3.3-10
			s-1,4.5-1.8,5.3s-4,3.8-4,3.8s1-4.8,0-8s0.3-10,0-11.3s-2.4-5.8-2.4-5.8s-2.7,5.8-3.5,8.5s-3.6,0-3.5,4.8s-1.4,12-2.4,11.8
			s-2.1-6-2-7.3c0-1.3,1.7-2.8,0-8.5c-1.7-5.8-3.8-9.3-3.8-10.3s0,3,0,3.8s-0.5,10-0.8,10.8s-1.1,0.5-2.4,8.8s-3,8.8-3.5,8.8
			s-1.2-13.5-1.2-13.5l-3-6.8c0,0-1.6,13.5-4.2,13.5s-5.6-5.3-5.7-6.3s-6.1-7.3-6.6-12s-1.3-7-1.3-7s-4.9,8.5-4.5,13.5
			s-2.1,13.8-2.1,13.8s-6.2-4.8-8.2-11.5c-2-6.8-5.2-15.3-5.2-15.3s-4.8,14.8-3.5,17.3s-8.2,7-7.2,10s-8.6,4.3-8.6,4.3l-5.4-6.5
			l-4.3-12c0,0-3.4,10.5-4.8,13.8s-4.4,9.2-4.4,9.2l-7.1-10l-4.3-8.3c0,0-3.2,10.3-2.7,12.5c0.5,2.3-2.5,4.7-2.5,5.5
			s-3.5-1.1-3.5-1.1v-10.1l-3.3-9.3c0,0-2.3,8.5-1.9,9.3s-1.4,7-1.4,7l-6.8,3.1l-4.7,6.2c0,0-0.8-5.8-1.8-10.5s0-10.5,0-10.5
			s-4.5,4.6-3.3,13.4s0.5,13.4-1.3,15.4c-1.8,1.9-4.8-0.8-5.8,5.2s-5.8,9.8-6.8,10.5s-12.8,7.3-12.8,8s-11,10-11,10H179L182.7,675.4
			z"/>
	</g>
</g>
<g id="Layer_5" class="st0">
	
		<linearGradient id="SVGID_2_" gradientUnits="userSpaceOnUse" x1="-785.6" y1="1074.0034" x2="-785.6" y2="885.2943" gradientTransform="matrix(1 0 0 1 0 4)">
		<stop  offset="0.2014" style="stop-color:#3F2D7F"/>
		<stop  offset="0.4" style="stop-color:#352470"/>
		<stop  offset="0.7653" style="stop-color:#26185A"/>
		<stop  offset="1" style="stop-color:#201352"/>
	</linearGradient>
	<path class="st3" d="M-1174.5,1062.7c0,0,165.1-48.3,166.1-49s10,0.3,13,0s27.3-12,28.7-12.7c1.3-0.7,9,0.3,15,5s8.3-2,9.3-1
		s10.3,11.3,11,10c0.7-1.3,5.3,0.7,7.3,0s16.3-9.3,23.7-13c7.3-3.7,13.3-2.3,26.7-4c13.3-1.7,33-8.3,36.3-9.3s15.3,4.7,25.5,6.3
		c10.1,1.7,13.9-3,18.9-2.7c11,0.7,25-4,28.8-5.3c3.8-1.3,42.3-11.3,42.3-11.3l108.5-64l22.7-19.9c0,0,21.3,5.2,31.3,1.2
		s24.7,3.3,24.7,3.3s29.3,7.3,42,11.3s33.3,21.3,33.3,21.3l26.7,13h36v152h-777.8V1062.7z"/>
</g>
<g id="Layer_6" class="st0">
	
		<linearGradient id="SVGID_3_" gradientUnits="userSpaceOnUse" x1="-869.3" y1="1006" x2="-869.3" y2="883.9996" gradientTransform="matrix(1 0 0 1 0 4)">
		<stop  offset="0" style="stop-color:#5741A2"/>
		<stop  offset="0.6176" style="stop-color:#38267A"/>
		<stop  offset="1" style="stop-color:#281866"/>
	</linearGradient>
	<path class="st4" d="M-553.3,1046.3c0,0-96.8-33-110.4-37.8c-13.6-4.8-58-33.5-67.5-37.5s-35.7-4-35.7-4l-11.3-9.3l-21.7-5.3
		l-8.6-3.3l-21.8-20.7c0,0-21.2-1.3-33.8-4c-12.5-2.7-34.5-6.7-34.5-6.7L-944,897l-54.7-20.7l-38.7-4l-15.3,14.7
		c0,0-10.7,32.7-20,38c-9.3,5.3-32,17-32,17l-24.7,17.3h-20.6l-35.3,33.6v89.1h632V1046.3L-553.3,1046.3z"/>
	<g class="st5">
		<path class="st6" d="M-1094,942l36-15.7l28.7-34.5l30.7-15.5l-38.7-4l-15.4,14.7c0,0-10.7,32.7-20,38c-9.3,5.3-32,17-32,17
			l-24.7,17.3l11.3,0.3L-1094,942z"/>
	</g>
</g>
<g id="OBJECTS" class="st0">
	<g class="st5">
		<g>
			<g>
				<defs>
					<rect id="SVGID_4_" x="-1168" y="582" width="750" height="500"/>
				</defs>
				<clipPath id="SVGID_5_">
					<use xlink:href="#SVGID_4_"  style="overflow:visible;"/>
				</clipPath>
				<g class="st7">
					<path class="st8" d="M-583.3,571.7c0,0-30.7,18.7-44.7,21.3s-8,3.3-20,4.7c-12,1.3-12.7-2.7-26.7,0s-24,2-27.3,8.7
						s21.3,2.7,20,8.7s-19.3,4-24.7,7.3c-5.3,3.3,18.7,3.3-17.3,7.3s-28.7-8-51.3,6.7c-22.7,14.7-22,12-44.7,15.3s-42,4.7-28.7,13.3
						c13.3,8.7,71.3,7.3,75.3,12s-33.3,6.7-58,6c-24.7-0.7-39.3-8.4-70,0.1s-33.3,14.5-64,14.5s-38-1.3-90,4
						c-52,5.3-46.3-0.7-80.7,0c-34.2,0.7-38.4-0.6-38.4-0.6V575L-583.3,571.7z"/>
					<path class="st8" d="M-1190,661c0,0,44.6-4,62.1-3c17.4,1,36.9,7,58.4,9s66.7,2.5,70.8,9s10.7,11,26.7,13s15,10.3,31.5,14.9
						c16.5,4.6,45,10.6,45,10.6s-34,2-54,0s-24-3.5-40-1.5s-21-6.5-36-6s-15,3.3-26.5,8.4c-11.5,5.1-8.5,12.6-37,6.6
						s-33.5-1.5-54.5,0s-37,2-39.5,0S-1190,661-1190,661z"/>
					<path class="st8" d="M-873,719.5c0,0,15,3.9,39.5,4.7s50.5-1.8,70.5,0s46-3.7,63.5-4.7s43.5-1,46.5,0s21-0.8,21-0.8
						s-16.5-5.3-32.5-5.8s-29,0.5-39-3.5s-24.2-0.5-29.8,0c-5.7,0.5-22.2,6-38.7,4s-37-1.5-37-1.5L-873,719.5z"/>
					<path class="st8" d="M-621,701c0,0,17.5-8.2,41.5-7.1c24,1.1,36,6.2,47.5-0.1s16-8.3,30-9.3s17,4.5,32.5,5s51.5-3,51.5-3V737
						c0,0-23-5-39.5-6s-21.5-1.5-36-8s-12.5-3.5-34-6s-14,1.4-35-6.3S-612,697.5-621,701z"/>
					<path class="st8" d="M-560.5,644.5c0,0,26.5-7.5,35.5-12s16,0,26.5,2.5s19.5,5.6,30.5,2.5c11-3,19.5,1,26.5,2.5s29.5,1,29.5,1
						v13c0,0-43-2-54-3.5s-12,4.5-29.5-1.5s-15-10.4-31-6.7S-560.5,644.5-560.5,644.5z"/>
				</g>
			</g>
		</g>
		<g>
			<g>
				<defs>
					<rect id="SVGID_6_" x="-1168" y="582" width="750" height="500"/>
				</defs>
				<clipPath id="SVGID_7_">
					<use xlink:href="#SVGID_6_"  style="overflow:visible;"/>
				</clipPath>
				<g class="st9">
					<path class="st10" d="M-682.1,705.8c0,0-4-1.8-5.9,0c0,0,3.7-0.5,5.9,2.2c2.2-2.7,5.9-2.2,5.9-2.2
						C-678.1,704-682.1,705.8-682.1,705.8z"/>
					<path class="st10" d="M-829.1,762.7c0,0-5-2.2-7.4,0c0,0,4.7-0.7,7.4,2.8c2.8-3.5,7.4-2.8,7.4-2.8
						C-824.1,760.5-829.1,762.7-829.1,762.7z"/>
					<path class="st10" d="M-618.1,679.6c0,0-6.7-3-9.9,0c0,0,6.2-0.9,9.9,3.7c3.7-4.6,9.9-3.7,9.9-3.7
						C-611.5,676.6-618.1,679.6-618.1,679.6z"/>
					<path class="st10" d="M-663,700.1c0,0-2.3-1-3.5,0c0,0,2.2-0.3,3.5,1.3c1.3-1.6,3.5-1.3,3.5-1.3
						C-660.7,699.1-663,700.1-663,700.1z"/>
					<path class="st10" d="M-505.3,756.3c0,0-2.2-1-3.2,0c0,0,2-0.3,3.2,1.2c1.2-1.5,3.2-1.2,3.2-1.2
						C-503.1,755.3-505.3,756.3-505.3,756.3z"/>
					<path class="st10" d="M-811.3,769c0,0-2.2-1-3.2,0c0,0,2-0.3,3.2,1.2c1.2-1.5,3.2-1.2,3.2-1.2C-809.1,768-811.3,769-811.3,769z
						"/>
					<path class="st10" d="M-865.9,781.9c0,0-2.3-1-3.5,0c0,0,2.2-0.3,3.5,1.3c1.3-1.6,3.5-1.3,3.5-1.3
						C-863.5,780.9-865.9,781.9-865.9,781.9z"/>
				</g>
			</g>
		</g>
	</g>
</g>
<g id="Layer_11" class="st0">
	
		<linearGradient id="SVGID_8_" gradientUnits="userSpaceOnUse" x1="-878.85" y1="907.4419" x2="-878.85" y2="761.697" gradientTransform="matrix(1 0 0 1 0 4)">
		<stop  offset="0" style="stop-color:#C3CFBB"/>
		<stop  offset="0.1754" style="stop-color:#BFC6BF"/>
		<stop  offset="0.4616" style="stop-color:#B4AECB"/>
		<stop  offset="0.8207" style="stop-color:#A286DD"/>
		<stop  offset="1" style="stop-color:#9870E8"/>
	</linearGradient>
	<path class="st11" d="M-1174.5,821l37.5-9h32l48.5-14l89,31l36,3c0,0,73-38.3,80-40.2c7-1.8,43-4.3,43-4.3L-746,798l169.3,81.8v40
		H-1181L-1174.5,821z"/>
</g>
<g id="Layer_10" class="st0">
	<g class="st5">
		
			<linearGradient id="SVGID_9_" gradientUnits="userSpaceOnUse" x1="-733.35" y1="922.3333" x2="-733.35" y2="776.7418" gradientTransform="matrix(1 0 0 1 0 4)">
			<stop  offset="3.443510e-002" style="stop-color:#D4BFE0"/>
			<stop  offset="0.3155" style="stop-color:#BAA2E2"/>
			<stop  offset="0.922" style="stop-color:#7859E7"/>
			<stop  offset="1" style="stop-color:#6F4FE8"/>
		</linearGradient>
		<polygon class="st12" points="-890,864.9 -824.5,818.3 -777.5,798 -731.2,746.3 -721.9,737 -706.7,737 -686,749.7 -672,749 
			-664,759.7 -612.7,801 -576.7,913 -890,913 		"/>
		<polygon class="st13" points="-824.5,818.3 -770,847.5 -688,913 -672,913 -733.3,840.3 -742.5,821 -761,816 -777.5,798 		"/>
		<polygon class="st13" points="-706.7,737 -687,771.5 -657.9,782.3 -611.5,821.5 -595.1,855.5 -612.7,801 -664,759.7 -672,749 
			-686,749.7 		"/>
	</g>
</g>
<g id="Layer_8" class="st0">
	<g class="st5">
		
			<linearGradient id="SVGID_10_" gradientUnits="userSpaceOnUse" x1="-801.5" y1="1050" x2="-801.5" y2="816.9992" gradientTransform="matrix(1 0 0 1 0 4)">
			<stop  offset="6.149841e-003" style="stop-color:#846DC2"/>
			<stop  offset="9.413316e-002" style="stop-color:#7760B9"/>
			<stop  offset="0.3223" style="stop-color:#5B44A4"/>
			<stop  offset="0.5506" style="stop-color:#463096"/>
			<stop  offset="0.7771" style="stop-color:#3A248D"/>
			<stop  offset="1" style="stop-color:#36208A"/>
		</linearGradient>
		<path class="st14" d="M-1202,920c0,0,43-69,61-72s39,0,39,0s74.2,65,96.1,72s114.9,8,114.9,8l67.9-14l51.1-17l13.8-19l16.8-5.7
			h8.3c0,0,16-27.3,20-40.3s13-22,13-22s1-16,7-17.5s16.5,0,16.5,0l10.6,1.5l29-35c0,0,11.5-17,17-19.5s14.5-17.5,14.5-17.5h23.5
			l39,15c0,0,15.5,31.5,27,37.5s24,18,24,18s17,36.5,25,43s22,17.5,22,17.5l44,47v194h-801V920z"/>
		<path class="st15" d="M-643.5,878.5l24.1,36.8l9.4,22.7l47-12c0,0-33.5-50.5-45.5-60.8s-32-19.8-32-19.8L-666,794l-10.5-1.5
			c0,0-10.5-1.5-16.5,0c0,0,20,29,23.5,46.5S-643.5,878.5-643.5,878.5z"/>
		<path class="st15" d="M-511.5,807l21,61l4.5-16.5l37.5,36L-401,913v-13l-44-47c0,0-14-11-22-17.5s-25-43-25-43s-12.5-12-24-18
			s-27-37.5-27-37.5l17,46L-511.5,807z"/>
		<path class="st16" d="M-1202,956.9l27.5-31.4l23-33.7l23.6-45l0,0c-4.3,0.2-8.8,0.5-13.1,1.2c-18,3-61,72-61,72V956.9z"/>
	</g>
</g>
<g id="Layer_9" class="st0">
	<g class="st5">
		
			<linearGradient id="SVGID_11_" gradientUnits="userSpaceOnUse" x1="-802.65" y1="1001" x2="-802.65" y2="859.9295" gradientTransform="matrix(1 0 0 1 0 4)">
			<stop  offset="0" style="stop-color:#AA94D0"/>
			<stop  offset="0.184" style="stop-color:#957EC8"/>
			<stop  offset="0.5332" style="stop-color:#725ABB"/>
			<stop  offset="0.8177" style="stop-color:#5C44B3"/>
			<stop  offset="1" style="stop-color:#543CB0"/>
		</linearGradient>
		<polygon class="st17" points="-412,791.8 -443.3,782.3 -458.7,787.1 -498,799 -572,851.7 -678,867.7 -744.9,861.7 -775.8,854.3 
			-793,857.7 -856.1,840.3 -878,829 -908,829.7 -922,840.3 -941.3,841 -1010,859.7 -1094.7,872.3 -1193.3,891.8 -1193.3,977.2 
			-412,977.2 		"/>
		<polygon class="st16" points="-878,829 -904.7,834.3 -916.3,848.7 -945.7,847 -1010,859.7 -941.3,841 -922,840.3 -908,829.7 		"/>
		<polygon class="st13" points="-818.3,885.7 -854.7,908 -926,916 -979.6,977.2 -642.9,977.2 -675.8,867.3 -678,867.7 -744.9,861.7 
			-775.8,854.3 -793,857.7 -856.1,840.3 -818.3,872.3 		"/>
	</g>
</g>
<g id="Layer_7" class="st0">
	
		<radialGradient id="SVGID_12_" cx="-472" cy="915.8" r="320.8" gradientTransform="matrix(1 0 0 1 0 4)" gradientUnits="userSpaceOnUse">
		<stop  offset="4.949920e-002" style="stop-color:#AEEEBF"/>
		<stop  offset="1" style="stop-color:#AEEEBF;stop-opacity:0"/>
	</radialGradient>
	<circle class="st18" cx="-472" cy="919.8" r="320.8"/>
	
		<radialGradient id="SVGID_13_" cx="-1150" cy="578" r="533.3" gradientTransform="matrix(1 0 0 1 0 4)" gradientUnits="userSpaceOnUse">
		<stop  offset="4.949920e-002" style="stop-color:#AEEEBF"/>
		<stop  offset="1" style="stop-color:#AEEEBF;stop-opacity:0"/>
	</radialGradient>
	<circle class="st19" cx="-1150" cy="582" r="533.3"/>
</g>
<g id="DESIGNED_BY_FREEPIK">
</g>
<rect x="-584" y="728" class="st2" width="750" height="387"/>
</svg>
