<?xml version="1.0" encoding="utf-8"?>
<!-- Generator: Adobe Illustrator 19.0.0, SVG Export Plug-In . SVG Version: 6.00 Build 0)  -->
<svg version="1.1" xmlns="http://www.w3.org/2000/svg" xmlns:xlink="http://www.w3.org/1999/xlink" x="0px" y="0px"
	 viewBox="0 0 750 500" style="enable-background:new 0 0 750 500;" xml:space="preserve">
<style type="text/css">
	.st0{display:none;}
	.st1{display:inline;fill:url(#SVGID_1_);}
	.st2{display:inline;}
	.st3{fill:url(#SVGID_2_);}
	.st4{fill:url(#SVGID_3_);}
	.st5{display:inline;fill:url(#SVGID_4_);}
	.st6{fill:url(#SVGID_5_);}
	.st7{opacity:0.1;fill:#FFFFFF;}
	.st8{clip-path:url(#SVGID_7_);}
	.st9{opacity:0.32;fill:#EEE8C1;}
	.st10{fill:#53307D;}
	.st11{display:inline;fill:url(#SVGID_8_);}
	.st12{fill:url(#SVGID_9_);}
	.st13{opacity:0.15;fill:#272763;}
	.st14{fill:url(#SVGID_10_);}
	.st15{opacity:0.33;fill:#272763;}
	.st16{opacity:0.32;fill:#FFFFFF;}
	.st17{fill:url(#SVGID_11_);}
	.st18{display:inline;opacity:0.9;fill:url(#SVGID_12_);}
	.st19{display:inline;opacity:0.47;fill:url(#SVGID_13_);}
</style>
<g id="BACKGROUND" class="st0">
	<linearGradient id="SVGID_1_" gradientUnits="userSpaceOnUse" x1="375" y1="212.5925" x2="375" y2="-27.4">
		<stop  offset="0" style="stop-color:#C3CFBB"/>
		<stop  offset="0.1754" style="stop-color:#BFC6BF"/>
		<stop  offset="0.4616" style="stop-color:#B4AECB"/>
		<stop  offset="0.8207" style="stop-color:#A286DD"/>
		<stop  offset="1" style="stop-color:#9870E8"/>
	</linearGradient>
	<rect class="st1" width="750" height="500"/>
</g>
<g id="Layer_4" class="st0">
	<g class="st2">
		<linearGradient id="SVGID_2_" gradientUnits="userSpaceOnUse" x1="162.0995" y1="582.9999" x2="162.0995" y2="471.1206">
			<stop  offset="0.3395" style="stop-color:#3F2D7F"/>
			<stop  offset="0.5038" style="stop-color:#352470"/>
			<stop  offset="0.8059" style="stop-color:#26185A"/>
			<stop  offset="1" style="stop-color:#201352"/>
		</linearGradient>
		<path class="st3" d="M330.7,517c0,0-7.4-21-11.9-27.3c-4.5-6.3-13.5-11.4-13.5-11.4s-11.7,1.3-15.3,0c-3.7-1.3-3.7-9.4-6-10.8
			c-2.3-1.5-4.3-17.5-9.7-18.5c-0.7,5.3,4.3,12.1-2,15.7c-6.3,3.6-9.3,8-9.3,10.8s-3,7.5-3,7.5s-1.6-4.6-5-5.6
			c-3.4-1-4.9,0.8-4.9,0.8l-1-2.9c0,0-4.7,2.3-6.5,0.2c-1.8-2.1-3.4-3.8-3.4-3.8s-3.7,2.7-4.9,0.1c-1.1-2.6-1.9-8.3-3.4-9.2
			c-1.5-1,0-13.5,0-13.5s-4,7.2-4.4,12.1c-0.3,4.9-2.8,7.1-4.9,10.7c-2.1,3.6-0.8,7.1-2.3,11.2c-1.5,4.1-5.3,6.1-6,3.1
			c-0.6-2.9,1.1-4.9-2.6-4.2c-3.7,0.6-6,1.9-6,1.9s1.5-3.3-1.6-5.7s-2.6,1.5-5.3-2.9c-2.8-4.4-7.4,0.6-10.2-2.2
			c-2.8-2.8-4.2-7.6-4.2-7.6s0-5.1-1.1-7.7c-1.1-2.6-4.2-1.9-4.2-1.9s-0.3-5.5-3.6-9.4c-3.2-3.9-1.8-5.7-2.8-7.9
			c-1-2.3-3.7-3.9-4.2-2.6s-0.6,7.4-3.6,10.5c-2.9,3.1-5.7-2.4-8.1,1.6c-2.4,4-4.5,6.8-4.5,6.8s-6.5-2.6-7.6-4.4
			c-1.1-1.8-1-4.4-2.4-5.2c-1.5-0.8-2.4-13.9-4.2-14.6c-1.8-0.6,0,4.1-1,5.2s-7.8-0.7-7.6,6.6c0.2,7.3-4.5-4-4.5-4l-2.8-6
			c0,0-1.9-14.2-3.2-12.1c-1.3,2.1-1.8,10.8-1.8,10.8s-3.4,1.9-4,6.6c-0.6,4.7-1.1,8.1-1.6,8.7c-0.5,0.6-2.4-3.1-3.6-3.6
			c-1.1-0.5-1.5-19.9-2.4-19.9c-1,0-2.9,6-2.9,7.3s-0.5,8.6-2.6,8.7s-4.5-0.6-5.7,0.5s-4-12.5-6.1-8.7c-2.1,3.7-2.6,5.3-2.6,5.3
			l-3.2-5.3c0,0-2.1-19.7-4.4-18.6c-2.3,1.1-1.9,7.6-1.9,8.3c0,0.6,1.1,2.6-1.3,5.5c-2.4,2.9-2.9,6.1-3.1,7.3
			c-0.2,1.1-1.8,3.4-1.8,3.4l-3.7-8.3c0,0-2.8-11.7-3.1-12.3c-0.3-0.6-2.6-0.5-1.9,5.5c0.6,6,0.2,8.7-1.3,9.7
			c-1.5,1-6.6-4.9-6.6-4.9l-3.4-6.1c0,0-2.4,0.2-2.1,6c0.3,5.8-0.8,9.2-1.1,10.2c-0.3,1-4.5-12-4.5-12.5c0-0.5-4-5.7-4.4-6.5
			c-0.3-0.8,2.4-16.2-0.8-14.2c-3.2,1.9-3.2,8.4-2.9,9.9s1.5,9.5-1.1,10.8c-2.6,1.3-3.9,4-4,5.3s-3.2-8.6-3.2-8.6s-5.2,0-6.5-2.3
			c-1.3-2.3-2.9-9.7-2.9-9.7s-1.1-8.1-2.8-3.6s0.2,8.3-1.1,10.4c-1.3,2.1-4.5,1.9-4.5,1.9l-4-5.5l-9.5-9.7V517H330.7z"/>
		<linearGradient id="SVGID_3_" gradientUnits="userSpaceOnUse" x1="510.125" y1="575.0001" x2="510.125" y2="453.7358">
			<stop  offset="4.769630e-002" style="stop-color:#3F2D7F"/>
			<stop  offset="0.4361" style="stop-color:#2B1D5E"/>
			<stop  offset="0.7798" style="stop-color:#1E1348"/>
			<stop  offset="1" style="stop-color:#190F40"/>
		</linearGradient>
		<path class="st4" d="M760.3,446.3c0,0-12.8-8-14-12.3s0.8-8.3,0-12.8s-0.4-10.5-0.4-10.5l-2.6-13c0,0-0.3,4.5-2.3,9.8
			s-4.3,11.3-3.3,14.5s-1.3,8-1.3,8s1,10-1.3,8s-3.8-7.3-3.8-7.3s1.8,7.8-1.5,6s-5-7-5-7s-2.8,5-4,4s-6,0-7.5-3.3s-4-12.3-7-14.8
			s-4-9-5.8-9s-2.3,11-3.5,13.3s-3,7.8-3,7.8s-2-6.8-3.3-10.5s-2-5.3-3-9.8s-2.8-6.5-2.8-6.5s-1.5,4-1.8,7s0,11.5,0,11.5l-0.1,5.5
			c0,0-7.9-6-8.1-12.5s-3-7.5-3-7.5s-2.8-4-4.3-5.8s-0.8-16.3-2.3-18.3s-3.5-11.5-3.5-11.5s-2,10.5-2.5,16.5s-2,14-2,14l-3.8,12.8
			l-4,4.3c0,0-0.3-3.3-2.3-12.3S645,393,645,392.3s-2.3-20-4-22.8c0,0-0.8,1-2,4.3s-3.3,7.8-3.3,9s-1.3,10.3-1.3,10.3l-2,8
			c0,0-3-4.5-3.5-8s-2.3-10-2.5-10.8s-2-22.3-2-22.3s-5.3,8.8-6.8,18.8s-2,6.3-2.8,13.8s-1.3,18.3-1.3,18.3s-4-10.5-4.8-11.8
			s0-13.3,0-13.3s0.8-16.5-0.3-18.8c-1.2-2.3-2.2,4-2.2,4s-0.8,10.5-4.5,15.3s-3,14.3-3,14.3l-2.8,10.5v6.5c0,0-1.5-11-3.5-15.5
			s-2-15.8-2-15.8s-2.3,2.5-2.8,7s0,12,0,12s-4,5.8-4,7.8c0,0-0.8-9-2-9.9s-1,3.6-2.3,3.6s-6-14.5-6-14.5l-1.3-5c0,0,0.5,0.5,0,7.3
			s0,12.8,0,12.8l-4-2.8c0,0-0.8-10.8-2-11.5s-1.3,6.8-1.8,8s-3.5,2.3-3.8,10.5s-1.8,12-1.8,12s-4.5-4-5.3,2.5s-7,3.5-7,3.5
			s-2.8,6.3-5,3.8s-7.5,5.8-9.3,2.8s0.5-5.5,0-9.5s-1.5-6.3-2-9s0-12.5,0-12.5s-3.5-1.8-3.5,4s0.3,9.8-2,14.3s-3.8,7.5-3.8,7.5
			s-0.3-4.3,0-9s1.3-10.3-0.1-10.3c-1.4,0-1.4,1-2.1,5.8s-3.8,14.3-3.8,14.3s-1-4.8-1.5-9s0-6.8,0-6.8s-3.8,0.3-3.8,3.3
			s-2.3,11.3-2.3,11.3l-1.5,5.5c0,0-3-5.5-2.3-9.3s-0.1-14.3-0.1-14.3s-3.1,2-3.1,6s0.8,8.5,0,10s-3,3.8-3,5.3s0,5.5,0,5.5
			s-7.8,3.8-7.8,4.5s-1.8,4.8-1.8,4.8s-6.8-0.8-8-3.5s-4.8-11.8-4.8-11.8s-0.3,2.8-1.3,5.5s-0.5,5.5-1.8,9.8s-2,5-3,3.8
			s-4-4.3-3-8.5s-0.3-1.8-1.3-8.8S464,423,464,423s-3.3,3.8-4.3,10s2.3,8,0,11.8s-4.3,5.6-4.3,7.8c0,2.2-1,5-1.5,3.7s-1-7.8-3.3-10
			s-1,4.5-1.8,5.3s-4,3.8-4,3.8s1-4.8,0-8s0.3-10,0-11.3s-2.4-5.8-2.4-5.8s-2.7,5.8-3.5,8.5s-3.6,0-3.5,4.8c0.1,4.8-1.4,12-2.4,11.8
			s-2.1-6-2-7.3c0-1.3,1.7-2.8,0-8.5c-1.7-5.8-3.8-9.3-3.8-10.3c0-1,0,3,0,3.8c0,0.8-0.5,10-0.8,10.8s-1.1,0.5-2.4,8.8
			s-3,8.8-3.5,8.8c-0.5,0-1.2-13.5-1.2-13.5l-3-6.8c0,0-1.6,13.5-4.2,13.5s-5.6-5.3-5.7-6.3c-0.1-1-6.1-7.3-6.6-12s-1.3-7-1.3-7
			s-4.9,8.5-4.5,13.5s-2.1,13.8-2.1,13.8s-6.2-4.8-8.2-11.5c-2-6.8-5.2-15.3-5.2-15.3s-4.8,14.8-3.5,17.3c1.3,2.5-8.2,7-7.2,10
			s-8.6,4.3-8.6,4.3l-5.4-6.5l-4.3-12c0,0-3.4,10.5-4.8,13.8s-4.4,9.2-4.4,9.2l-7.1-10l-4.3-8.3c0,0-3.2,10.3-2.7,12.5
			c0.5,2.3-2.5,4.7-2.5,5.5s-3.5-1.1-3.5-1.1v-10.1l-3.3-9.3c0,0-2.3,8.5-1.9,9.3c0.4,0.8-1.4,7-1.4,7l-6.8,3.1l-4.7,6.2
			c0,0-0.8-5.8-1.8-10.5s0-10.5,0-10.5s-4.5,4.6-3.3,13.4s0.5,13.4-1.3,15.4c-1.8,1.9-4.8-0.8-5.8,5.2s-5.8,9.8-6.8,10.5
			s-12.8,7.3-12.8,8s-11,10-11,10h497.3L760.3,446.3z"/>
	</g>
</g>
<g id="Layer_5" class="st0">
	<linearGradient id="SVGID_4_" gradientUnits="userSpaceOnUse" x1="382.4328" y1="496.0034" x2="382.4328" y2="307.2943">
		<stop  offset="0.2014" style="stop-color:#3F2D7F"/>
		<stop  offset="0.4" style="stop-color:#352470"/>
		<stop  offset="0.7653" style="stop-color:#26185A"/>
		<stop  offset="1" style="stop-color:#201352"/>
	</linearGradient>
	<path class="st5" d="M-6.5,480.7c0,0,165.1-48.3,166.1-49c1-0.7,10,0.3,13,0c3-0.3,27.3-12,28.7-12.7c1.3-0.7,9,0.3,15,5
		s8.3-2,9.3-1s10.3,11.3,11,10c0.7-1.3,5.3,0.7,7.3,0s16.3-9.3,23.7-13c7.3-3.7,13.3-2.3,26.7-4c13.3-1.7,33-8.3,36.3-9.3
		c3.3-1,15.3,4.7,25.5,6.3c10.1,1.7,13.9-3,18.9-2.7c11,0.7,25-4,28.8-5.3c3.8-1.3,42.3-11.3,42.3-11.3l108.5-64l22.7-19.9
		c0,0,21.3,5.2,31.3,1.2s24.7,3.3,24.7,3.3s29.3,7.3,42,11.3c12.7,4,33.3,21.3,33.3,21.3l26.7,13h36v152H-6.5V480.7z"/>
</g>
<g id="Layer_6">
	<linearGradient id="SVGID_5_" gradientUnits="userSpaceOnUse" x1="298.6667" y1="428" x2="298.6667" y2="305.9996">
		<stop  offset="0" style="stop-color:#5741A2"/>
		<stop  offset="0.6176" style="stop-color:#38267A"/>
		<stop  offset="1" style="stop-color:#281866"/>
	</linearGradient>
	<path class="st6" d="M614.7,464.3c0,0-96.8-33-110.4-37.8S446.3,393,436.8,389c-9.5-4-35.7-4-35.7-4l-11.3-9.3l-21.7-5.3l-8.6-3.3
		l-21.8-20.7c0,0-21.2-1.3-33.8-4c-12.5-2.7-34.5-6.7-34.5-6.7L224,315l-54.7-20.7l-38.7-4L115.3,305c0,0-10.7,32.7-20,38
		c-9.3,5.3-32,17-32,17l-24.7,17.3H18l-35.3,33.6V500h632V464.3z"/>
	<g>
		<path class="st7" d="M74,360l36-15.7l28.7-34.5l30.7-15.5l-38.7-4L115.3,305c0,0-10.7,32.7-20,38c-9.3,5.3-32,17-32,17l-24.7,17.3
			l11.3,0.3L74,360z"/>
	</g>
</g>
<g id="OBJECTS" class="st0">
	<g class="st2">
		<defs>
			<rect id="SVGID_6_" width="750" height="500"/>
		</defs>
		<clipPath id="SVGID_7_">
			<use xlink:href="#SVGID_6_"  style="overflow:visible;"/>
		</clipPath>
		<g class="st8">
			<path class="st9" d="M584.7-10.3c0,0-30.7,18.7-44.7,21.3s-8,3.3-20,4.7c-12,1.3-12.7-2.7-26.7,0c-14,2.7-24,2-27.3,8.7
				c-3.3,6.7,21.3,2.7,20,8.7c-1.3,6-19.3,4-24.7,7.3c-5.3,3.3,18.7,3.3-17.3,7.3s-28.7-8-51.3,6.7c-22.7,14.7-22,12-44.7,15.3
				c-22.7,3.3-42,4.7-28.7,13.3c13.3,8.7,71.3,7.3,75.3,12s-33.3,6.7-58,6c-24.7-0.7-39.3-8.4-70,0.1c-30.7,8.5-33.3,14.5-64,14.5
				c-30.7,0-38-1.3-90,4c-52,5.3-46.3-0.7-80.7,0C-2.3,120.3-6.5,119-6.5,119V-7L584.7-10.3z"/>
			<path class="st9" d="M-22,79c0,0,44.6-4,62.1-3c17.4,1,36.9,7,58.4,9s66.7,2.5,70.8,9s10.7,11,26.7,13s15,10.3,31.5,14.9
				s45,10.6,45,10.6s-34,2-54,0s-24-3.5-40-1.5s-21-6.5-36-6s-15,3.3-26.5,8.4s-8.5,12.6-37,6.6s-33.5-1.5-54.5,0s-37,2-39.5,0
				S-22,79-22,79z"/>
			<path class="st9" d="M295,137.5c0,0,15,3.9,39.5,4.7c24.5,0.8,50.5-1.8,70.5,0c20,1.8,46-3.7,63.5-4.7s43.5-1,46.5,0
				s21-0.8,21-0.8s-16.5-5.3-32.5-5.8s-29,0.5-39-3.5s-24.2-0.5-29.8,0c-5.7,0.5-22.2,6-38.7,4s-37-1.5-37-1.5L295,137.5z"/>
			<path class="st9" d="M547,119c0,0,17.5-8.2,41.5-7.1s36,6.2,47.5-0.1c11.5-6.3,16-8.3,30-9.3s17,4.5,32.5,5s51.5-3,51.5-3V155
				c0,0-23-5-39.5-6s-21.5-1.5-36-8s-12.5-3.5-34-6s-14,1.4-35-6.3C584.5,121,556,115.5,547,119z"/>
			<path class="st9" d="M607.5,62.5c0,0,26.5-7.5,35.5-12s16,0,26.5,2.5s19.5,5.6,30.5,2.5c11-3,19.5,1,26.5,2.5s29.5,1,29.5,1v13
				c0,0-43-2-54-3.5S690,73,672.5,67s-15-10.4-31-6.7C625.5,64,607.5,62.5,607.5,62.5z"/>
		</g>
		<g class="st8">
			<path class="st10" d="M485.9,123.8c0,0-4-1.8-5.9,0c0,0,3.7-0.5,5.9,2.2c2.2-2.7,5.9-2.2,5.9-2.2
				C489.9,122,485.9,123.8,485.9,123.8z"/>
			<path class="st10" d="M338.9,180.7c0,0-5-2.2-7.4,0c0,0,4.7-0.7,7.4,2.8c2.8-3.5,7.4-2.8,7.4-2.8
				C343.9,178.5,338.9,180.7,338.9,180.7z"/>
			<path class="st10" d="M549.9,97.6c0,0-6.7-3-9.9,0c0,0,6.2-0.9,9.9,3.7c3.7-4.6,9.9-3.7,9.9-3.7
				C556.5,94.6,549.9,97.6,549.9,97.6z"/>
			<path class="st10" d="M505,118.1c0,0-2.3-1-3.5,0c0,0,2.2-0.3,3.5,1.3c1.3-1.6,3.5-1.3,3.5-1.3C507.3,117.1,505,118.1,505,118.1z
				"/>
			<path class="st10" d="M662.7,174.3c0,0-2.2-1-3.2,0c0,0,2-0.3,3.2,1.2c1.2-1.5,3.2-1.2,3.2-1.2
				C664.9,173.3,662.7,174.3,662.7,174.3z"/>
			<path class="st10" d="M356.7,187c0,0-2.2-1-3.2,0c0,0,2-0.3,3.2,1.2c1.2-1.5,3.2-1.2,3.2-1.2C358.9,186,356.7,187,356.7,187z"/>
			<path class="st10" d="M302.1,199.9c0,0-2.3-1-3.5,0c0,0,2.2-0.3,3.5,1.3c1.3-1.6,3.5-1.3,3.5-1.3
				C304.5,198.9,302.1,199.9,302.1,199.9z"/>
		</g>
	</g>
</g>
<g id="Layer_11" class="st0">
	<linearGradient id="SVGID_8_" gradientUnits="userSpaceOnUse" x1="289.1667" y1="329.4419" x2="289.1667" y2="183.697">
		<stop  offset="0" style="stop-color:#C3CFBB"/>
		<stop  offset="0.1754" style="stop-color:#BFC6BF"/>
		<stop  offset="0.4616" style="stop-color:#B4AECB"/>
		<stop  offset="0.8207" style="stop-color:#A286DD"/>
		<stop  offset="1" style="stop-color:#9870E8"/>
	</linearGradient>
	<path class="st11" d="M-6.5,239l37.5-9h32l48.5-14l89,31l36,3c0,0,73-38.3,80-40.2c7-1.8,43-4.3,43-4.3L422,216l169.3,81.8v40H-13
		L-6.5,239z"/>
</g>
<g id="Layer_10" class="st0">
	<g class="st2">
		<linearGradient id="SVGID_9_" gradientUnits="userSpaceOnUse" x1="434.6667" y1="344.3333" x2="434.6667" y2="198.7418">
			<stop  offset="3.443510e-002" style="stop-color:#D4BFE0"/>
			<stop  offset="0.3155" style="stop-color:#BAA2E2"/>
			<stop  offset="0.922" style="stop-color:#7859E7"/>
			<stop  offset="1" style="stop-color:#6F4FE8"/>
		</linearGradient>
		<polygon class="st12" points="278,282.9 343.5,236.3 390.5,216 436.8,164.3 446.1,155 461.3,155 482,167.7 496,167 504,177.7 
			555.3,219 591.3,331 278,331 		"/>
		<polygon class="st13" points="343.5,236.3 398,265.5 480,331 496,331 434.7,258.3 425.5,239 407,234 390.5,216 		"/>
		<polygon class="st13" points="461.3,155 481,189.5 510.1,200.3 556.5,239.5 572.9,273.5 555.3,219 504,177.7 496,167 482,167.7 		
			"/>
	</g>
</g>
<g id="Layer_8" class="st0">
	<g class="st2">
		<linearGradient id="SVGID_10_" gradientUnits="userSpaceOnUse" x1="366.5" y1="472" x2="366.5" y2="238.9992">
			<stop  offset="6.149840e-003" style="stop-color:#846DC2"/>
			<stop  offset="9.413315e-002" style="stop-color:#7760B9"/>
			<stop  offset="0.3223" style="stop-color:#5B44A4"/>
			<stop  offset="0.5506" style="stop-color:#463096"/>
			<stop  offset="0.7771" style="stop-color:#3A248D"/>
			<stop  offset="1" style="stop-color:#36208A"/>
		</linearGradient>
		<path class="st14" d="M-34,338c0,0,43-69,61-72s39,0,39,0s74.2,65,96.1,72s114.9,8,114.9,8l67.9-14l51.1-17l13.8-19l16.8-5.7h8.3
			c0,0,16-27.3,20-40.3s13-22,13-22s1-16,7-17.5s16.5,0,16.5,0L502,212l29-35c0,0,11.5-17,17-19.5s14.5-17.5,14.5-17.5H586l39,15
			c0,0,15.5,31.5,27,37.5s24,18,24,18s17,36.5,25,43s22,17.5,22,17.5l44,47v194H-34V338z"/>
		<path class="st15" d="M524.5,296.5l24.1,36.8L558,356l47-12c0,0-33.5-50.5-45.5-60.8s-32-19.8-32-19.8L502,212l-10.5-1.5
			c0,0-10.5-1.5-16.5,0c0,0,20,29,23.5,46.5S524.5,296.5,524.5,296.5z"/>
		<path class="st15" d="M656.5,225l21,61l4.5-16.5l37.5,36L767,331v-13l-44-47c0,0-14-11-22-17.5s-25-43-25-43s-12.5-12-24-18
			S625,155,625,155l17,46L656.5,225z"/>
		<path class="st16" d="M-34,374.9l27.5-31.4l23-33.7l23.6-45l0,0c-4.3,0.2-8.8,0.5-13.1,1.2c-18,3-61,72-61,72V374.9z"/>
	</g>
</g>
<g id="Layer_9" class="st0">
	<g class="st2">
		<linearGradient id="SVGID_11_" gradientUnits="userSpaceOnUse" x1="365.3333" y1="423" x2="365.3333" y2="281.9295">
			<stop  offset="0" style="stop-color:#AA94D0"/>
			<stop  offset="0.184" style="stop-color:#957EC8"/>
			<stop  offset="0.5332" style="stop-color:#725ABB"/>
			<stop  offset="0.8177" style="stop-color:#5C44B3"/>
			<stop  offset="1" style="stop-color:#543CB0"/>
		</linearGradient>
		<polygon class="st17" points="756,209.8 724.7,200.3 709.3,205.1 670,217 596,269.7 490,285.7 423.1,279.7 392.2,272.3 375,275.7 
			311.9,258.3 290,247 260,247.7 246,258.3 226.7,259 158,277.7 73.3,290.3 -25.3,309.8 -25.3,395.2 756,395.2 		"/>
		<polygon class="st16" points="290,247 263.3,252.3 251.7,266.7 222.3,265 158,277.7 226.7,259 246,258.3 260,247.7 		"/>
		<polygon class="st13" points="349.7,303.7 313.3,326 242,334 188.4,395.2 525.1,395.2 492.2,285.3 490,285.7 423.1,279.7 
			392.2,272.3 375,275.7 311.9,258.3 349.7,290.3 		"/>
	</g>
</g>
<g id="Layer_7" class="st0">
	<radialGradient id="SVGID_12_" cx="696" cy="337.7718" r="320.7532" gradientUnits="userSpaceOnUse">
		<stop  offset="4.949920e-002" style="stop-color:#AEEEBF"/>
		<stop  offset="1" style="stop-color:#AEEEBF;stop-opacity:0"/>
	</radialGradient>
	<circle class="st18" cx="696" cy="337.8" r="320.8"/>
	<radialGradient id="SVGID_13_" cx="18" cy="0" r="533.293" gradientUnits="userSpaceOnUse">
		<stop  offset="4.949920e-002" style="stop-color:#AEEEBF"/>
		<stop  offset="1" style="stop-color:#AEEEBF;stop-opacity:0"/>
	</radialGradient>
	<circle class="st19" cx="18" cy="0" r="533.3"/>
</g>
<g id="DESIGNED_BY_FREEPIK">
</g>
</svg>
