<?xml version="1.0" encoding="utf-8"?>
<!-- Generator: Adobe Illustrator 19.0.0, SVG Export Plug-In . SVG Version: 6.00 Build 0)  -->
<svg version="1.1" id="Layer_1" xmlns="http://www.w3.org/2000/svg" xmlns:xlink="http://www.w3.org/1999/xlink" x="0px" y="0px"
	 viewBox="-584 291 750 500" style="enable-background:new -584 291 750 500;" xml:space="preserve">
<style type="text/css">
	.st0{display:none;}
	.st1{display:inline;fill:url(#SVGID_1_);}
	.st2{display:inline;}
	.st3{fill:url(#SVGID_2_);}
	.st4{fill:url(#SVGID_3_);}
	.st5{display:inline;fill:url(#SVGID_4_);}
	.st6{display:inline;fill:url(#SVGID_5_);}
	.st7{opacity:0.1;fill:#FFFFFF;enable-background:new    ;}
	.st8{clip-path:url(#SVGID_7_);}
	.st9{opacity:0.32;fill:#EEE8C1;enable-background:new    ;}
	.st10{clip-path:url(#SVGID_9_);}
	.st11{fill:#53307D;}
	.st12{display:inline;fill:url(#SVGID_10_);}
	.st13{fill:url(#SVGID_11_);}
	.st14{opacity:0.15;fill:#272763;enable-background:new    ;}
	.st15{fill:url(#SVGID_12_);}
	.st16{opacity:0.33;fill:#272763;enable-background:new    ;}
	.st17{opacity:0.32;fill:#FFFFFF;enable-background:new    ;}
	.st18{fill:url(#SVGID_13_);}
	.st19{display:inline;opacity:0.9;fill:url(#SVGID_14_);enable-background:new    ;}
	.st20{display:inline;opacity:0.47;fill:url(#SVGID_15_);enable-background:new    ;}
</style>
<g id="BACKGROUND" class="st0">
	
		<linearGradient id="SVGID_1_" gradientUnits="userSpaceOnUse" x1="-209" y1="580.4075" x2="-209" y2="820.4" gradientTransform="matrix(1 0 0 -1 0 1084)">
		<stop  offset="0" style="stop-color:#C3CFBB"/>
		<stop  offset="0.1754" style="stop-color:#BFC6BF"/>
		<stop  offset="0.4616" style="stop-color:#B4AECB"/>
		<stop  offset="0.8207" style="stop-color:#A286DD"/>
		<stop  offset="1" style="stop-color:#9870E8"/>
	</linearGradient>
	<rect x="-584" y="291" class="st1" width="750" height="500"/>
</g>
<g id="Layer_4" class="st0">
	<g class="st2">
		
			<linearGradient id="SVGID_2_" gradientUnits="userSpaceOnUse" x1="-421.85" y1="210.0001" x2="-421.85" y2="321.8794" gradientTransform="matrix(1 0 0 -1 0 1084)">
			<stop  offset="0.3395" style="stop-color:#3F2D7F"/>
			<stop  offset="0.5038" style="stop-color:#352470"/>
			<stop  offset="0.8059" style="stop-color:#26185A"/>
			<stop  offset="1" style="stop-color:#201352"/>
		</linearGradient>
		<path class="st3" d="M-253.3,808c0,0-7.4-21-11.9-27.3s-13.5-11.4-13.5-11.4s-11.7,1.3-15.3,0c-3.7-1.3-3.7-9.4-6-10.8
			c-2.3-1.5-4.3-17.5-9.7-18.5c-0.7,5.3,4.3,12.1-2,15.7c-6.3,3.6-9.3,8-9.3,10.8c0,2.8-3,7.5-3,7.5s-1.6-4.6-5-5.6
			s-4.9,0.8-4.9,0.8l-1-2.9c0,0-4.7,2.3-6.5,0.2s-3.4-3.8-3.4-3.8s-3.7,2.7-4.9,0.1c-1.1-2.6-1.9-8.3-3.4-9.2c-1.5-1,0-13.5,0-13.5
			s-4,7.2-4.4,12.1c-0.3,4.9-2.8,7.1-4.9,10.7c-2.1,3.6-0.8,7.1-2.3,11.2c-1.5,4.1-5.3,6.1-6,3.1c-0.6-2.9,1.1-4.9-2.6-4.2
			c-3.7,0.6-6,1.9-6,1.9s1.5-3.3-1.6-5.7c-3.1-2.4-2.6,1.5-5.3-2.9c-2.8-4.4-7.4,0.6-10.2-2.2c-2.8-2.8-4.2-7.6-4.2-7.6
			s0-5.1-1.1-7.7c-1.1-2.6-4.2-1.9-4.2-1.9s-0.3-5.5-3.6-9.4c-3.2-3.9-1.8-5.7-2.8-7.9c-1-2.3-3.7-3.9-4.2-2.6
			c-0.5,1.3-0.6,7.4-3.6,10.5c-2.9,3.1-5.7-2.4-8.1,1.6c-2.4,4-4.5,6.8-4.5,6.8s-6.5-2.6-7.6-4.4c-1.1-1.8-1-4.4-2.4-5.2
			c-1.5-0.8-2.4-13.9-4.2-14.6c-1.8-0.6,0,4.1-1,5.2s-7.8-0.7-7.6,6.6c0.2,7.3-4.5-4-4.5-4l-2.8-6c0,0-1.9-14.2-3.2-12.1
			c-1.3,2.1-1.8,10.8-1.8,10.8s-3.4,1.9-4,6.6c-0.6,4.7-1.1,8.1-1.6,8.7c-0.5,0.6-2.4-3.1-3.6-3.6c-1.1-0.5-1.5-19.9-2.4-19.9
			c-1,0-2.9,6-2.9,7.3c0,1.3-0.5,8.6-2.6,8.7c-2.1,0.1-4.5-0.6-5.7,0.5c-1.2,1.1-4-12.5-6.1-8.7c-2.1,3.7-2.6,5.3-2.6,5.3l-3.2-5.3
			c0,0-2.1-19.7-4.4-18.6s-1.9,7.6-1.9,8.3c0,0.6,1.1,2.6-1.3,5.5s-2.9,6.1-3.1,7.3c-0.2,1.1-1.8,3.4-1.8,3.4l-3.7-8.3
			c0,0-2.8-11.7-3.1-12.3c-0.3-0.6-2.6-0.5-1.9,5.5c0.6,6,0.2,8.7-1.3,9.7s-6.6-4.9-6.6-4.9l-3.4-6.1c0,0-2.4,0.2-2.1,6
			c0.3,5.8-0.8,9.2-1.1,10.2s-4.5-12-4.5-12.5s-4-5.7-4.4-6.5c-0.3-0.8,2.4-16.2-0.8-14.2c-3.2,1.9-3.2,8.4-2.9,9.9
			c0.3,1.5,1.5,9.5-1.1,10.8s-3.9,4-4,5.3s-3.2-8.6-3.2-8.6s-5.2,0-6.5-2.3c-1.3-2.3-2.9-9.7-2.9-9.7s-1.1-8.1-2.8-3.6
			c-1.7,4.5,0.2,8.3-1.1,10.4c-1.3,2.1-4.5,1.9-4.5,1.9l-4-5.5l-9.5-9.7V808H-253.3z"/>
		
			<linearGradient id="SVGID_3_" gradientUnits="userSpaceOnUse" x1="-74.1999" y1="217.9999" x2="-74.1999" y2="339.2642" gradientTransform="matrix(1 0 0 -1 0 1084)">
			<stop  offset="4.769630e-002" style="stop-color:#3F2D7F"/>
			<stop  offset="0.4361" style="stop-color:#2B1D5E"/>
			<stop  offset="0.7798" style="stop-color:#1E1348"/>
			<stop  offset="1" style="stop-color:#190F40"/>
		</linearGradient>
		<path class="st4" d="M176.3,737.3c0,0-12.8-8-14-12.3s0.8-8.3,0-12.8s-0.4-10.5-0.4-10.5l-2.6-13c0,0-0.3,4.5-2.3,9.8
			s-4.3,11.3-3.3,14.5s-1.3,8-1.3,8s1,10-1.3,8s-3.8-7.3-3.8-7.3s1.8,7.8-1.5,6s-5-7-5-7s-2.8,5-4,4s-6,0-7.5-3.3s-4-12.3-7-14.8
			s-4-9-5.8-9s-2.3,11-3.5,13.3s-3,7.8-3,7.8s-2-6.8-3.3-10.5s-2-5.3-3-9.8s-2.8-6.5-2.8-6.5s-1.5,4-1.8,7s0,11.5,0,11.5l-0.1,5.5
			c0,0-7.9-6-8.1-12.5s-3-7.5-3-7.5s-2.8-4-4.3-5.8s-0.8-16.3-2.3-18.3s-3.5-11.5-3.5-11.5s-2,10.5-2.5,16.5s-2,14-2,14l-3.8,12.8
			l-4,4.3c0,0-0.3-3.3-2.3-12.3S61,684,61,683.3s-2.3-20-4-22.8c0,0-0.8,1-2,4.3s-3.3,7.8-3.3,9s-1.3,10.3-1.3,10.3l-2,8
			c0,0-3-4.5-3.5-8s-2.3-10-2.5-10.8s-2-22.3-2-22.3s-5.3,8.8-6.8,18.8s-2,6.3-2.8,13.8s-1.3,18.3-1.3,18.3s-4-10.5-4.8-11.8
			s0-13.3,0-13.3s0.8-16.5-0.3-18.8c-1.2-2.3-2.2,4-2.2,4s-0.8,10.5-4.5,15.3s-3,14.3-3,14.3l-2.8,10.5v6.5c0,0-1.5-11-3.5-15.5
			s-2-15.8-2-15.8s-2.3,2.5-2.8,7s0,12,0,12s-4,5.8-4,7.8c0,0-0.8-9-2-9.9c-1.2-0.9-1,3.6-2.3,3.6s-6-14.5-6-14.5l-1.3-5
			c0,0,0.5,0.5,0,7.3s0,12.8,0,12.8l-4-2.8c0,0-0.8-10.8-2-11.5s-1.3,6.8-1.8,8s-3.5,2.3-3.8,10.5s-1.8,12-1.8,12s-4.5-4-5.3,2.5
			s-7,3.5-7,3.5s-2.8,6.3-5,3.8s-7.5,5.8-9.3,2.8s0.5-5.5,0-9.5s-1.5-6.3-2-9s0-12.5,0-12.5s-3.5-1.8-3.5,4s0.3,9.8-2,14.3
			s-3.8,7.5-3.8,7.5s-0.3-4.3,0-9s1.3-10.3-0.1-10.3c-1.4,0-1.4,1-2.1,5.8s-3.8,14.3-3.8,14.3s-1-4.8-1.5-9s0-6.8,0-6.8
			s-3.8,0.3-3.8,3.3s-2.3,11.3-2.3,11.3l-1.5,5.5c0,0-3-5.5-2.3-9.3s-0.1-14.3-0.1-14.3s-3.1,2-3.1,6s0.8,8.5,0,10s-3,3.8-3,5.3
			s0,5.5,0,5.5s-7.8,3.8-7.8,4.5s-1.8,4.8-1.8,4.8s-6.8-0.8-8-3.5s-4.8-11.8-4.8-11.8s-0.3,2.8-1.3,5.5s-0.5,5.5-1.8,9.8s-2,5-3,3.8
			s-4-4.3-3-8.5s-0.3-1.8-1.3-8.8S-120,714-120,714s-3.3,3.8-4.3,10s2.3,8,0,11.8s-4.3,5.6-4.3,7.8c0,2.2-1,5-1.5,3.7s-1-7.8-3.3-10
			s-1,4.5-1.8,5.3s-4,3.8-4,3.8s1-4.8,0-8s0.3-10,0-11.3s-2.4-5.8-2.4-5.8s-2.7,5.8-3.5,8.5s-3.6,0-3.5,4.8s-1.4,12-2.4,11.8
			s-2.1-6-2-7.3c0-1.3,1.7-2.8,0-8.5c-1.7-5.8-3.8-9.3-3.8-10.3s0,3,0,3.8s-0.5,10-0.8,10.8s-1.1,0.5-2.4,8.8s-3,8.8-3.5,8.8
			s-1.2-13.5-1.2-13.5l-3-6.8c0,0-1.6,13.5-4.2,13.5s-5.6-5.3-5.7-6.3s-6.1-7.3-6.6-12s-1.3-7-1.3-7s-4.9,8.5-4.5,13.5
			s-2.1,13.8-2.1,13.8s-6.2-4.8-8.2-11.5c-2-6.8-5.2-15.3-5.2-15.3s-4.8,14.8-3.5,17.3s-8.2,7-7.2,10s-8.6,4.3-8.6,4.3l-5.4-6.5
			l-4.3-12c0,0-3.4,10.5-4.8,13.8s-4.4,9.2-4.4,9.2l-7.1-10l-4.3-8.3c0,0-3.2,10.3-2.7,12.5c0.5,2.3-2.5,4.7-2.5,5.5
			s-3.5-1.1-3.5-1.1v-10.1l-3.3-9.3c0,0-2.3,8.5-1.9,9.3s-1.4,7-1.4,7l-6.8,3.1l-4.7,6.2c0,0-0.8-5.8-1.8-10.5c-1-4.7,0-10.5,0-10.5
			s-4.5,4.6-3.3,13.4s0.5,13.4-1.3,15.4c-1.8,1.9-4.8-0.8-5.8,5.2s-5.8,9.8-6.8,10.5c-1,0.7-12.8,7.3-12.8,8c0,0.7-11,10-11,10
			h497.3L176.3,737.3z"/>
	</g>
</g>
<g id="Layer_5" class="st0">
	
		<linearGradient id="SVGID_4_" gradientUnits="userSpaceOnUse" x1="-201.6" y1="296.9966" x2="-201.6" y2="485.7057" gradientTransform="matrix(1 0 0 -1 0 1084)">
		<stop  offset="0.2014" style="stop-color:#3F2D7F"/>
		<stop  offset="0.4" style="stop-color:#352470"/>
		<stop  offset="0.7653" style="stop-color:#26185A"/>
		<stop  offset="1" style="stop-color:#201352"/>
	</linearGradient>
	<path class="st5" d="M-590.5,771.7c0,0,165.1-48.3,166.1-49s10,0.3,13,0s27.3-12,28.7-12.7c1.3-0.7,9,0.3,15,5s8.3-2,9.3-1
		s10.3,11.3,11,10s5.3,0.7,7.3,0s16.3-9.3,23.7-13c7.3-3.7,13.3-2.3,26.7-4c13.3-1.7,33-8.3,36.3-9.3s15.3,4.7,25.5,6.3
		c10.1,1.7,13.9-3,18.9-2.7c11,0.7,25-4,28.8-5.3s42.3-11.3,42.3-11.3l108.5-64l22.7-19.9c0,0,21.3,5.2,31.3,1.2s24.7,3.3,24.7,3.3
		s29.3,7.3,42,11.3s33.3,21.3,33.3,21.3l26.7,13h36v152h-777.8V771.7z"/>
</g>
<g id="Layer_6" class="st0">
	
		<linearGradient id="SVGID_5_" gradientUnits="userSpaceOnUse" x1="-285.3" y1="365" x2="-285.3" y2="487.0004" gradientTransform="matrix(1 0 0 -1 0 1084)">
		<stop  offset="0" style="stop-color:#5741A2"/>
		<stop  offset="0.6176" style="stop-color:#38267A"/>
		<stop  offset="1" style="stop-color:#281866"/>
	</linearGradient>
	<path class="st6" d="M30.7,755.3c0,0-96.8-33-110.4-37.8s-58-33.5-67.5-37.5s-35.7-4-35.7-4l-11.3-9.3l-21.7-5.3l-8.6-3.3
		l-21.8-20.7c0,0-21.2-1.3-33.8-4c-12.5-2.7-34.5-6.7-34.5-6.7L-360,606l-54.7-20.7l-38.7-4l-15.3,14.7c0,0-10.7,32.7-20,38
		c-9.3,5.3-32,17-32,17l-24.7,17.3H-566l-35.3,33.6V791h632V755.3z"/>
	<g class="st2">
		<path class="st7" d="M-510,651l36-15.7l28.7-34.5l30.7-15.5l-38.7-4l-15.4,14.7c0,0-10.7,32.7-20,38c-9.3,5.3-32,17-32,17
			l-24.7,17.3l11.3,0.3L-510,651z"/>
	</g>
</g>
<g id="OBJECTS" class="st0">
	<g class="st2">
		<g>
			<defs>
				<rect id="SVGID_6_" x="-584" y="291" width="750" height="500"/>
			</defs>
			<clipPath id="SVGID_7_">
				<use xlink:href="#SVGID_6_"  style="overflow:visible;"/>
			</clipPath>
			<g class="st8">
				<path class="st9" d="M0.7,280.7c0,0-30.7,18.7-44.7,21.3s-8,3.3-20,4.7c-12,1.3-12.7-2.7-26.7,0c-14,2.7-24,2-27.3,8.7
					c-3.3,6.7,21.3,2.7,20,8.7s-19.3,4-24.7,7.3c-5.3,3.3,18.7,3.3-17.3,7.3s-28.7-8-51.3,6.7c-22.7,14.7-22,12-44.7,15.3
					c-22.7,3.3-42,4.7-28.7,13.3c13.3,8.7,71.3,7.3,75.3,12s-33.3,6.7-58,6s-39.3-8.4-70,0.1s-33.3,14.5-64,14.5s-38-1.3-90,4
					c-52,5.3-46.3-0.7-80.7,0c-34.2,0.7-38.4-0.6-38.4-0.6V284L0.7,280.7z"/>
				<path class="st9" d="M-606,370c0,0,44.6-4,62.1-3c17.4,1,36.9,7,58.4,9s66.7,2.5,70.8,9c4.1,6.5,10.7,11,26.7,13
					s15,10.3,31.5,14.9s45,10.6,45,10.6s-34,2-54,0s-24-3.5-40-1.5s-21-6.5-36-6s-15,3.3-26.5,8.4s-8.5,12.6-37,6.6
					s-33.5-1.5-54.5,0s-37,2-39.5,0S-606,370-606,370z"/>
				<path class="st9" d="M-289,428.5c0,0,15,3.9,39.5,4.7c24.5,0.8,50.5-1.8,70.5,0c20,1.8,46-3.7,63.5-4.7s43.5-1,46.5,0
					s21-0.8,21-0.8s-16.5-5.3-32.5-5.8s-29,0.5-39-3.5s-24.2-0.5-29.8,0c-5.7,0.5-22.2,6-38.7,4s-37-1.5-37-1.5L-289,428.5z"/>
				<path class="st9" d="M-37,410c0,0,17.5-8.2,41.5-7.1s36,6.2,47.5-0.1c11.5-6.3,16-8.3,30-9.3s17,4.5,32.5,5s51.5-3,51.5-3V446
					c0,0-23-5-39.5-6s-21.5-1.5-36-8s-12.5-3.5-34-6s-14,1.4-35-6.3C0.5,412-28,406.5-37,410z"/>
				<path class="st9" d="M23.5,353.5c0,0,26.5-7.5,35.5-12s16,0,26.5,2.5s19.5,5.6,30.5,2.5c11-3,19.5,1,26.5,2.5s29.5,1,29.5,1v13
					c0,0-43-2-54-3.5s-12,4.5-29.5-1.5s-15-10.4-31-6.7C41.5,355,23.5,353.5,23.5,353.5z"/>
			</g>
		</g>
		<g>
			<defs>
				<rect id="SVGID_8_" x="-584" y="291" width="750" height="500"/>
			</defs>
			<clipPath id="SVGID_9_">
				<use xlink:href="#SVGID_8_"  style="overflow:visible;"/>
			</clipPath>
			<g class="st10">
				<path class="st11" d="M-98.1,414.8c0,0-4-1.8-5.9,0c0,0,3.7-0.5,5.9,2.2c2.2-2.7,5.9-2.2,5.9-2.2
					C-94.1,413-98.1,414.8-98.1,414.8z"/>
				<path class="st11" d="M-245.1,471.7c0,0-5-2.2-7.4,0c0,0,4.7-0.7,7.4,2.8c2.8-3.5,7.4-2.8,7.4-2.8
					C-240.1,469.5-245.1,471.7-245.1,471.7z"/>
				<path class="st11" d="M-34.1,388.6c0,0-6.7-3-9.9,0c0,0,6.2-0.9,9.9,3.7c3.7-4.6,9.9-3.7,9.9-3.7
					C-27.5,385.6-34.1,388.6-34.1,388.6z"/>
				<path class="st11" d="M-79,409.1c0,0-2.3-1-3.5,0c0,0,2.2-0.3,3.5,1.3c1.3-1.6,3.5-1.3,3.5-1.3C-76.7,408.1-79,409.1-79,409.1z"
					/>
				<path class="st11" d="M78.7,465.3c0,0-2.2-1-3.2,0c0,0,2-0.3,3.2,1.2c1.2-1.5,3.2-1.2,3.2-1.2C80.9,464.3,78.7,465.3,78.7,465.3
					z"/>
				<path class="st11" d="M-227.3,478c0,0-2.2-1-3.2,0c0,0,2-0.3,3.2,1.2c1.2-1.5,3.2-1.2,3.2-1.2C-225.1,477-227.3,478-227.3,478z"
					/>
				<path class="st11" d="M-281.9,490.9c0,0-2.3-1-3.5,0c0,0,2.2-0.3,3.5,1.3c1.3-1.6,3.5-1.3,3.5-1.3
					C-279.5,489.9-281.9,490.9-281.9,490.9z"/>
			</g>
		</g>
	</g>
</g>
<g id="Layer_11" class="st0">
	
		<linearGradient id="SVGID_10_" gradientUnits="userSpaceOnUse" x1="-294.85" y1="463.5581" x2="-294.85" y2="609.303" gradientTransform="matrix(1 0 0 -1 0 1084)">
		<stop  offset="0" style="stop-color:#C3CFBB"/>
		<stop  offset="0.1754" style="stop-color:#BFC6BF"/>
		<stop  offset="0.4616" style="stop-color:#B4AECB"/>
		<stop  offset="0.8207" style="stop-color:#A286DD"/>
		<stop  offset="1" style="stop-color:#9870E8"/>
	</linearGradient>
	<path class="st12" d="M-590.5,530l37.5-9h32l48.5-14l89,31l36,3c0,0,73-38.3,80-40.2c7-1.8,43-4.3,43-4.3L-162,507L7.3,588.8v40
		H-597L-590.5,530z"/>
</g>
<g id="Layer_10">
	<g>
		
			<linearGradient id="SVGID_11_" gradientUnits="userSpaceOnUse" x1="-149.35" y1="475.6667" x2="-149.35" y2="621.2582" gradientTransform="matrix(1 0 0 -1 0 1084)">
			<stop  offset="3.443510e-002" style="stop-color:#D4BFE0"/>
			<stop  offset="0.3155" style="stop-color:#BAA2E2"/>
			<stop  offset="0.922" style="stop-color:#7859E7"/>
			<stop  offset="1" style="stop-color:#6F4FE8"/>
		</linearGradient>
		<polygon class="st13" points="-306,546.9 -240.5,500.3 -193.5,480 -147.2,428.3 -137.9,419 -122.7,419 -102,431.7 -88,431 
			-80,441.7 -28.7,483 7.3,595 -306,595 		"/>
		<polygon class="st14" points="-240.5,500.3 -186,529.5 -104,595 -88,595 -149.3,522.3 -158.5,503 -177,498 -193.5,480 		"/>
		<polygon class="st14" points="-122.7,419 -103,453.5 -73.9,464.3 -27.5,503.5 -11.1,537.5 -28.7,483 -80,441.7 -88,431 
			-102,431.7 		"/>
	</g>
</g>
<g id="Layer_8" class="st0">
	<g class="st2">
		
			<linearGradient id="SVGID_12_" gradientUnits="userSpaceOnUse" x1="-217.5" y1="321" x2="-217.5" y2="554.0008" gradientTransform="matrix(1 0 0 -1 0 1084)">
			<stop  offset="6.149841e-003" style="stop-color:#846DC2"/>
			<stop  offset="9.413316e-002" style="stop-color:#7760B9"/>
			<stop  offset="0.3223" style="stop-color:#5B44A4"/>
			<stop  offset="0.5506" style="stop-color:#463096"/>
			<stop  offset="0.7771" style="stop-color:#3A248D"/>
			<stop  offset="1" style="stop-color:#36208A"/>
		</linearGradient>
		<path class="st15" d="M-618,629c0,0,43-69,61-72s39,0,39,0s74.2,65,96.1,72s114.9,8,114.9,8l67.9-14l51.1-17l13.8-19l16.8-5.7h8.3
			c0,0,16-27.3,20-40.3s13-22,13-22s1-16,7-17.5s16.5,0,16.5,0L-82,503l29-35c0,0,11.5-17,17-19.5S-21.5,431-21.5,431H2l39,15
			c0,0,15.5,31.5,27,37.5s24,18,24,18s17,36.5,25,43s22,17.5,22,17.5l44,47v194h-801V629z"/>
		<path class="st16" d="M-59.5,587.5l24.1,36.8L-26,647l47-12c0,0-33.5-50.5-45.5-60.8s-32-19.8-32-19.8L-82,503l-10.5-1.5
			c0,0-10.5-1.5-16.5,0c0,0,20,29,23.5,46.5S-59.5,587.5-59.5,587.5z"/>
		<path class="st16" d="M72.5,516l21,61l4.5-16.5l37.5,36L183,622v-13l-44-47c0,0-14-11-22-17.5s-25-43-25-43s-12.5-12-24-18
			S41,446,41,446l17,46L72.5,516z"/>
		<path class="st17" d="M-618,665.9l27.5-31.4l23-33.7l23.6-45l0,0c-4.3,0.2-8.8,0.5-13.1,1.2c-18,3-61,72-61,72V665.9z"/>
	</g>
</g>
<g id="Layer_9" class="st0">
	<g class="st2">
		
			<linearGradient id="SVGID_13_" gradientUnits="userSpaceOnUse" x1="-218.65" y1="370" x2="-218.65" y2="511.0705" gradientTransform="matrix(1 0 0 -1 0 1084)">
			<stop  offset="0" style="stop-color:#AA94D0"/>
			<stop  offset="0.184" style="stop-color:#957EC8"/>
			<stop  offset="0.5332" style="stop-color:#725ABB"/>
			<stop  offset="0.8177" style="stop-color:#5C44B3"/>
			<stop  offset="1" style="stop-color:#543CB0"/>
		</linearGradient>
		<polygon class="st18" points="172,500.8 140.7,491.3 125.3,496.1 86,508 12,560.7 -94,576.7 -160.9,570.7 -191.8,563.3 
			-209,566.7 -272.1,549.3 -294,538 -324,538.7 -338,549.3 -357.3,550 -426,568.7 -510.7,581.3 -609.3,600.8 -609.3,686.2 
			172,686.2 		"/>
		<polygon class="st17" points="-294,538 -320.7,543.3 -332.3,557.7 -361.7,556 -426,568.7 -357.3,550 -338,549.3 -324,538.7 		"/>
		<polygon class="st14" points="-234.3,594.7 -270.7,617 -342,625 -395.6,686.2 -58.9,686.2 -91.8,576.3 -94,576.7 -160.9,570.7 
			-191.8,563.3 -209,566.7 -272.1,549.3 -234.3,581.3 		"/>
	</g>
</g>
<g id="Layer_7" class="st0">
	
		<radialGradient id="SVGID_14_" cx="112" cy="455.2" r="320.8" gradientTransform="matrix(1 0 0 -1 0 1084)" gradientUnits="userSpaceOnUse">
		<stop  offset="4.949920e-002" style="stop-color:#AEEEBF"/>
		<stop  offset="1" style="stop-color:#AEEEBF;stop-opacity:0"/>
	</radialGradient>
	<circle class="st19" cx="112" cy="628.8" r="320.8"/>
	
		<radialGradient id="SVGID_15_" cx="-566" cy="793" r="533.3" gradientTransform="matrix(1 0 0 -1 0 1084)" gradientUnits="userSpaceOnUse">
		<stop  offset="4.949920e-002" style="stop-color:#AEEEBF"/>
		<stop  offset="1" style="stop-color:#AEEEBF;stop-opacity:0"/>
	</radialGradient>
	<circle class="st20" cx="-566" cy="291" r="533.3"/>
</g>
<g id="DESIGNED_BY_FREEPIK">
</g>
</svg>
